<svg width="120" height="120" viewBox="0 0 120 120" fill="none" xmlns="http://www.w3.org/2000/svg">
<path d="M78.7511 114.533L78.7614 119.36L118.903 95.792C119.63 95.3669 120 94.8056 120 94.2519L119.981 89.4355C119.981 89.9878 119.611 90.5506 118.894 90.9652L78.7525 114.532L78.7511 114.533Z" fill="#2C2C2C"/>
<path d="M1.07768 71.7399L73.5085 114.533C74.9557 115.392 77.295 115.382 78.7511 114.533L118.893 90.9648C120.34 90.1162 120.349 88.7437 118.903 87.8846L46.4724 45.0915C45.0355 44.2429 42.6962 44.2429 41.2401 45.0915L1.09829 68.6598C-0.357744 69.5084 -0.357744 70.8898 1.07915 71.7384L1.07768 71.7399Z" fill="#5D7280"/>
<path d="M7.38632e-06 70.2109L0.0191464 75.0377C0.0191464 75.59 0.378371 76.1423 1.08651 76.5673L73.5173 119.36C74.9645 120.22 77.3142 120.209 78.7599 119.36L78.7496 114.534C77.2936 115.382 74.9542 115.393 73.507 114.534L1.07621 71.7405C0.357759 71.317 -0.00146484 70.7632 -0.00146484 70.2109H7.38632e-06Z" fill="#2C2C2C"/>
<path d="M4.40344 69.13C4.24591 69.2213 4.11341 69.3231 4.00594 69.4309C3.41999 70.0101 3.54513 70.7689 4.39166 71.2688L72.313 111.396C73.3112 111.986 74.935 111.981 75.9406 111.392L113.563 89.3098C114.573 88.7171 114.579 87.7637 113.581 87.1755L45.6597 47.048C45.1621 46.7532 44.5114 46.6065 43.8621 46.6035C43.1805 46.605 42.5313 46.7517 42.0336 47.0435L4.40491 69.13H4.40344Z" fill="#3BE5EB"/>
<path d="M97.603 86.0654V88.1368C97.603 89.0259 97.0288 89.9029 95.8908 90.5764L78.8158 100.666C76.5398 102.013 72.8165 102.026 70.5154 100.678C69.3789 99.992 68.8032 99.103 68.8032 98.226V96.1546C68.8032 97.0316 69.3788 97.9206 70.5287 98.6076C72.8283 99.9546 76.5412 99.9411 78.8291 98.5941L95.8922 88.505C97.0303 87.8315 97.6044 86.9545 97.6044 86.0654H97.603Z" fill="#F3A250"/>
<path d="M95.8908 88.5045L80.9962 97.3125V99.3779L95.8908 90.5774C97.0288 89.9039 97.603 89.0268 97.603 88.1378V86.0664C97.603 86.9554 97.0288 87.8325 95.8908 88.506V88.5045Z" fill="#FFB961"/>
<path d="M95.876 83.6295C97.0332 84.309 97.603 85.1846 97.6074 86.0646C97.6044 86.9507 97.0288 87.8352 95.8937 88.5057L78.8232 98.5903C76.5398 99.9389 72.8253 99.9538 70.5272 98.6038C68.2364 97.2508 68.232 95.0627 70.5154 93.7142L87.5859 83.6295C89.8693 82.281 93.5764 82.281 95.8746 83.6295H95.876Z" fill="#FFD06C"/>
<path d="M73.6689 96.0154L74.6921 95.4107C75.306 95.0485 75.2663 94.7297 74.8791 94.5022C74.4831 94.2702 73.9707 94.2388 73.3362 94.6145L72.313 95.2191L73.6704 96.0154H73.6689ZM75.4326 97.0511L76.5427 96.3955C77.0595 96.0902 77.2229 95.7774 76.7047 95.4736C76.1747 95.1638 75.6594 95.264 75.1382 95.5724L74.0281 96.2279L75.4326 97.0526V97.0511ZM76.949 96.5781L75.602 97.3744L75.3546 97.4447C75.2751 97.4447 75.1868 97.4208 75.1073 97.3744L71.755 95.4077L71.6431 95.267L71.7624 95.1219C72.8327 94.5546 73.4864 93.8676 74.5876 93.9874C75.2427 94.0742 75.9715 94.5352 75.5357 95.0919C76.0745 94.9033 76.6575 94.9228 77.1478 95.2117C77.8869 95.6457 77.6807 96.1456 76.949 96.5796V96.5781Z" fill="#1D2943"/>
<path d="M78.888 94.7634C79.2148 94.7769 79.5004 94.711 79.7463 94.5673C80.6709 94.0211 79.3827 93.2114 78.5538 93.1754C78.2358 93.156 77.9487 93.2218 77.7043 93.367C77.2494 93.6364 77.1993 94.0315 77.909 94.4491C78.2358 94.6407 78.5626 94.7395 78.8895 94.7634H78.888ZM80.5163 94.4117C80.0481 95.0598 78.6554 95.4115 77.4629 94.711C76.5692 94.1872 76.6237 93.59 77.351 93.1605C77.6042 93.0108 77.8825 92.912 78.1843 92.8656C78.4787 92.8237 78.7805 92.8327 79.0912 92.8941C79.92 93.0572 80.9992 93.7068 80.5148 94.4117H80.5163Z" fill="#1D2943"/>
<path d="M86.9705 90.4971L87.0427 90.5959L86.9646 90.7082L86.7659 90.7785L86.495 90.7875L84.1733 90.8429L85.2186 91.4655C85.3702 91.5553 85.379 91.6436 85.2274 91.7319L84.9977 91.7933L84.7828 91.7229L81.3201 89.6904L81.1994 89.5632L81.3098 89.4315L81.5247 89.3701L81.7559 89.4315L83.9421 90.7156L83.9907 89.427L84.0143 89.2818L84.1262 89.1696L84.3087 89.1172L84.4766 89.1591L84.5561 89.2803L84.506 90.4941L86.7585 90.4522L86.9735 90.4941L86.9705 90.4971Z" fill="#1D2943"/>
<path d="M81.9016 92.9842C82.2196 93.0022 82.5052 92.9378 82.7511 92.7926C82.9101 92.6983 83.0117 92.5906 83.0603 92.4694C83.2369 91.9395 82.1475 91.4306 81.5674 91.3962C81.2406 91.3813 80.955 91.4486 80.7091 91.5923C80.4191 91.7644 80.2792 91.9919 80.4574 92.2853C80.6488 92.5591 81.273 92.9483 81.9016 92.9827V92.9842ZM83.103 92.9977C81.7014 93.8268 79.8611 92.8854 79.8125 92.1401C79.8037 92.0039 79.8434 91.8782 79.9377 91.7465C80.0245 91.6192 80.1673 91.498 80.3573 91.3858C81.7647 90.5551 83.5932 91.5085 83.6403 92.2389C83.6786 92.5651 83.3827 92.833 83.103 92.9977Z" fill="#1D2943"/>
<path d="M88.0187 89.9907L87.9157 90.1254L87.6934 90.1823L87.4622 90.1119L85.2348 88.8053L85.1155 88.6691L85.2186 88.5419L85.4394 88.4775L85.6705 88.5479L87.898 89.8545L88.0187 89.9907Z" fill="#1D2943"/>
<path d="M84.6179 87.8532C84.7828 87.9504 84.8004 88.0657 84.6032 88.1809C84.2631 88.383 83.9186 88.169 83.9186 88.0313C83.9583 87.8891 84.1983 87.7858 84.347 87.7783C84.4427 87.7783 84.5296 87.8023 84.6179 87.8532Z" fill="#1D2943"/>
<path d="M89.1744 89.1289C89.3261 89.2172 89.3349 89.307 89.1833 89.3953L88.961 89.4522L88.7372 89.3863L86.4626 88.0513L86.3581 87.9255L86.4523 87.7953L86.6746 87.7385L86.8895 87.7998L87.159 87.9585C87.0957 87.8298 87.0853 87.7011 87.1266 87.5753C87.29 87.1967 88.029 86.7252 88.8564 86.9093C89.3644 87.0156 89.6824 87.2984 91.0029 88.0483L91.1148 88.18L91.0191 88.3117L90.788 88.3731L90.5642 88.3072C89.3305 87.6187 88.9448 87.2565 88.4501 87.2356C87.8789 87.1982 86.9204 87.8133 87.8524 88.3596L89.17 89.1319L89.1744 89.1289Z" fill="#1D2943"/>
<path d="M93.0023 86.4629C93.2201 85.9002 91.7582 85.0635 90.7542 85.6577C90.2933 85.9301 90.2786 86.3402 90.9028 86.7069C91.851 87.2637 92.8226 86.8895 93.0023 86.4629ZM94.1933 87.6019C93.8503 87.804 93.3512 88.0015 92.8521 88.0554L92.6857 88.0509L92.5665 87.9896L92.5267 87.9102L92.5576 87.8264L92.6769 87.7755C92.9389 87.7426 93.1613 87.6857 93.3438 87.6259C94.1565 87.3205 94.551 86.9149 93.7914 86.4689L93.3335 86.1995C93.7958 86.9344 92.0026 87.8743 90.4612 86.9688C89.993 86.6934 89.6323 86.3058 89.9297 85.8448C90.2065 85.4407 90.9985 85.1069 91.7361 85.2701L91.4535 85.1039L91.3489 84.9767L91.452 84.8405L91.6743 84.7852L91.8892 84.8465L94.1638 86.1816C94.9588 86.6485 94.9839 87.1349 94.1948 87.6019H94.1933Z" fill="#1D2943"/>
<path d="M8.74358 77.543C9.27799 77.8573 9.70789 78.6131 9.70641 79.2282C9.70494 79.8524 9.27211 80.1038 8.73769 79.7895L3.82927 76.9084C3.29485 76.5941 2.86496 75.8383 2.8679 75.2127C2.86938 74.5975 3.30221 74.3476 3.83663 74.6604L8.74505 77.5415L8.74358 77.543Z" fill="black"/>
<path d="M17.4194 82.6349C17.9465 82.9432 18.3764 83.7005 18.3734 84.3156C18.372 84.9398 17.9391 85.1912 17.4121 84.8814L12.4963 81.9958C11.9692 81.6875 11.5393 80.9302 11.5423 80.306C11.5438 79.6909 11.9766 79.441 12.5036 79.7493L17.4194 82.6349Z" fill="black"/>
<path d="M89.3599 99.0177L90.8675 99.9022L92.5679 98.898L91.0604 98.0134L89.3614 99.0177H89.3599ZM90.7424 100.417L88.7357 99.2392C88.5694 99.1419 88.5694 98.8965 88.7342 98.7992L90.9323 97.5001C91.0103 97.4537 91.1045 97.4552 91.1826 97.5001L93.1892 98.6779C93.3556 98.7752 93.3556 99.0192 93.1892 99.118L90.9927 100.416C90.9146 100.462 90.8219 100.462 90.7409 100.417H90.7424Z" fill="#E3E7F0"/>
<path d="M107.624 90.2975L107.159 90.5729L105.153 89.3936L105.618 89.1182L107.624 90.2975Z" fill="#E3E7F0"/>
<path d="M106.718 90.8337L106.252 91.1091L104.244 89.9297L104.711 89.6543L106.718 90.8337Z" fill="#E3E7F0"/>
<path d="M105.815 91.3664L105.35 91.6417L103.343 90.4639L103.808 90.1885L105.815 91.3664Z" fill="#E3E7F0"/>
<path d="M77.7367 108.329C77.5998 108.329 77.4879 108.217 77.4864 108.077L77.4761 107.03H75.5239C75.3855 107.03 75.2737 106.917 75.2737 106.776C75.2737 106.635 75.3855 106.521 75.5239 106.521H77.7234C77.8604 106.521 77.9722 106.634 77.9737 106.773L77.9855 108.072C77.987 108.213 77.8751 108.326 77.7367 108.329Z" fill="#E3E7F0"/>
<path d="M83.6462 113.761C83.9613 113.577 84.2174 113.725 84.2189 114.093C84.2204 114.461 83.9657 114.91 83.6506 115.094C83.3356 115.278 83.0794 115.13 83.0779 114.763C83.0765 114.395 83.3312 113.946 83.6462 113.762V113.761Z" fill="#3C4B60"/>
<path d="M85.9768 112.394C86.2918 112.21 86.548 112.359 86.5495 112.727C86.5509 113.095 86.2962 113.544 85.9812 113.728C85.6661 113.912 85.41 113.764 85.4085 113.396C85.407 113.028 85.6617 112.579 85.9768 112.394Z" fill="#3C4B60"/>
<path d="M88.3058 111.026C88.6209 110.842 88.8771 110.99 88.8785 111.357C88.88 111.725 88.6253 112.174 88.3102 112.358C87.9908 112.545 87.7346 112.397 87.7331 112.029C87.7331 111.662 87.9863 111.213 88.3058 111.026Z" fill="#3C4B60"/>
<path d="M90.6305 109.662C90.9455 109.478 91.2017 109.626 91.2032 109.994C91.2047 110.363 90.95 110.812 90.6349 110.996C90.3198 111.18 90.0637 111.032 90.0622 110.665C90.0607 110.297 90.3154 109.848 90.6305 109.664V109.662Z" fill="#3C4B60"/>
<path d="M114.08 95.8984C114.4 95.7113 114.656 95.8595 114.656 96.2277C114.657 96.5943 114.403 97.0433 114.083 97.2304C113.768 97.4145 113.512 97.2664 113.51 96.8997C113.509 96.5315 113.764 96.0825 114.079 95.8984H114.08Z" fill="#3C4B60"/>
<path d="M105.618 100.862C105.937 100.675 106.189 100.83 106.19 101.198C106.192 101.567 105.94 102.013 105.622 102.2L95.424 108.185C95.109 108.369 94.8484 108.222 94.8469 107.856C94.8455 107.489 95.1046 107.033 95.4196 106.848L105.618 100.863V100.862Z" fill="#3C4B60"/>
<path d="M80.0996 36.1183C79.9097 36.0075 79.6477 36.0225 79.3562 36.1931C78.7761 36.5328 78.3094 37.3545 78.3123 38.031C78.3123 38.3663 78.4286 38.6028 78.6156 38.7135L76.0819 37.2168C75.8949 37.1061 75.7772 36.8696 75.7772 36.5343C75.7757 35.8578 76.2424 35.0362 76.821 34.6964C77.1125 34.5258 77.376 34.5108 77.5659 34.6216L80.0996 36.1183Z" fill="#4F575F"/>
<path d="M79.3547 36.1924C79.9318 35.8542 80.4029 36.1251 80.4044 36.8016C80.4059 37.4766 79.9392 38.2983 79.362 38.638C78.7834 38.9778 78.3138 38.7054 78.3123 38.0304C78.3109 37.3539 78.7776 36.5322 79.3562 36.1924H79.3547Z" fill="#878554"/>
<path d="M79.2914 38.4412C78.8438 38.7046 78.514 38.519 78.514 37.9937C78.514 37.1481 79.2737 36.2695 79.7963 36.2695C80.5221 36.2695 80.2218 37.8934 79.2899 38.4397L79.2914 38.4412Z" fill="#878554"/>
<path d="M79.92 37.7761C79.4194 38.6337 78.5155 38.9031 78.5155 37.9931C78.5155 37.7058 78.6127 37.3855 78.7717 37.0996L79.92 37.7746V37.7761Z" fill="#878554"/>
<path d="M84.188 37.5117C83.8862 37.3351 83.4695 37.359 83.0087 37.6299C82.0886 38.1702 81.3466 39.4753 81.351 40.5485C81.351 41.0798 81.5365 41.4554 81.8339 41.6305L77.8118 39.2538C77.5144 39.0772 77.3289 38.703 77.3274 38.1702C77.3245 37.0971 78.0665 35.7905 78.9851 35.2517C79.4474 34.9808 79.8655 34.9569 80.1673 35.1335L84.1895 37.5102L84.188 37.5117Z" fill="#CC104A"/>
<path d="M83.0073 37.6295C83.9245 37.0922 84.6709 37.5232 84.6738 38.5979C84.6768 39.6695 83.9348 40.9761 83.0176 41.5134C82.0989 42.0522 81.3525 41.6212 81.3495 40.5495C81.3466 39.4764 82.0886 38.1698 83.0073 37.631V37.6295Z" fill="#A4A259"/>
<path d="M84.3514 38.6544C84.3558 39.5973 83.6933 40.7363 82.9057 41.2002C81.6661 41.9321 81.3054 40.4594 82.0798 39.0735C82.3418 38.599 82.7114 38.1844 83.1206 37.9435C83.3297 37.8207 83.5329 37.7549 83.7095 37.7549C84.11 37.7549 84.3514 38.0916 84.3514 38.6559V38.6544Z" fill="#A4A259"/>
<path d="M83.9038 40.1454C83.5711 40.7126 82.9189 41.3891 82.3138 41.3891C81.9134 41.3891 81.672 41.0524 81.672 40.4896C81.672 40.0331 81.8265 39.5258 82.0798 39.0723L83.9038 40.1439V40.1454Z" fill="#A4A259"/>
<path d="M85.2598 37.7955C84.9182 37.5965 84.4486 37.6234 83.9274 37.9287C82.888 38.5379 82.0503 40.0121 82.0562 41.2244C82.0562 41.8261 82.2653 42.2482 82.6009 42.4487L78.7319 40.1603C78.3962 39.9612 78.1872 39.5377 78.1842 38.9375C78.1813 37.7252 79.019 36.251 80.0555 35.6418C80.5766 35.335 81.0492 35.308 81.3893 35.5071L85.2583 37.797L85.2598 37.7955Z" fill="#FA5F7F"/>
<path d="M83.9259 37.9293C84.9624 37.3216 85.8045 37.8095 85.8074 39.0219C85.8104 40.2312 84.9742 41.7069 83.9377 42.3145C82.8998 42.9237 82.0577 42.4358 82.0533 41.225C82.0503 40.0127 82.888 38.5384 83.9245 37.9293H83.9259Z" fill="#E93565"/>
<path d="M85.2539 39.2159C85.2907 40.316 84.2057 41.9174 83.2369 41.9174C82.6142 41.9174 82.4993 41.1257 82.6628 40.5165C82.782 39.9747 83.1368 39.2848 83.5976 38.8492C83.8612 38.5813 84.2587 38.3164 84.6311 38.3164C85.0242 38.3164 85.2539 38.6502 85.2539 39.2159Z" fill="#FA5F7F"/>
<path d="M84.8107 40.6825C84.506 41.2408 83.8612 41.9158 83.2369 41.9158C82.6142 41.9158 82.4993 41.124 82.6628 40.5149C82.729 40.2155 82.86 39.9147 83.0073 39.6318L83.8273 40.0988V40.1153L84.1556 40.2994L84.3853 40.4326L84.8122 40.6825H84.8107Z" fill="#FE90A9"/>
<path d="M84.4339 39.8C84.3617 39.9272 83.8214 40.8941 83.8921 40.7669L83.8258 40.7504L82.6613 40.5169C82.7791 39.9751 83.1353 39.2851 83.5962 38.8496L84.3838 39.7491C84.4 39.7671 84.4177 39.7671 84.4339 39.8Z" fill="#B0B8CF"/>
<path d="M84.5119 40.0241C84.5119 40.28 84.3352 40.5913 84.1173 40.7215C83.8994 40.8472 83.7198 40.7455 83.7198 40.4925C83.7198 40.2351 83.8965 39.9223 84.1144 39.7951C84.3323 39.6649 84.5134 39.7711 84.5134 40.0241H84.5119Z" fill="#EBF2FF"/>
<path d="M83.5711 37.6682C83.1781 37.7879 82.9042 38.0918 82.6863 38.4809L80.0275 34.1465L81.0448 33.5479L83.5726 37.6697L83.5711 37.6682Z" fill="#C9CEE2"/>
<path d="M78.2019 33.0679L79.2148 32.4678L81.0404 33.5394L80.026 34.1381L78.2019 33.0679Z" fill="#B53C54"/>
<path d="M78.9557 33.7458L78.2004 33.3027L78.1901 36.0806L78.9557 36.5311V33.7458Z" fill="#9EA9C9"/>
<path d="M80.026 34.1375L82.6922 38.4854L78.1901 35.8437L78.2019 33.0674L80.026 34.1375Z" fill="#BBCFEF"/>
<path d="M79.2855 36.2213L78.9572 36.5386L78.7938 35.8711L79.2855 36.2213Z" fill="#9EA9C9"/>
<path d="M39.1054 65.0172C38.9154 64.9064 38.6534 64.9214 38.3619 65.092C37.7818 65.4317 37.3137 66.2534 37.3181 66.9299C37.3181 67.2652 37.4344 67.5016 37.6214 67.6124L35.0891 66.1157C34.9021 66.005 34.7844 65.7685 34.7844 65.4332C34.7814 64.3856 35.8915 63.1224 36.5731 63.5205L39.1068 65.0172H39.1054Z" fill="#4F575F"/>
<path d="M38.3619 65.0909C38.939 64.7526 39.4101 65.0235 39.4116 65.7C39.4131 66.375 38.9464 67.1967 38.3678 67.5364C37.7892 67.8762 37.3196 67.6038 37.3181 66.9288C37.3166 66.2523 37.7833 65.4306 38.3619 65.0909Z" fill="#878554"/>
<path d="M38.2986 67.3396C37.851 67.6031 37.5213 67.4175 37.5213 66.8921C37.5213 66.0465 38.2824 65.168 38.8036 65.168C39.5294 65.168 39.229 66.7919 38.2971 67.3382L38.2986 67.3396Z" fill="#878554"/>
<path d="M38.9272 66.6755C38.4267 67.5331 37.5227 67.8025 37.5227 66.8925C37.5227 66.6052 37.6199 66.2849 37.7789 65.999L38.9272 66.674V66.6755Z" fill="#878554"/>
<path d="M43.1952 66.4111C42.8934 66.2345 42.4768 66.2584 42.016 66.5293C41.0958 67.0681 40.3538 68.3747 40.3582 69.4479C40.3582 69.9792 40.5437 70.3549 40.8411 70.53L36.819 68.1532C36.5216 67.9766 36.3361 67.6025 36.3332 67.0696C36.3302 65.9965 37.0722 64.6899 37.9909 64.1511C38.4517 63.8802 38.8713 63.8563 39.1731 64.0329L43.1952 66.4096V66.4111Z" fill="#E93565"/>
<path d="M42.0145 66.5289C42.9317 65.9916 43.6781 66.4227 43.6811 67.4973C43.684 68.5689 42.942 69.874 42.0263 70.4128C41.1061 70.9516 40.3612 70.5206 40.3582 69.4489C40.3553 68.3758 41.0973 67.0692 42.016 66.5304L42.0145 66.5289Z" fill="#A4A259"/>
<path d="M43.3586 67.5539C43.3601 68.0358 43.1893 68.5731 42.9111 69.0431C42.1146 70.4035 40.6792 70.8331 40.6792 69.3888C40.6792 68.0478 41.8849 66.6514 42.7153 66.6514C43.1157 66.6514 43.3572 66.9881 43.3572 67.5524L43.3586 67.5539Z" fill="#A4A259"/>
<path d="M42.9111 69.0433C42.1146 70.4038 40.6807 70.8333 40.6807 69.389C40.6807 68.9325 40.8352 68.4252 41.0885 67.9717L42.9126 69.0433H42.9111Z" fill="#A4A259"/>
<path d="M44.267 66.695C43.9255 66.4959 43.4558 66.5229 42.9346 66.8282C41.8953 67.4374 41.0576 68.9116 41.0634 70.1239C41.0634 70.7241 41.2725 71.1476 41.6082 71.3482L37.7391 69.0583C37.4035 68.8592 37.1944 68.4356 37.1915 67.8355C37.1885 66.6232 38.0262 65.1489 39.0627 64.5398C39.5838 64.2345 40.0564 64.206 40.3965 64.4051L44.2655 66.695H44.267Z" fill="#FA5F7F"/>
<path d="M42.9332 66.8287C43.9681 66.221 44.8117 66.709 44.8147 67.9213C44.8176 69.1306 43.9814 70.6063 42.945 71.214C41.907 71.8231 41.0634 71.3337 41.0605 70.1244C41.0575 68.9121 41.8952 67.4378 42.9317 66.8287H42.9332Z" fill="#E93565"/>
<path d="M44.2611 68.1154C44.2773 68.5988 44.0977 69.1152 43.818 69.5821C43.1025 70.8932 41.6037 71.3811 41.6037 69.9324C41.6037 69.434 41.7922 68.958 42.0145 68.5315C42.2618 68.078 42.6166 67.6619 43.048 67.397C43.2615 67.2802 43.4588 67.2129 43.6384 67.2129C44.0315 67.2129 44.2611 67.5452 44.2611 68.1124V68.1154Z" fill="#FA5F7F"/>
<path d="M43.818 69.5819C43.1025 70.893 41.6052 71.3809 41.6052 69.9321C41.6052 69.4322 41.7922 68.9578 42.0145 68.5312L42.8345 68.9982V69.0147L43.1628 69.1988L43.3925 69.332L43.8195 69.5819H43.818Z" fill="#FE90A9"/>
<path d="M43.4411 68.6994C43.3689 68.8266 42.8286 69.7935 42.8993 69.6663L42.8331 69.6498L41.6685 69.4163C41.7878 68.8745 42.1426 68.1846 42.6034 67.749L43.391 68.6485C43.4087 68.665 43.4249 68.665 43.4411 68.6994Z" fill="#B0B8CF"/>
<path d="M43.5191 68.9235C43.5191 69.1809 43.3425 69.4907 43.1246 69.6209C42.9067 69.7467 42.7271 69.6449 42.7271 69.3919C42.7271 69.1345 42.9037 68.8217 43.1216 68.6945C43.3395 68.5643 43.5206 68.6705 43.5206 68.9235H43.5191Z" fill="#EBF2FF"/>
<path d="M39.5397 62.6436L40.5526 62.0449L43.2173 66.3943C42.864 66.4736 42.5283 66.6936 42.2044 66.9929L39.5397 62.6451V62.6436Z" fill="#C9CEE2"/>
<path d="M37.7156 61.5738L38.7285 60.9736L40.5541 62.0453L39.5397 62.6439L37.7156 61.5738Z" fill="#B53C54"/>
<path d="M39.5397 62.6434L42.2059 66.9927L37.7038 64.3496L37.7156 61.5732L39.5397 62.6434Z" fill="#BBCFEF"/>
<path d="M78.5597 72.1553C78.4463 72.2226 78.2903 72.2136 78.1151 72.1104L77.6498 72.3857C77.825 72.489 77.9811 72.498 78.0944 72.4306C78.2343 72.3483 78.4198 72.2376 78.5597 72.1553Z" fill="#434240"/>
<path d="M77.4864 71.0068C77.4864 70.8033 77.5571 70.6611 77.6704 70.5938L77.2052 70.8691C77.0919 70.9365 77.0212 71.0787 77.0212 71.2822C77.0197 71.6848 77.3009 72.1802 77.6484 72.3838L78.1136 72.1099C77.7661 71.9063 77.4849 71.4109 77.4864 71.0068Z" fill="#434240"/>
<path d="M77.6719 70.5939L77.2067 70.8678C77.3215 70.8005 77.4791 70.8094 77.6543 70.9127L78.1195 70.6388C77.9458 70.5355 77.7868 70.5266 77.6719 70.5939Z" fill="#E9E8E6"/>
<path d="M78.0944 72.4287L78.5597 72.1533C78.6716 72.086 78.7422 71.9438 78.7422 71.7432C78.7437 71.3346 78.4684 70.8437 78.1195 70.6387L77.6543 70.9141C78.0032 71.1191 78.2785 71.61 78.277 72.0186C78.2755 72.2207 78.2063 72.3628 78.0944 72.4302V72.4287Z" fill="#E9E8E6"/>
<path d="M76.8475 70.2382C77.055 70.1169 77.3392 70.1334 77.6528 70.3175C78.2858 70.6887 78.7879 71.5807 78.7849 72.32C78.7849 72.6822 78.6583 72.9397 78.4537 73.0609L79.097 72.6777C79.3002 72.558 79.4253 72.3006 79.4283 71.9369C79.4297 71.196 78.9292 70.3055 78.2947 69.9343C77.9811 69.7502 77.6969 69.7338 77.4894 69.855L76.846 70.2382H76.8475Z" fill="#4C5C75"/>
<path d="M78.7864 72.3198C78.7849 73.0502 78.2785 73.351 77.6454 72.9784C77.0197 72.6117 76.5133 71.7167 76.5147 70.9863C76.5162 70.2469 77.0286 69.9506 77.6528 70.3173C78.2873 70.6899 78.7879 71.5805 78.7864 72.3198Z" fill="#1D2943"/>
<path d="M77.2803 72.1608H78.0194V67.8594H77.2803V72.1608Z" fill="#BBCFEF"/>
<path d="M77.5056 72.7822C77.3922 72.8496 77.2361 72.8391 77.0609 72.7373L76.5957 73.0112C76.7709 73.1145 76.927 73.1234 77.0403 73.0561C77.1802 72.9738 77.3657 72.863 77.5056 72.7822Z" fill="#434240"/>
<path d="M76.4338 71.6338C76.4338 71.4302 76.5044 71.2881 76.6178 71.2207L76.1526 71.4946C76.0392 71.5619 75.9685 71.7041 75.9685 71.9077C75.9671 72.3103 76.2483 72.8057 76.5957 73.0092L77.0609 72.7353C76.7135 72.5318 76.4323 72.0349 76.4338 71.6323V71.6338Z" fill="#434240"/>
<path d="M76.6178 71.2221L76.1526 71.496C76.2674 71.4286 76.4249 71.4376 76.6001 71.5409L77.0654 71.2655C76.8916 71.1622 76.7326 71.1532 76.6178 71.2221Z" fill="#E9E8E6"/>
<path d="M77.0403 73.0557L77.5056 72.7818C77.6174 72.7144 77.6881 72.5722 77.6881 72.3702C77.6896 71.9616 77.4143 71.4707 77.0654 71.2656L76.6001 71.5395C76.949 71.7446 77.2244 72.2355 77.2229 72.6441C77.2229 72.8461 77.1522 72.9883 77.0403 73.0557Z" fill="#E9E8E6"/>
<path d="M76.6001 71.5414C76.2527 71.3378 75.97 71.5024 75.9685 71.9095C75.9671 72.3122 76.2483 72.8076 76.5957 73.0111C76.9446 73.2161 77.2214 73.0485 77.2229 72.6459C77.2244 72.2373 76.949 71.7464 76.6001 71.5414Z" fill="#EBF2FF"/>
<path d="M75.7963 70.8647C76.0024 70.7434 76.2865 70.7599 76.6016 70.944C77.2361 71.3167 77.7367 72.2057 77.7337 72.9465C77.7323 73.3087 77.6071 73.5662 77.404 73.6859L78.0473 73.3027C78.2505 73.183 78.3771 72.9256 78.3786 72.5619C78.3801 71.821 77.878 70.9305 77.245 70.5593C76.9314 70.3752 76.6458 70.3588 76.4411 70.48L75.7978 70.8632L75.7963 70.8647Z" fill="#4C5C75"/>
<path d="M76.5972 73.0108C76.9461 73.2159 77.2229 73.0482 77.2244 72.6456C77.2244 72.237 76.9505 71.7461 76.6001 71.5411C76.2527 71.3375 75.97 71.5021 75.9685 71.9092C75.9671 72.3133 76.2483 72.8088 76.5957 73.0123L76.5972 73.0108ZM77.7338 72.9464C77.7323 73.6768 77.2273 73.9762 76.5928 73.605C75.9685 73.2383 75.4606 72.3448 75.4621 71.6129C75.4636 70.8735 75.9759 70.5757 76.6001 70.9439C77.2332 71.3166 77.7352 72.2056 77.7323 72.9464H77.7338Z" fill="#1D2943"/>
<path d="M35.8738 26.6495V27.3649C35.8738 27.3649 39.1363 21.0939 39.123 18.6513L39.1201 18.56L39.1127 18.1963C38.9199 20.7945 35.8738 26.6495 35.8738 26.6495Z" fill="#D4DAEA"/>
<path d="M30.4531 24.1311L31.2996 24.5248L35.8738 26.6501C35.9136 26.5228 40.8382 17.1102 38.4973 16.9785L30.4531 24.1326V24.1311Z" fill="#E3E7F0"/>
<path d="M73.5261 49.3607V50.844L85.9223 23.6313C86.2212 23.0521 86.0975 22.5836 86.1269 21.3369H86.1255C86.1107 21.991 87.0574 19.6322 73.5276 49.3607H73.5261Z" fill="#B0B8CF"/>
<path d="M89.4527 71.5379C86.6849 72.0617 81.2759 72.0902 76.7209 69.444C76.5751 69.3557 76.4205 69.2674 76.2748 69.1776C76.2262 69.1477 76.1879 69.1178 76.1393 69.0878C75.9067 68.9397 75.5946 68.7421 75.2074 68.5056C69.4966 65.0109 47.7135 52.3041 39.9534 47.7527C37.2533 46.1737 33.9997 43.9212 31.8723 41.6223C31.7692 41.5175 30.5282 40.1271 30.3 39.8547V39.8442C25.658 34.4876 21.711 28.5458 19.666 24.6888L19.588 24.5406C18.344 22.1699 17.2089 19.2828 19.6749 20.2856C22.9859 21.6087 33.5345 25.7081 37.8643 28.3422C42.147 30.9689 78.383 52.2158 85.3157 56.3137C86.9764 57.282 88.4619 58.5542 89.5984 60.1242C89.6176 60.1437 89.6279 60.1631 89.6367 60.1736C90.0445 60.7663 90.4244 61.4278 90.7542 62.1672C90.8116 62.3153 90.8808 62.4635 90.9382 62.6207V62.6506C90.9485 62.6611 90.9485 62.6701 90.9485 62.6805C91.0751 62.9754 91.1811 63.2732 91.2591 63.589C91.5992 64.7639 91.8333 65.8789 91.9202 66.8967C92.1233 69.3348 91.4932 71.1413 89.4527 71.5364V71.5379Z" fill="#B0B8CF"/>
<path d="M91.9201 66.8966C91.7449 68.4771 90.9971 69.6011 89.4542 69.8975C86.6864 70.4213 81.2759 70.4498 76.7223 67.8036C76.5766 67.7153 76.4205 67.6255 76.2762 67.5372C76.2276 67.5073 76.1879 67.4788 76.1408 67.4489C75.9082 67.3007 75.5961 67.1032 75.2089 66.8667C74.6067 66.5015 73.8191 66.0271 72.8975 65.4748C65.0505 60.7752 46.8994 50.1802 39.9548 46.1137C38.0027 44.9688 35.7487 43.4781 33.8554 41.8692C33.1281 41.2465 32.4568 40.6254 31.8738 39.9833C31.7692 39.8771 30.5311 38.4897 30.3014 38.2158V38.2053C25.7051 32.9011 21.7448 26.9667 19.6675 23.0499C19.3922 22.4946 18.7474 21.3302 18.4146 20.2257C18.6855 19.9473 19.3215 20.1404 19.6763 20.2855C22.9874 21.6086 33.5374 25.708 37.8672 28.3422C42.1499 30.9673 78.3845 52.2142 85.3187 56.3121C86.9793 57.279 88.4648 58.5526 89.6014 60.1227C89.6205 60.1421 89.6308 60.1631 89.6397 60.1721C90.0475 60.7647 90.4273 61.4263 90.7571 62.1656C90.8145 62.3138 90.8837 62.462 90.9411 62.6206V62.6491C90.9514 62.6595 90.9514 62.6685 90.9514 62.679C91.078 62.9753 91.184 63.2717 91.2621 63.5875C91.6021 64.7624 91.8362 65.8774 91.9231 66.8951L91.9201 66.8966Z" fill="#EBF2FF"/>
<path d="M40.1816 36.4055C34.3456 34.8459 29.0574 38.3781 29.0574 38.3781C24.3271 33.2669 21.0735 27.2907 19.4511 24.3093C18.7709 23.0551 18.3719 22.0643 18.2071 21.738C17.6403 20.7023 18.6119 19.4271 19.8088 19.5963C28.7953 20.8684 49.9425 35.5344 50.4901 35.8293C52.0934 39.8374 46.0175 37.965 40.1801 36.4055H40.1816Z" fill="#FFB961"/>
<path d="M85.9768 22.0342L76.0613 43.7944L75.9347 44.0713L73.5261 49.3636L60.2598 41.524L59.2985 40.9507L65.4553 38.7297L65.9515 38.1969L66.165 37.9694L74.2549 29.2422L74.4683 29.0252C74.5891 28.895 83.6403 19.1396 83.5196 19.2698C83.9627 19.5138 85.4674 20.2831 85.8796 20.6513C86.3654 21.0659 85.9768 22.0342 85.9768 22.0342Z" fill="#EBF2FF"/>
<path d="M10.9887 33.5226V34.2156L11.0005 34.2141V34.2156C11.3877 34.9459 28.1284 32.9194 29.0206 32.8117L29.0574 32.8341V32.1621C29.0574 32.1621 11.3965 34.3203 11.0005 33.5705C10.9917 33.5555 10.9887 33.5406 10.9887 33.5226Z" fill="#D4DAEA"/>
<path d="M11.0005 33.5702C11.0432 33.6481 11.2714 33.693 11.6483 33.7139C14.8828 33.892 29.0574 32.1604 29.0574 32.1604C28.9308 32.0855 22.8755 28.5414 23.2524 28.7629C23.2524 28.7629 10.5412 32.6992 11.0005 33.5702Z" fill="#E3E7F0"/>
<path d="M88.4751 63.1182L89.226 65.4395C90.0151 64.9172 90.7482 63.1945 90.9544 62.6812C90.9499 62.6692 90.9455 62.6587 90.9411 62.6482V62.6258C90.5834 61.7053 90.124 60.8911 89.6397 60.1787C89.5248 60.7085 89.0375 62.5959 88.4751 63.1182Z" fill="#4F91FF"/>
<path d="M85.1759 63.3127L85.2539 65.7552C86.6407 65.8555 88.1498 65.8061 88.8829 65.5906L88.1277 63.2588C87.5579 63.3082 86.2594 63.3291 85.1744 63.3112L85.1759 63.3127Z" fill="#4F91FF"/>
<path d="M82.0621 64.0231L82.8468 65.3461C83.3164 65.5197 84.0614 65.6485 84.8799 65.7248L84.8019 63.3047C84.2984 63.2912 83.8759 63.2702 83.6389 63.2373L82.0621 64.0216V64.0231Z" fill="#4F91FF"/>
<path d="M35.4366 28.0568L34.4369 28.6494C34.272 28.3037 23.909 6.13938 23.0065 3.97668C22.0834 1.79452 19.083 0.312806 19.083 0.312806L19.613 0C19.613 0 23.0846 1.19136 23.9973 3.37352L35.438 28.0568H35.4366Z" fill="#FFB961"/>
<path d="M22.3161 20.1785C20.888 20.9493 19.56 22.8276 19.4526 24.3093C18.7724 23.0551 18.3734 22.0643 18.2085 21.738C17.6432 20.7023 18.6134 19.4271 19.8103 19.5963C20.5774 19.704 21.4224 19.9016 22.3161 20.1785Z" fill="#4F575F"/>
<path d="M19.0801 0.317383L22.2675 21.7798L34.4399 28.6525C34.4399 28.6525 23.9134 6.15892 23.0006 3.97527C22.0879 1.79161 19.0816 0.317383 19.0816 0.317383H19.0801Z" fill="#FFD475"/>
<path d="M75.2059 68.5072C69.4951 65.0124 47.712 52.3056 39.9519 47.7542C37.2592 46.1797 33.6316 43.6757 31.678 41.4053C42.3708 43.0831 60.5705 55.3558 66.0192 59.3056C71.1764 63.0562 73.8853 66.4537 75.2059 68.5072Z" fill="#F3A250"/>
<path d="M72.8945 65.4753C65.0475 60.7757 46.8949 50.1822 39.9519 46.1142C37.9997 44.9678 35.7472 43.4771 33.8524 41.8682C44.6807 44.643 60.9194 55.6107 66.0192 59.3045C69.1271 61.5645 71.3413 63.6883 72.8945 65.4753Z" fill="#FFB961"/>
<path d="M69.9236 60.6679L69.9118 61.3205C69.9059 61.6063 70.0973 61.9551 70.3402 62.1032L70.5522 62.2319C70.7937 62.3786 70.9939 62.2679 70.9983 61.982L71.0115 61.3294C71.016 61.0451 70.8246 60.6948 70.5831 60.5482L70.3711 60.418C70.1297 60.2713 69.9295 60.3835 69.925 60.6679H69.9236Z" fill="#4F575F"/>
<path d="M71.7741 61.79L71.7624 62.4425C71.7565 62.7284 71.9479 63.0771 72.1908 63.2253L72.4028 63.354C72.6442 63.5007 72.8445 63.3899 72.8489 63.1041L72.8621 62.4515C72.8665 62.1671 72.6752 61.8169 72.4337 61.6687L72.2217 61.54C71.9788 61.3934 71.78 61.5056 71.7756 61.79H71.7741Z" fill="#4F575F"/>
<path d="M73.6233 62.914L73.6115 63.5666C73.6056 63.8524 73.797 64.2011 74.0384 64.3493L74.2504 64.478C74.4919 64.6247 74.6921 64.514 74.6965 64.2281L74.7098 63.5755C74.7142 63.2912 74.5228 62.9409 74.2814 62.7943L74.0694 62.6641C73.8264 62.5174 73.6277 62.6296 73.6233 62.914Z" fill="#4F575F"/>
<path d="M62.53 56.1706L62.5182 56.8247C62.5138 57.1105 62.7052 57.4608 62.9481 57.6074L63.1587 57.7362C63.4001 57.8828 63.6018 57.7721 63.6062 57.4862L63.6195 56.8337C63.6224 56.5493 63.431 56.1991 63.1896 56.0524L62.9791 55.9222C62.7361 55.777 62.5344 55.8878 62.53 56.1721V56.1706Z" fill="#4F575F"/>
<path d="M60.6809 55.048L60.6691 55.7005C60.6647 55.9864 60.8561 56.3366 61.0975 56.4833L61.311 56.612C61.5525 56.7587 61.7512 56.6464 61.7556 56.3606L61.7674 55.7095C61.7733 55.4237 61.5819 55.0734 61.339 54.9253L61.127 54.7965C60.8855 54.6484 60.6839 54.7621 60.6794 55.0465L60.6809 55.048Z" fill="#4F575F"/>
<path d="M53.2859 50.5538L53.2726 51.2049C53.2726 51.2962 53.2888 51.392 53.3227 51.4877C53.3359 51.5237 53.3521 51.5611 53.3698 51.5955C53.4037 51.6688 53.4464 51.7392 53.4979 51.799C53.5215 51.832 53.5479 51.8589 53.5744 51.8859C53.6142 51.9263 53.6584 51.9622 53.704 51.9891L53.9145 52.1178C54.1575 52.263 54.3562 52.1523 54.3636 51.8664L54.3753 51.2153C54.3768 51.124 54.3591 51.0283 54.3282 50.9325C54.3135 50.8965 54.2973 50.8591 54.2796 50.8232C54.2458 50.7499 54.2031 50.681 54.153 50.6212C54.1413 50.6047 54.128 50.5897 54.1148 50.5733C54.0618 50.5164 54.0073 50.4685 53.9455 50.4311L53.7349 50.3024C53.4935 50.1542 53.2918 50.2679 53.2874 50.5538H53.2859Z" fill="#4F575F"/>
<path d="M49.5862 48.3037L49.5744 48.9578C49.5715 49.2421 49.7629 49.5924 50.0028 49.739L50.2134 49.8693C50.4577 50.0159 50.6565 49.9052 50.6624 49.6193L50.6742 48.9653C50.68 48.6809 50.4872 48.3307 50.2457 48.1855L50.0352 48.0553C49.7938 47.9101 49.5935 48.0194 49.5862 48.3052V48.3037Z" fill="#4F575F"/>
<path d="M47.7385 47.1781L47.7268 47.8322C47.7209 48.118 47.9123 48.4683 48.1566 48.6164L48.3672 48.7422C48.6086 48.8888 48.8103 48.7781 48.8118 48.4922L48.825 47.8412C48.8295 47.5553 48.6381 47.2051 48.3951 47.0584L48.1846 46.9297C47.9417 46.7815 47.7415 46.8938 47.7371 47.1781H47.7385Z" fill="#4F575F"/>
<path d="M64.3806 57.2963L64.3674 57.9503C64.363 58.2347 64.5543 58.5834 64.7973 58.7316L65.0078 58.8603C65.2507 59.0085 65.4495 58.8962 65.4539 58.6118L65.4657 57.9578C65.4715 57.6719 65.2802 57.3217 65.0372 57.178L64.8252 57.0478C64.5838 56.8996 64.385 57.0119 64.3806 57.2977V57.2963Z" fill="#4F575F"/>
<path d="M58.8318 53.9237L58.82 54.5748C58.8141 54.8607 59.007 55.2109 59.247 55.359L59.459 55.4878C59.7004 55.6359 59.9021 55.5237 59.908 55.2393L59.9198 54.5853C59.9227 54.2994 59.7313 53.9492 59.4899 53.801L59.2779 53.6738C59.035 53.5256 58.8347 53.6379 58.8303 53.9237H58.8318Z" fill="#4F575F"/>
<path d="M66.2268 58.4203L66.215 59.0713C66.2106 59.3572 66.402 59.7074 66.6434 59.8556L66.854 59.9843C67.0969 60.131 67.2971 60.0202 67.303 59.7344L67.3148 59.0818C67.3192 58.7959 67.1263 58.4457 66.8863 58.299L66.6758 58.1718C66.4329 58.0237 66.2312 58.1359 66.2268 58.4218V58.4203Z" fill="#4F575F"/>
<path d="M56.9827 52.7998L56.9709 53.4539C56.9665 53.7382 57.1579 54.087 57.3993 54.2351L57.6098 54.3639C57.8528 54.512 58.0515 54.3998 58.0589 54.1154L58.0706 53.4614C58.0765 53.1755 57.8837 52.8253 57.6407 52.6816L57.4302 52.5514C57.1888 52.4062 56.9871 52.5155 56.9827 52.8013V52.7998Z" fill="#4F575F"/>
<path d="M55.1335 51.6742L55.1203 52.3283C55.1159 52.6141 55.3087 52.9644 55.5502 53.111L55.7622 53.2398C56.0036 53.3879 56.2053 53.2757 56.2068 52.9898L56.22 52.3373C56.2245 52.0529 56.0331 51.7027 55.7931 51.5545L55.5811 51.4258C55.3382 51.2776 55.1379 51.3899 55.1335 51.6742Z" fill="#4F575F"/>
<path d="M44.0418 44.9322L44.03 45.5847C44.0241 45.8691 44.2155 46.2193 44.4584 46.3675L44.6689 46.4962C44.9104 46.6444 45.1091 46.5321 45.1165 46.2478L45.1283 45.5937C45.1327 45.3078 44.9413 44.9576 44.6984 44.8109L44.4878 44.6822C44.2449 44.5371 44.0432 44.6463 44.0403 44.9322H44.0418Z" fill="#4F575F"/>
<path d="M40.3435 42.684L40.3317 43.3366C40.3258 43.6224 40.5172 43.9727 40.7587 44.1193L40.9692 44.2465C41.2121 44.3947 41.4109 44.2825 41.4182 43.9966L41.43 43.3455C41.4344 43.0597 41.243 42.7095 41.0001 42.5613L40.7896 42.4326C40.5467 42.2844 40.345 42.3966 40.342 42.6825L40.3435 42.684Z" fill="#4F575F"/>
<path d="M36.6453 40.4361L36.632 41.0886C36.6276 41.373 36.8205 41.7232 37.0619 41.8714L37.2725 42.0016C37.5154 42.1483 37.7141 42.036 37.7215 41.7517L37.7333 41.0976C37.7377 40.8132 37.5448 40.463 37.3034 40.3148L37.0928 40.1861C36.8514 40.041 36.6497 40.1502 36.6453 40.4361Z" fill="#4F575F"/>
<path d="M45.8879 46.0571L45.8762 46.7081C45.8732 46.994 46.0646 47.3442 46.3061 47.4924L46.5166 47.6211C46.7595 47.7663 46.9597 47.654 46.9656 47.3696L46.9774 46.7186C46.9818 46.4327 46.7904 46.0825 46.5475 45.9343L46.337 45.8056C46.0955 45.6589 45.8953 45.7712 45.8879 46.0571Z" fill="#4F575F"/>
<path d="M34.7844 39.9657C34.78 40.2516 34.9713 40.6003 35.2143 40.7485L35.4263 40.8772C35.6677 41.0253 35.8679 40.9131 35.8709 40.6272L35.8827 39.9732C35.8885 39.6888 35.6986 39.3386 35.4557 39.1919L35.2437 39.0632C35.0008 38.915 34.802 39.0288 34.7976 39.3116L34.7844 39.9657Z" fill="#4F575F"/>
<path d="M42.1912 43.8075L42.1794 44.4615C42.175 44.7474 42.3678 45.0961 42.6078 45.2428L42.8213 45.373C43.0627 45.5197 43.263 45.4089 43.2674 45.1231L43.2792 44.469C43.2836 44.1847 43.0922 43.8344 42.8507 43.6893L42.6387 43.5605C42.3958 43.4124 42.1971 43.5246 42.1897 43.809L42.1912 43.8075Z" fill="#4F575F"/>
<path d="M7.00339 65.9539V66.5136C7.00339 66.5136 8.98796 68.6329 12.4536 67.8816C15.9177 67.1288 60.5896 59.7756 60.5896 59.7756V59.2158C60.5896 59.2158 60.3173 59.2607 59.8123 59.343L59.6533 59.37C59.2955 59.4298 58.8391 59.5032 58.2988 59.593C49.1313 61.1046 15.4422 66.6708 12.4521 67.3203C8.98649 68.0717 7.00192 65.9524 7.00192 65.9524L7.00339 65.9539Z" fill="#B0B8CF"/>
<path d="M60.5896 59.2165C60.5896 59.2165 54.8891 60.155 47.3911 61.3987C47.2453 61.4182 47.0893 61.4481 46.9347 61.478C33.4932 63.6991 14.6516 66.8481 12.458 67.3226C10.4469 67.7566 8.93202 67.2238 8.01923 66.7104C7.3582 66.3258 6.99898 65.9501 6.99898 65.9501L14.1746 63.4911L14.5442 63.3623L25.5476 59.6012L25.9171 59.4725L37.0472 55.6619L37.4153 55.5332L44.1168 53.2433L46.5254 50.3502C47.2733 49.4118 61.1123 58.347 60.5882 59.2165H60.5896Z" fill="#EBF2FF"/>
<path d="M70.4565 40.4967C72.3307 41.6027 74.2048 42.7088 76.0598 43.7939L75.9332 44.0708C72.6222 42.1161 69.2036 40.112 65.9485 38.1963L66.162 37.9688C67.4914 38.7486 68.8429 39.5493 70.2018 40.3485L77.0874 30.7713L74.2519 29.2417L74.4654 29.0246L77.2626 30.5363L83.0794 22.4497L81.4084 21.5412L81.6116 21.3242L83.5064 22.3509C65.3302 47.6209 71.9611 38.4013 70.4536 40.4982L70.4565 40.4967Z" fill="#C9CEE2"/>
<path d="M47.3911 61.3982C47.2453 61.4176 47.0893 61.4476 46.9347 61.4775C44.9148 60.2831 42.8066 59.0499 40.6998 57.8046L16.0517 64.6175L14.1776 63.492L14.5471 63.3633L16.1003 64.3017L27.94 61.024L25.5505 59.6022L25.9201 59.4734L28.3389 60.9147L40.342 57.5981C39.2438 56.947 38.1469 56.305 37.0501 55.6629L37.4197 55.5342C40.769 57.5098 44.189 59.5139 47.394 61.3982H47.3911Z" fill="#C9CEE2"/>
<path d="M76.4352 54.1558L75.2177 53.4404L74.3152 53.9732L75.5328 54.6872C75.7197 54.7979 75.867 55.0598 75.867 55.2799L76.7694 54.747C76.7694 54.5285 76.6237 54.2651 76.4352 54.1543V54.1558Z" fill="#72D561"/>
<path d="M75.5342 54.689C75.7227 54.7998 75.8684 55.0617 75.8684 55.2817L74.3167 54.3703V53.9736L75.5342 54.689Z" fill="#50B069"/>
<path d="M37.7936 31.4752L36.5761 30.7598L35.6736 31.2941L36.8911 32.008C37.0781 32.1188 37.2253 32.3822 37.2253 32.6007L38.1263 32.0679C38.1263 31.8493 37.9806 31.5859 37.7921 31.4752H37.7936Z" fill="#FA5F7F"/>
<path d="M36.8911 32.0084C37.0796 32.1191 37.2253 32.3826 37.2253 32.6011L35.6736 31.6896V31.293L36.8911 32.0084Z" fill="#DF3260"/>
</svg>
