<svg width="121" height="120" viewBox="0 0 121 120" fill="none" xmlns="http://www.w3.org/2000/svg">
<path d="M92.5951 71.6865C92.7499 71.9918 92.941 72.3049 93.1829 72.6218C93.3545 72.8504 93.5508 73.0804 93.7771 73.3142C95.6676 75.2692 98.4488 77.1645 100.517 77.8984C100.572 77.4308 100.594 76.9956 100.559 76.6656C100.527 76.3513 100.411 75.7394 100.257 75.0068C99.0417 74.1871 97.0276 73.2479 96.5401 73.005C96.0421 72.7582 93.8252 71.7164 92.5951 71.6865Z" fill="#FF7B01"/>
<path d="M89.5253 74.6794C89.8855 75.1483 90.2625 75.5523 90.6253 75.8524C92.0335 77.0202 96.6935 80.1443 99.7529 81.1524C99.8648 80.8276 99.9506 80.5574 100.005 80.3781C100.125 79.9845 100.255 79.452 100.36 78.8947C100.424 78.5621 100.477 78.2218 100.516 77.8983C98.4475 77.1644 95.6663 75.2704 93.7758 73.3141C93.5495 73.0816 93.3532 72.8504 93.1816 72.623L89.524 74.6794H89.5253Z" fill="#3C6393"/>
<path d="M87.4982 69.6294C87.5164 71.2921 88.4513 73.2809 89.524 74.6786L93.1815 72.6223C92.9397 72.3041 92.7486 71.9923 92.5938 71.6857C91.9489 70.4088 91.971 69.2592 91.919 68.3603C91.8527 67.208 91.9879 66.1974 92.196 65.0166C91.3781 65.3427 90.4485 65.7155 89.9661 66.0168C88.9883 66.6274 87.4748 67.4081 87.4982 69.6294Z" fill="#FF9B20"/>
<path d="M69.1299 62.9681C69.1403 62.9539 69.152 62.9383 69.1637 62.924C69.4198 62.5616 69.6799 61.5457 70.5328 60.8456C71.4235 60.1129 73.0371 59.5764 74.5531 59.8687C76.0679 60.1623 80.2442 62.5291 82.0035 63.8463C83.7627 65.1648 84.2268 66.4573 84.5922 68.1902C84.9589 69.9231 85.0811 72.1431 84.4362 75.1944C85.1123 75.6829 92.4157 79.4318 93.7198 80.132C94.9486 80.7919 97.6374 82.0285 99.2224 82.5378C99.4344 82.0402 99.6151 81.5557 99.7529 81.1543C96.6922 80.1463 92.0334 77.0222 90.6253 75.8543C90.2625 75.553 89.8855 75.1503 89.5253 74.6813C88.4526 73.2836 87.5177 71.2935 87.4982 69.6308C87.4735 67.4095 88.9883 66.6301 89.9661 66.0195C90.4485 65.7169 91.3781 65.3453 92.1973 65.018C93.0333 64.6828 93.7523 64.3971 93.7523 64.2866V62.7499C93.6743 62.8369 93.582 62.9227 93.4715 63.0058C92.9644 63.3877 91.8722 63.9073 90.0597 63.6358C87.6218 63.5293 81.9059 60.9664 79.8789 60.2844C77.8518 59.6011 74.8262 58.9906 74.5076 58.2826C74.2918 57.8033 75.2071 57.1343 76.0939 56.8433C75.8092 56.5679 75.5751 56.2756 75.3788 55.9678C73.6014 56.3588 71.1465 58.2839 70.3183 59.4582C69.6786 60.3714 69.4341 61.3963 69.1325 62.9681H69.1299Z" fill="#FFBB34"/>
<path d="M74.505 58.2811C74.8249 58.9891 77.8492 59.5996 79.8776 60.2829C81.9046 60.9662 87.6205 63.5278 90.0584 63.6343C89.9102 63.6135 89.7567 63.585 89.5994 63.5525C87.5099 63.1134 82.2713 60.8687 80.5121 59.8919C78.7607 58.9202 76.6374 57.3653 76.0913 56.8418C75.2058 57.1328 74.2892 57.8018 74.5063 58.2811H74.505Z" fill="#FFDB77"/>
<path d="M70.7812 53.0187C71.0633 53.1694 71.8981 53.7046 72.3791 53.6709C72.9473 53.6306 73.7652 53.02 74.5141 52.4121C74.4959 52.6979 74.5115 52.9876 74.5271 53.2747C74.2164 53.5137 73.9069 53.7358 73.604 53.9164C74.4075 54.9803 76.7596 58.0914 77.0171 58.4083C77.1588 58.5824 77.5671 58.585 78.0378 58.3304C78.2367 58.4694 78.4434 58.6097 78.6554 58.75C78.2107 59.0605 77.753 59.2189 77.3551 59.2189C77.0002 59.2189 76.692 59.0929 76.4853 58.8396C76.207 58.498 73.6989 55.1764 72.9773 54.2229C72.7614 54.3035 72.5469 54.3567 72.3206 54.3567C71.5691 54.3567 70.5744 53.6838 70.4587 53.6215L70.7799 53.0187H70.7812Z" fill="#7C9DC7"/>
<path d="M61.3454 39.001L70.1908 44.1035L79.0363 39.001L70.1908 33.8984L61.3454 39.001Z" fill="#FFDB77"/>
<path d="M61.3454 39.001V49.2047L70.1908 54.3072V44.1035L61.3454 39.001Z" fill="#FF930E"/>
<path d="M79.0363 39.001V49.2047L70.1908 54.3072V44.1035L79.0363 39.001Z" fill="#FFAD2A"/>
<path d="M70.1908 44.1035V46.8951L61.3454 41.7926V39.001L70.1908 44.1035Z" fill="#FFAC47"/>
<path d="M79.0363 39.001V41.7926L70.1908 46.8951V44.1035L79.0363 39.001Z" fill="#FFC24B"/>
<path d="M68.0663 53.0821L66.9819 52.456V42.251L68.0663 42.8771V53.0821Z" fill="#2C4769"/>
<path d="M64.4308 50.9842L63.3451 50.358V40.1543L64.4308 40.7804V50.9842Z" fill="#2C4769"/>
<path d="M64.4308 40.7804L73.2763 35.6779L72.1906 35.0518L63.3451 40.1543L64.4308 40.7804Z" fill="#3C6393"/>
<path d="M68.0663 42.8768L76.9118 37.7755L75.8274 37.1494L66.9819 42.2506L68.0663 42.8768Z" fill="#3C6393"/>
<path d="M75.0654 52.8648C75.6024 54.4262 80.2924 56.793 84.3725 58.9896C88.4513 61.1862 89.9167 60.8446 91.3586 60.4536C92.7993 60.0639 94.3141 59.1598 93.9227 58.2817C93.5326 57.4035 88.8466 55.5187 87.2057 54.5964C85.2514 53.4987 80.7318 51.18 79.6331 50.6682C78.5344 50.155 76.9703 49.8875 76.1407 50.2291C75.7377 50.3967 75.3606 50.6474 75.1317 51.0189C74.7846 51.5567 74.8561 52.2568 75.0654 52.8648Z" fill="#3C6393"/>
<path d="M74.5284 53.3046C74.596 54.5893 75.1252 55.9078 76.0835 56.8353C76.6387 57.3666 78.762 58.9215 80.5134 59.8932C82.2726 60.87 87.5112 63.1147 89.5994 63.5538C89.758 63.5875 89.9102 63.6148 90.0584 63.6356C91.8709 63.9071 92.9631 63.3875 93.4702 63.0043C93.5807 62.9211 93.673 62.8354 93.7524 62.7484C94.0644 62.4028 94.1411 62.0469 94.1346 61.7832C94.1281 61.4533 94.093 60.6479 94.1047 60.001C94.1177 59.3541 94.2282 58.8293 93.9227 58.2811C94.3128 59.1592 92.798 60.062 91.3573 60.453C89.9154 60.8427 88.45 61.1844 84.3712 58.989C80.2924 56.7924 75.6024 54.4256 75.0641 52.8642C74.8561 52.2602 74.7807 51.5587 75.1304 51.0196C75.2214 50.8715 75.3502 50.7273 75.4594 50.6377C74.4166 51.4496 74.479 52.3849 74.5284 53.3033V53.3046Z" fill="#2C4769"/>
<path d="M69.9763 59.3233C70.0777 59.3675 70.1974 59.4142 70.3157 59.4584C70.5445 59.1324 70.7864 58.87 71.0724 58.5946C70.5718 58.3776 70.066 58.0711 70.0816 57.8996C70.0946 57.7632 70.1909 57.5982 70.3339 57.4268C70.0348 57.6944 69.7969 57.9827 69.7644 58.2334C69.7046 58.6985 69.6435 59.1778 69.9763 59.3233Z" fill="#B70024"/>
<path d="M70.0829 57.8988C70.0673 58.0716 70.5718 58.3768 71.0737 58.5951C71.8669 57.8299 73.1515 56.8492 74.3841 56.3049C73.773 55.8671 73.5 55.6463 72.881 55.8593C71.9956 56.1646 70.763 57.0388 70.3352 57.426C70.1922 57.5961 70.096 57.7611 70.0829 57.8988Z" fill="#FF0939"/>
<path d="M71.0165 66.9932C71.0152 70.7824 73.6794 75.3913 76.9638 77.2853C78.3251 78.0712 79.5811 78.2673 80.5836 77.9569C80.7903 77.8919 80.9854 77.8075 81.1674 77.7022C81.3169 77.6165 81.4587 77.5165 81.5913 77.4022C81.733 77.2814 81.863 77.1463 81.9853 76.9969C82.573 76.2733 82.911 75.2068 82.911 73.8546C82.911 70.0654 80.2482 65.4565 76.9625 63.5625C76.103 63.0676 75.2878 62.8052 74.5505 62.7597C74.2801 62.7428 74.0226 62.7532 73.7756 62.7935C72.1152 63.052 71.0152 64.5575 71.0152 66.9945L71.0165 66.9932Z" fill="#0F243E"/>
<path d="M72.8082 68.0262C72.8082 70.6749 74.6689 73.8951 76.9651 75.2188C77.9168 75.7683 78.7945 75.9047 79.494 75.6878C79.6383 75.6436 79.7749 75.5839 79.9023 75.5098C80.0063 75.4501 80.1051 75.3799 80.1987 75.3007C80.776 74.8109 81.1206 73.9627 81.1206 72.8209C81.1206 70.1735 79.26 66.9519 76.9638 65.6282C76.3631 65.2827 75.7936 65.0995 75.2774 65.0671C73.8211 64.9735 72.8069 66.0699 72.8069 68.0262H72.8082Z" fill="#3C6393"/>
<path d="M73.7197 68.5512C73.7197 70.6193 75.172 73.1328 76.9638 74.1656C77.7075 74.5942 78.3914 74.7021 78.9388 74.5319C79.0506 74.4968 79.1573 74.45 79.2574 74.3929C79.3393 74.3448 79.416 74.2916 79.4888 74.2292C79.9387 73.8473 80.2091 73.1848 80.2091 72.2937C80.2091 70.227 78.7568 67.7134 76.9638 66.6794C76.4957 66.4092 76.051 66.2663 75.6479 66.2416C74.5115 66.1688 73.7197 67.0249 73.7197 68.5512Z" fill="#2C4769"/>
<path d="M74.6129 69.0679C74.6129 70.5657 75.6661 72.3882 76.9638 73.1364C77.5021 73.4482 77.9987 73.5248 78.394 73.4027C78.4759 73.3767 78.5526 73.3442 78.6255 73.3014C78.684 73.2676 78.7399 73.2273 78.7932 73.1832C79.1195 72.9065 79.3146 72.4258 79.3146 71.7802C79.3146 70.2825 78.2614 68.4613 76.9638 67.7117C76.6244 67.5169 76.3006 67.413 76.0094 67.3948C75.1863 67.3415 74.6116 67.9624 74.6116 69.0679H74.6129Z" fill="#3C6393"/>
<path d="M73.7769 62.7937C74.0239 62.7534 74.2827 62.743 74.5518 62.7599C75.2891 62.8054 76.1056 63.0678 76.9638 63.5627C80.2494 65.4567 82.9123 70.0656 82.9123 73.8548C82.9123 75.207 82.573 76.2735 81.9866 76.9971C81.8656 77.1465 81.7343 77.2829 81.5926 77.4024C81.46 77.5154 81.3182 77.6154 81.1687 77.7024L83.0059 76.6438C83.1555 76.5567 83.2972 76.458 83.4298 76.3424C84.2555 75.6422 84.7496 74.4276 84.7496 72.7948C84.7496 69.0056 82.0867 64.3967 78.801 62.5027C77.9428 62.0078 77.1263 61.7467 76.3891 61.7012C75.3112 61.6324 74.4023 62.0169 73.7769 62.795V62.7937Z" fill="#173861"/>
<path d="M84.0136 78.927C86.0017 80.4885 89.5175 82.4902 91.2442 83.4333C92.6069 84.1776 94.5247 85.3273 95.994 85.5312C96.397 85.5858 96.752 85.5728 97.0575 85.4676C97.9157 85.1714 98.6789 83.8087 99.2224 82.5357C97.6374 82.0265 94.9486 80.7898 93.7198 80.1299C92.417 79.431 85.1123 75.6808 84.4362 75.1924C84.2086 75.5171 83.7211 75.6003 83.4116 76.0393C83.1009 76.4784 82.0269 77.3656 84.0136 78.927Z" fill="#FF7B01"/>
<path d="M69.1637 62.9239C70.4275 61.2443 72.4325 60.8208 72.9642 60.8689C73.5012 60.9169 74.7716 61.5768 75.7363 62.1614C76.7011 62.7472 80.3652 65.2608 81.2441 66.3104C82.1244 67.36 82.1972 69.0189 82.2648 70.0438C82.3324 71.0687 81.6836 74.2889 81.2441 75.6568C81.6108 75.6815 83.4675 75.3879 84.4349 75.1931C85.0785 72.143 84.9563 69.9217 84.5896 68.1888C84.223 66.4559 83.7588 65.1621 82.0009 63.8449C80.2416 62.5277 76.0653 60.1609 74.5505 59.8673C73.0358 59.575 71.4222 60.1115 70.5302 60.8429C69.6773 61.5443 69.4172 62.5602 69.1611 62.9226L69.1637 62.9239Z" fill="#3C6393"/>
<path d="M67.762 66.481C68.4459 67.6034 71.3533 70.8977 72.79 71.8616C74.2268 72.8254 78.9986 74.8999 81.2467 75.656C81.6862 74.2894 82.335 71.0679 82.2674 70.0429C82.1985 69.018 82.1257 67.3579 81.2467 66.3096C80.3665 65.26 76.7024 62.7464 75.7376 62.1618C74.7742 61.576 73.5026 60.9161 72.9656 60.868C72.4338 60.8187 70.4275 61.2421 69.165 62.9231C69.152 62.9373 69.1416 62.9529 69.1312 62.9672C68.2756 63.6752 68.0559 64.969 67.7633 66.481H67.762Z" fill="#2C4769"/>
<path d="M105.917 87.2174C105.916 91.0067 108.58 95.6156 111.865 97.5095C113.226 98.2954 114.482 98.4916 115.484 98.1811C115.691 98.1161 115.886 98.0317 116.07 97.9265C116.219 97.8408 116.361 97.7394 116.493 97.6264C116.635 97.5056 116.765 97.3705 116.887 97.2211C117.475 96.4963 117.813 95.4311 117.813 94.0775C117.813 90.2883 115.15 85.6794 111.866 83.7855C111.006 83.2905 110.191 83.0281 109.454 82.984C109.185 82.9658 108.926 82.9775 108.679 83.0164C107.019 83.2749 105.919 84.7805 105.919 87.2174H105.917Z" fill="#0F243E"/>
<path d="M107.709 88.2508C107.709 90.8995 109.57 94.1197 111.866 95.4434C112.818 95.9929 113.695 96.1293 114.395 95.9124C114.539 95.8682 114.676 95.8085 114.803 95.7344C114.907 95.6747 115.006 95.6045 115.1 95.5253C115.677 95.0355 116.021 94.1873 116.021 93.0455C116.021 90.3981 114.161 87.1765 111.865 85.8528C111.264 85.5073 110.694 85.3241 110.178 85.2917C108.722 85.1981 107.708 86.2945 107.708 88.2508H107.709Z" fill="#3C6393"/>
<path d="M108.622 88.7778C108.622 90.8445 110.074 93.3594 111.867 94.3921C112.61 94.8208 113.295 94.9286 113.841 94.7584C113.953 94.7234 114.059 94.6779 114.16 94.6195C114.241 94.5727 114.318 94.5181 114.391 94.4558C114.842 94.0739 115.111 93.4114 115.111 92.5202C115.111 90.4535 113.659 87.9386 111.867 86.9059C111.398 86.6357 110.953 86.4928 110.551 86.4682C109.415 86.3954 108.623 87.2515 108.623 88.7778H108.622Z" fill="#2C4769"/>
<path d="M109.515 89.2915C109.515 90.7893 110.568 92.6118 111.866 93.36C112.404 93.6705 112.901 93.7484 113.296 93.625C113.378 93.6003 113.455 93.5666 113.528 93.525C113.586 93.4912 113.642 93.451 113.695 93.4068C114.022 93.1301 114.217 92.6495 114.217 92.0039C114.217 90.5061 113.164 88.6836 111.866 87.9354C111.527 87.7405 111.204 87.6366 110.912 87.6184C110.088 87.5651 109.514 88.1861 109.514 89.2915H109.515Z" fill="#3C6393"/>
<path d="M108.678 83.0177C108.925 82.9774 109.182 82.967 109.453 82.9839C110.19 83.0293 111.006 83.2917 111.865 83.7867C115.15 85.6806 117.813 90.2895 117.813 94.0787C117.813 95.4323 117.474 96.4975 116.887 97.221C116.766 97.3704 116.635 97.5068 116.493 97.6263C116.361 97.7393 116.219 97.8394 116.07 97.9264L117.907 96.8677C118.056 96.7807 118.198 96.6807 118.331 96.5676C119.156 95.8662 119.65 94.6529 119.65 93.0187C119.65 89.2295 116.988 84.6206 113.702 82.7267C112.844 82.2318 112.027 81.9693 111.29 81.9239C110.213 81.855 109.303 82.2395 108.679 83.0177H108.678Z" fill="#173861"/>
<path d="M108.136 78.116L108.566 79.1305L108.679 79.3994C109.503 79.7333 110.321 79.1214 110.411 78.8045L110.25 78.4226L110.052 77.9536L109.905 77.6094C109.572 77.7211 108.866 77.9198 108.136 78.1147V78.116Z" fill="#2C4769"/>
<path d="M105.272 83.2838C106.348 82.4524 107.596 81.8211 109.152 81.4977C111.278 81.0586 113.108 82.4161 114.49 83.6371C115.695 84.701 116.656 86.4521 117.012 87.8368C117.067 87.8394 117.119 87.842 117.17 87.842C118.211 87.842 118.862 87.69 119.652 86.9964C120.245 86.4755 120.182 85.4661 119.548 85.0102C119.059 82.6681 117.479 81.1872 116.209 80.2116C114.938 79.2361 113.326 78.4866 111.421 78.3579C111.003 78.3281 110.614 78.3541 110.251 78.4229L110.412 78.8048C110.323 79.1218 109.505 79.7336 108.68 79.3998L108.567 79.1309C108.061 79.4712 107.615 79.8934 107.206 80.3428C106.686 80.9118 106.189 81.6743 105.791 82.3563C105.592 82.6953 105.417 83.0162 105.275 83.2838H105.272Z" fill="#3C6393"/>
<path d="M103.912 85.6793C104.092 86.004 105.068 86.3132 106.225 86.1015C107.381 85.8897 108.701 85.8261 110.052 85.9716C111.404 86.117 112.807 86.5171 113.456 86.8328C114.074 87.1329 115.936 87.7746 117.012 87.8356C116.657 86.4509 115.696 84.6998 114.491 83.6359C113.109 82.4162 111.279 81.0574 109.154 81.4965C107.597 81.8186 106.349 82.4499 105.274 83.2826C105.131 83.5515 105.023 83.7645 104.956 83.8879C104.695 84.3764 104.321 84.5076 104.044 84.7349C103.767 84.9622 103.734 85.3519 103.914 85.678L103.912 85.6793Z" fill="#2C4769"/>
<path d="M99.2549 70.6131C99.4942 71.6004 99.9506 73.5424 100.256 75.0064C100.41 75.739 100.527 76.3508 100.558 76.6652C100.592 76.9952 100.571 77.4303 100.516 77.898C100.477 78.2227 100.424 78.5631 100.36 78.8943C102.468 79.0138 104.678 78.3838 106.639 77.3394C106.818 76.447 106.938 75.3714 106.892 74.8024C106.818 73.8996 105.915 69.922 105.734 69.092C105.551 68.2619 105.094 66.0393 105.832 65.6989C106.634 65.3677 107.189 67.6825 107.527 68.6269C107.869 69.5791 108.883 72.4941 109.255 73.2267C109.579 73.8658 110.087 74.1594 110.389 74.5335C111.265 73.6242 111.945 72.6526 112.347 71.6952C112.404 71.199 112.424 70.7404 112.395 70.3676C112.314 69.3102 111.858 67.3903 111.434 66.0887C111.012 64.787 110.034 61.8097 109.675 61.3226C109.316 60.8342 108.827 60.6393 108.632 60.7393C108.632 60.7393 102.721 63.3399 100.523 64.9507C98.324 66.5615 98.8948 69.1322 99.2523 70.6118L99.2549 70.6131Z" fill="#FFBB34"/>
<path d="M109.904 77.6094L110.051 77.9549C110.55 77.2158 111.313 75.6128 111.712 74.4853C112.008 73.6513 112.243 72.6121 112.348 71.6963C111.945 72.6537 111.265 73.6266 110.389 74.5346C110.433 74.5892 110.473 74.6463 110.507 74.7048C110.882 75.3556 110.654 75.8596 110.495 76.0844C110.394 76.2246 110.092 76.5468 110.19 76.791C110.274 77.0028 110.286 77.3171 110.159 77.4743C110.14 77.499 110.118 77.5185 110.092 77.534C110.068 77.5496 110.001 77.5756 109.904 77.6081V77.6094Z" fill="#FF7B01"/>
<path d="M96.0083 85.535C98.874 86.1104 103.976 83.4332 105.787 82.3576C106.186 81.6756 106.683 80.9118 107.202 80.3428C107.612 79.8934 108.058 79.4712 108.563 79.1309L108.133 78.1163C107.44 78.3008 106.723 78.4827 106.28 78.5853C106.406 78.3242 106.534 77.863 106.638 77.3408C104.677 78.3852 102.467 79.0152 100.358 78.8957C100.252 79.453 100.122 79.9856 100.003 80.3792C99.948 80.5585 99.8621 80.8287 99.7503 81.1534C99.6125 81.5548 99.4331 82.038 99.2198 82.5369C98.675 83.8099 97.9118 85.1726 97.0536 85.4687C96.7481 85.574 96.3918 85.5882 96.0057 85.5363L96.0083 85.535Z" fill="#FF9B20"/>
<path d="M106.894 74.8027C106.939 75.3729 106.82 76.4472 106.64 77.3409C106.536 77.8632 106.409 78.3243 106.283 78.5854C106.726 78.4828 107.442 78.3009 108.136 78.1165C108.866 77.9216 109.571 77.7229 109.905 77.6111C110.003 77.5787 110.068 77.5527 110.094 77.5371C110.118 77.5215 110.142 77.5007 110.16 77.4773C110.186 77.3332 110.187 77.2721 110.118 77.1149C110.027 76.911 109.909 76.5524 109.944 76.216C109.71 76.242 109.467 76.0731 109.337 75.7626C109.165 75.3548 109.256 74.8585 109.54 74.6533C109.584 74.6208 109.629 74.5987 109.678 74.5844C109.527 74.174 109.272 74.1999 109.018 73.8648C108.751 73.5115 107.262 69.669 106.919 68.4466C106.731 67.7841 106.309 66.1617 105.851 65.6953C105.096 66.0421 105.553 68.2648 105.735 69.0935C105.917 69.9236 106.821 73.9012 106.894 74.804V74.8027Z" fill="#FFD04F"/>
<path d="M105.85 65.6942C106.307 66.1605 106.731 67.783 106.917 68.4455C107.26 69.6678 108.749 73.5103 109.018 73.8636C109.272 74.1988 109.528 74.1728 109.678 74.5833C109.932 74.5067 110.217 74.6768 110.362 75.0224C110.533 75.4303 110.442 75.9265 110.159 76.1304C110.091 76.1798 110.018 76.2071 109.944 76.2149C109.909 76.55 110.027 76.9085 110.118 77.1125C110.187 77.2683 110.186 77.3307 110.16 77.4749C110.287 77.3164 110.277 77.0021 110.191 76.7916C110.094 76.5474 110.397 76.2252 110.497 76.085C110.655 75.8602 110.883 75.3562 110.508 74.7054C110.475 74.6469 110.434 74.5898 110.39 74.5352C110.088 74.1611 109.58 73.8675 109.256 73.2284C108.886 72.4958 107.872 69.5808 107.528 68.6286C107.19 67.6829 106.635 65.3694 105.85 65.6929V65.6942Z" fill="#FFDB77"/>
<path d="M109.337 75.7608C109.467 76.0712 109.71 76.2414 109.944 76.2141C110.018 76.2063 110.092 76.1778 110.16 76.1297C110.443 75.9258 110.534 75.4295 110.363 75.0216C110.218 74.6761 109.934 74.5059 109.679 74.5826C109.632 74.5969 109.585 74.6202 109.541 74.6514C109.258 74.8554 109.167 75.3529 109.338 75.7608H109.337Z" fill="#6C83A0"/>
<path d="M105.536 61.9409C105.536 62.5385 105.763 62.9477 106.12 63.1087C106.43 63.249 106.838 63.2075 107.285 62.949C108.251 62.3917 109.035 61.0355 109.035 59.921C109.035 59.5144 108.931 59.1961 108.752 58.9831C108.667 58.8831 108.566 58.8051 108.451 58.7532C108.141 58.6129 107.734 58.6544 107.286 58.9116C106.32 59.4689 105.536 60.8251 105.536 61.9396V61.9409Z" fill="#2C4769"/>
<path d="M105.248 61.8113C105.248 62.3803 105.452 62.7765 105.779 62.9531C105.796 62.9622 105.813 62.9713 105.831 62.9791L106.121 63.1103C105.763 62.9479 105.538 62.54 105.538 61.9412C105.538 60.8267 106.322 59.4705 107.288 58.9132C107.735 58.656 108.143 58.6131 108.453 58.7534L108.163 58.6222C107.855 58.4819 107.445 58.5235 106.998 58.782C106.3 59.186 105.695 60.0057 105.415 60.8513C105.308 61.1748 105.248 61.5008 105.248 61.81V61.8113Z" fill="#4F80BF"/>
<path d="M105.721 61.8359C105.721 62.8335 106.422 63.2388 107.288 62.74C108.152 62.2412 108.855 61.0279 108.855 60.0289C108.855 59.03 108.152 58.626 107.288 59.1248C106.422 59.6237 105.721 60.8369 105.721 61.8359Z" fill="#FFE394"/>
<path d="M109.418 54.1511C109.615 53.9134 109.962 53.838 110.354 53.9874C110.943 54.2148 111.403 54.8708 111.382 55.4514C111.378 55.5657 111.355 55.6683 111.317 55.7593C111.417 55.6385 111.48 55.4774 111.486 55.2812C111.491 55.1604 111.475 55.0383 111.441 54.9162C111.316 54.4629 110.951 54.029 110.505 53.838C109.984 53.6354 109.574 53.7848 109.418 54.1524V54.1511Z" fill="#3C6393"/>
<path d="M109.25 54.6285C109.229 55.2091 109.689 55.8638 110.278 56.0925C110.867 56.3198 111.361 56.0327 111.384 55.4521C111.404 54.8714 110.944 54.2154 110.355 53.9881C109.766 53.7607 109.272 54.0478 109.25 54.6285Z" fill="#2C4769"/>
<path d="M110.505 53.8367C110.951 54.0277 111.316 54.4628 111.441 54.9149C111.757 54.6668 112.724 53.903 113.024 53.6626C113.144 53.6003 113.222 53.4756 113.227 53.3054C113.239 52.9768 112.979 52.6052 112.645 52.4766C112.476 52.4117 112.321 52.4208 112.207 52.4896C112.187 52.5052 112.161 52.5247 112.13 52.5507C111.801 52.8118 110.749 53.6418 110.505 53.8354V53.8367Z" fill="#2C4769"/>
<path d="M108.069 55.461C108.431 55.248 108.842 55.2883 109.103 55.4078C109.29 55.4935 109.546 55.7468 109.652 56.1404C109.762 56.1534 109.81 56.1586 109.86 56.1625C109.884 56.1638 109.91 56.1664 109.936 56.169C109.988 56.1729 110.043 56.1755 110.098 56.1781C110.547 56.2015 111.071 56.2028 111.484 56.1937C111.527 56.1924 111.571 56.1924 111.611 56.1911C111.754 56.1872 111.88 56.182 111.975 56.1768C111.957 56.1066 111.93 56.0378 111.893 55.9741C111.832 55.8676 111.754 55.7533 111.666 55.639C111.623 55.6013 111.588 55.5571 111.56 55.5065C111.354 55.2597 111.113 55.0336 110.897 54.9154C110.811 54.6816 110.623 54.4997 110.349 54.3776C110.073 54.2555 109.737 54.2685 109.559 54.4751C109.217 54.3101 108.955 54.2815 108.796 54.2997C108.637 54.3166 108.24 54.6582 108.033 54.8167C107.968 54.8661 107.912 54.9297 107.878 55.0025C107.877 55.009 107.866 55.0323 107.855 55.0674C107.823 55.196 107.87 55.3389 108.067 55.4623L108.069 55.461Z" fill="#4F80BF"/>
<path d="M109.523 56.9451C110.19 56.9697 111.888 56.8476 111.937 56.7684C111.974 56.6904 111.989 56.5592 111.999 56.4384C112.002 56.3852 112.001 56.3332 111.995 56.2813C111.991 56.2462 111.984 56.2111 111.976 56.176C111.88 56.1812 111.755 56.1864 111.611 56.1903C111.571 56.1916 111.53 56.1929 111.486 56.1929C111.074 56.202 110.546 56.2007 110.113 56.1786C110.042 56.176 109.987 56.1708 109.935 56.1669C109.91 56.1656 109.884 56.163 109.858 56.1617C109.809 56.1579 109.761 56.1527 109.715 56.1475C109.704 56.3514 109.718 56.5813 109.665 56.8411C109.627 56.8658 109.579 56.9022 109.52 56.9451H109.523Z" fill="#4177BC"/>
<path d="M107.743 55.6575C107.868 55.5912 107.96 55.538 107.992 55.512C108.017 55.4951 108.043 55.4782 108.069 55.4626C107.873 55.3405 107.826 55.1976 107.856 55.0703C107.814 55.1872 107.739 55.434 107.742 55.6575H107.743Z" fill="#3D6EAD"/>
<path d="M111.667 55.6387C111.755 55.753 111.832 55.866 111.894 55.9738C111.931 56.0375 111.958 56.1063 111.976 56.1765C111.986 56.2115 111.991 56.2466 111.995 56.2817C112.731 56.3947 113.703 56.0712 114.13 55.9154C114.582 55.7504 114.997 55.8478 115.155 55.866C115.266 55.879 115.352 55.8361 115.352 55.7868C115.352 55.7647 115.335 55.7413 115.296 55.7205C115.192 55.666 114.667 55.6283 114.422 55.6711C114.178 55.714 113.067 55.879 112.694 55.9024C112.377 55.9245 111.911 55.8686 111.666 55.6387H111.667Z" fill="#3771BA"/>
<path d="M111.945 56.7526C112.473 56.711 114.102 56.0836 114.18 56.055C114.266 56.0251 114.578 55.9355 114.882 55.9758C115.189 56.0148 115.237 55.9992 115.295 55.9849C115.352 55.9693 115.352 55.8498 115.351 55.7861C115.351 55.8368 115.265 55.8797 115.154 55.8654C114.996 55.8472 114.581 55.7498 114.128 55.9147C113.702 56.0706 112.729 56.3941 111.993 56.2811C112 56.333 112.001 56.385 111.997 56.4382C111.988 56.5603 111.973 56.6915 111.944 56.7526H111.945Z" fill="#295D9F"/>
<path d="M96.8053 61.9801C97.0133 61.8943 97.2084 62.1009 97.3553 62.2736C97.3891 62.3126 97.4307 62.3853 97.4723 62.4815C97.5269 62.6036 97.5828 62.7608 97.6244 62.9283C99.1769 62.2165 100.854 61.4552 101.251 61.3046C102.032 61.0071 103.121 60.6382 103.583 60.4732C104.006 60.3212 104.954 60.5823 105.415 60.8538C105.695 60.0081 106.3 59.1872 106.998 58.7845C107.445 58.526 107.853 58.4844 108.163 58.6247L108.453 58.7559C108.569 58.8079 108.669 58.8858 108.753 58.9858C108.552 58.6065 108.102 58.3675 107.943 58.1973C107.821 58.1298 107.479 57.9102 107.479 57.9102L109.655 56.1592C109.546 55.75 109.29 55.4967 109.103 55.4096C108.842 55.2914 108.429 55.2512 108.069 55.4629C108.043 55.4785 108.017 55.4954 107.993 55.5123C107.96 55.5383 107.868 55.5915 107.743 55.6578C107.406 55.837 106.827 56.1137 106.491 56.2566C106.025 56.4515 105.661 56.6229 105.379 56.5359C105.097 56.4515 104.667 56.2878 104.312 56.4099C103.958 56.532 102.404 57.4478 102.221 57.618C102.039 57.7881 101.703 58.3662 101.104 58.9105C100.504 59.4561 98.1484 61.124 96.8053 61.9787V61.9801Z" fill="#3C6393"/>
<path d="M97.627 63.7597C97.8377 63.6623 100.616 62.4789 101.337 62.1983C102.057 61.9177 102.632 61.8073 103.108 61.8203C103.583 61.8333 103.938 62.1373 104.206 62.3438C104.475 62.5517 105.317 62.8673 105.781 62.9518C105.453 62.7751 105.249 62.3789 105.249 61.8099C105.249 61.5021 105.309 61.1747 105.415 60.8513C104.954 60.5798 104.007 60.3187 103.583 60.4706C103.121 60.6356 102.032 61.0045 101.251 61.302C100.854 61.454 99.1769 62.2139 97.6244 62.9271C97.6934 63.2116 97.7207 63.5285 97.627 63.7597Z" fill="#2C4769"/>
<path d="M102.426 57.6782C103.037 57.2573 103.687 56.8793 104.38 56.5507C104.494 56.4844 104.677 56.4844 104.791 56.5507C104.904 56.6156 104.904 56.7221 104.791 56.7871L102.837 57.9146C102.724 57.9809 102.539 57.9809 102.426 57.9146C102.313 57.8497 102.313 57.7432 102.426 57.6782Z" fill="#4F80BF"/>
<path d="M107.479 57.9076C107.479 57.9076 107.821 58.1272 107.943 58.1947C108.018 58.1311 109.055 57.2906 109.522 56.9451C109.579 56.9022 109.628 56.8671 109.665 56.8412C109.718 56.58 109.705 56.3514 109.654 56.1553L107.479 57.9063V57.9076Z" fill="#2C4769"/>
<path d="M94.4753 63.0519C94.7249 63.2585 94.9486 63.678 95.0591 64.1067C95.509 63.8989 96.3671 63.5027 97.3085 63.0714C97.4203 63.0195 97.5217 62.974 97.6232 62.9272C97.5816 62.7597 97.5269 62.6025 97.471 62.4804C97.4294 62.3842 97.3865 62.3115 97.354 62.2725C97.2071 62.1011 97.012 61.8932 96.804 61.9789C96.804 61.9789 94.9421 62.8467 94.4753 63.0519Z" fill="#4F80BF"/>
<path d="M94.1801 68.1904C94.2347 68.1566 94.2894 68.0851 94.318 67.9695C94.3908 67.6772 94.9252 67.0953 95.1241 66.9316C95.323 66.7705 96.3294 66.0795 96.6103 65.4559C96.8898 64.8324 97.2812 63.9114 97.6271 63.7594C97.7194 63.5282 97.6934 63.2112 97.6245 62.9268C97.523 62.9735 97.4216 63.019 97.3215 63.067C97.2227 63.3684 97.1135 63.636 97.0381 63.7607C96.8677 64.0413 96.5986 65.1429 96.3307 65.53C95.8743 66.1899 94.1749 67.2849 94.1814 68.1904H94.1801Z" fill="#295D9F"/>
<path d="M94.0215 68.1043C94.0137 68.2083 94.0969 68.2446 94.1801 68.1914C94.1736 67.286 95.873 66.1909 96.3294 65.531C96.5973 65.1426 96.8664 64.0423 97.0367 63.7617C97.1134 63.637 97.2227 63.3694 97.315 63.085C96.3684 63.5045 95.5103 63.9007 95.0604 64.1086C95.0981 64.2567 95.1228 64.4061 95.1306 64.5463C95.1371 64.6788 95.128 64.7893 95.1059 64.8802C95.5688 64.8165 95.7235 65.2816 95.6936 65.4764C95.6377 65.8298 95.193 66.3117 94.9967 66.4832C94.8016 66.6533 94.0748 67.4185 94.0202 68.1056L94.0215 68.1043Z" fill="#3771BA"/>
<path d="M90.1936 65.5753C90.2092 65.8676 90.3639 66.2235 90.5408 66.369C90.7176 66.5145 90.8489 66.3963 90.8333 66.104C90.8177 65.8117 90.663 65.4571 90.4862 65.3103C90.3093 65.1648 90.1793 65.283 90.1936 65.5753Z" fill="#2C4769"/>
<path d="M93.859 63.0885C93.7277 63.1534 93.6522 63.3625 93.6678 63.6808C93.6964 64.2303 93.989 64.8993 94.3206 65.1734C94.4597 65.289 94.5845 65.3163 94.6794 65.2682C94.8107 65.2019 94.8862 64.9941 94.8706 64.6758C94.8419 64.1264 94.5494 63.4574 94.2178 63.1833C94.0774 63.0677 93.9539 63.0404 93.859 63.0872V63.0885Z" fill="#2C4769"/>
<path d="M94.8705 64.6761C94.8419 64.1266 94.5494 63.4589 94.2178 63.1835C94.0787 63.0679 93.9539 63.0407 93.859 63.0874L94.119 62.9588C94.2139 62.9108 94.3388 62.9393 94.4779 63.0549C94.8107 63.329 95.102 63.998 95.1306 64.5462C95.1475 64.8658 95.0721 65.0736 94.9395 65.1399L94.6794 65.2698C94.8107 65.2048 94.8874 64.9957 94.8705 64.6761Z" fill="#3C6393"/>
<path d="M90.8333 66.1061C90.8177 65.8138 90.663 65.4579 90.4862 65.3124C90.416 65.2539 90.3536 65.2383 90.3041 65.2578C91.7864 64.5499 93.9643 63.5106 93.9643 63.5106C94.0202 63.4821 94.0943 63.4977 94.1775 63.5665C94.3739 63.7276 94.5455 64.1225 94.5624 64.4472C94.5715 64.6447 94.5221 64.7694 94.4376 64.8006C94.3232 64.8746 90.8971 66.3698 90.7176 66.4269C90.7956 66.4009 90.8424 66.2866 90.8333 66.1061Z" fill="#3C6393"/>
<path d="M88.9948 60.1545C89.013 60.361 89.1352 60.6182 89.4226 60.6117C89.2184 60.4702 89.2249 60.1025 89.2145 59.9285C89.2028 59.7154 89.2522 59.3166 89.3667 59.0555C89.4824 58.7931 90.2768 58.3177 90.5213 58.1943C90.7657 58.0735 91.369 57.7916 91.5719 57.7916C91.7227 57.7916 91.8566 57.8436 91.9606 57.9981C91.9294 57.8085 91.8709 57.6864 91.7435 57.5902C91.6148 57.4928 91.4314 57.4383 91.187 57.5175C90.9425 57.5967 89.862 58.1215 89.5318 58.3956C89.2028 58.6697 89.0741 58.9035 89.0195 59.0607C88.9272 59.3231 88.9766 59.9454 88.9948 60.1532V60.1545Z" fill="#304E74"/>
<path d="M89.2145 59.9305C89.2249 60.1046 89.2185 60.4722 89.4707 60.6086C89.7737 60.5657 90.347 60.2007 90.6201 60.0149C90.9074 59.8201 91.5732 59.2524 91.7435 59.0446C91.9138 58.838 92.0048 58.4834 91.9814 58.1846C91.9749 58.1171 91.9684 58.056 91.9593 58.0015C91.8553 57.8469 91.7227 57.7949 91.5719 57.7949C91.369 57.7949 90.7657 58.0755 90.5213 58.1976C90.2768 58.321 89.4824 58.7965 89.3667 59.0589C89.251 59.32 89.2028 59.7175 89.2145 59.9318V59.9305Z" fill="#436EA3"/>
<path d="M97.8247 61.6741C97.9196 61.7754 98.099 61.778 98.1666 61.6741V60.3193C98.1666 60.088 98.0379 59.7217 97.6842 59.6568C97.4112 59.6074 91.9827 59.4035 91.3638 59.3788C91.1467 59.3671 91.0323 59.3203 90.9191 59.2463C90.7839 59.1605 90.6435 59.0202 90.6422 59.0189C90.5096 58.9995 90.3951 59.1034 90.4003 59.2606C90.4068 59.2671 90.5681 59.4268 90.7345 59.5334C90.9191 59.6516 91.0973 59.7061 91.3482 59.7191C93.7588 59.81 97.4151 59.9555 97.6231 59.9906C97.7883 60.0205 97.8247 60.2595 97.8247 60.3167V61.6715V61.6741Z" fill="#4F80BF"/>
<path d="M113.054 46.3428C113.102 46.4286 113.179 46.4961 113.303 46.5286C113.115 46.3026 113.132 45.9596 113.196 45.6466C113.251 45.3764 113.782 44.7814 114.093 44.5606C114.405 44.3411 115.278 43.7734 115.57 43.6994C115.689 43.6708 115.859 43.7072 115.966 43.8539C115.92 43.6357 115.806 43.563 115.65 43.5305C115.192 43.4331 114.234 44.1527 113.842 44.4203C113.451 44.6892 113.084 45.1984 113 45.4504C112.872 45.8349 112.97 46.1883 113.054 46.3415V46.3428Z" fill="#304E74"/>
<path d="M113.303 46.5283C113.399 46.5543 113.525 46.5582 113.689 46.5309C114.062 46.4712 114.703 46.1802 115.124 45.9152C115.698 45.5554 115.869 45.293 115.96 44.976C116.021 44.7656 116.003 44.3772 115.985 44.0239C115.982 43.9589 115.976 43.903 115.964 43.855C115.859 43.7082 115.687 43.6718 115.569 43.7004C115.276 43.7744 114.404 44.3421 114.092 44.5616C113.78 44.7812 113.248 45.3774 113.193 45.6476C113.13 45.9607 113.114 46.3036 113.301 46.5296L113.303 46.5283Z" fill="#436EA3"/>
<path d="M108.284 55.7204C108.353 55.8178 108.575 55.8204 108.624 55.6996C108.589 55.128 108.583 54.2239 108.665 54.0109C108.761 53.755 109.169 53.1042 109.489 52.7391C109.844 52.3326 114.929 46.2844 115.042 46.135C115.184 45.9479 115.518 45.5075 115.166 45.1243C114.98 45.0997 114.903 45.1841 114.914 45.3556C115.046 45.4998 114.963 45.6738 114.786 45.9076C114.644 46.0934 109.574 52.1247 109.232 52.5157C108.874 52.9249 108.454 53.603 108.346 53.8914C108.198 54.2811 108.284 55.7061 108.285 55.7217L108.284 55.7204Z" fill="#5387CA"/>
<path d="M99.3564 26.9565V94.7714L102.369 93.0268V25.2119L99.3564 26.9565Z" fill="#333333"/>
<path d="M102.369 93.0264C102.349 94.2682 101.915 95.1554 101.186 95.549L101.048 95.6283L98.1744 97.2936C98.9039 96.9 99.3382 96.0128 99.3577 94.7709L102.369 93.0264Z" fill="#3831EA"/>
<path d="M68.0741 0.569379C66.9299 -0.100911 65.8832 -0.159366 65.1343 0.293989C65.1343 0.274503 62.1229 2.03856 62.1229 2.03856C62.8719 1.70342 63.8392 1.80214 64.9054 2.41268L65.497 2.74782L66.9377 3.57529L95.2528 19.9182L98.2642 18.1931L68.0741 0.569379Z" fill="black"/>
<path d="M98.2642 18.1934L95.2528 19.9184C97.5217 21.2201 99.3577 24.3741 99.3577 26.9565L102.369 25.2119C102.369 22.649 100.515 19.495 98.2642 18.1934Z" fill="#333333"/>
<path d="M86.6219 13.1163C86.2214 13.3475 86.2214 13.7229 86.6219 13.9528L93.8265 18.1084C94.2269 18.3396 94.8784 18.3396 95.2775 18.1084C95.678 17.8772 95.678 17.5017 95.2775 17.2718L88.0729 13.1163C87.6725 12.8851 87.0224 12.8851 86.6219 13.1163ZM95.535 18.2578C94.9928 18.5708 94.1112 18.5708 93.569 18.2578L86.3644 14.1022C85.8235 13.7892 85.8222 13.2813 86.3644 12.9682C86.9066 12.6551 87.7895 12.6551 88.3304 12.9682L95.535 17.1237C96.0772 17.4368 96.0772 17.9447 95.535 18.2578Z" fill="#666666"/>
<path d="M87.1056 13.8431C86.891 13.7197 86.891 13.5197 87.1056 13.3963C87.3201 13.2729 87.6673 13.2729 87.8805 13.3963C88.095 13.5197 88.095 13.7197 87.8805 13.8431C87.6673 13.9665 87.3201 13.9665 87.1056 13.8431Z" fill="#1E1A81"/>
<path d="M87.1056 13.6285C87.3201 13.5051 87.6673 13.5051 87.8805 13.6285C87.9351 13.6596 87.9754 13.6973 88.0027 13.7363C88.0794 13.622 88.0404 13.4882 87.8805 13.3972C87.6673 13.2738 87.3201 13.2738 87.1056 13.3972C86.9456 13.4895 86.9066 13.6233 86.9833 13.7363C87.0093 13.6973 87.0509 13.6609 87.1056 13.6285Z" fill="#666666"/>
<path d="M100.625 40.7298C100.625 40.4739 100.805 40.1622 101.027 40.0349L101.58 39.7166C101.69 39.6529 101.79 39.6465 101.865 39.688L101.243 39.3295C101.17 39.2879 101.07 39.2931 100.958 39.3568L100.406 39.675C100.183 39.8023 100.004 40.1141 100.004 40.3713V45.6349C100.004 45.7622 100.049 45.8531 100.122 45.8947L100.744 46.2532C100.671 46.2117 100.625 46.1207 100.625 45.9921V40.7285V40.7298Z" fill="#666666"/>
<path d="M101.58 45.9062L101.027 46.2245C100.805 46.3518 100.625 46.2492 100.625 45.9933V40.7297C100.625 40.4738 100.805 40.162 101.027 40.0347L101.58 39.7165C101.802 39.5892 101.982 39.6931 101.982 39.949V45.2126C101.982 45.4685 101.802 45.7802 101.58 45.9075V45.9062Z" fill="black"/>
<path d="M98.6217 94.4125C98.6061 96.4831 97.0887 97.3093 95.2411 96.2467L64.9002 78.7464C63.0279 77.6487 61.5508 75.0884 61.5183 73.0126L61.5196 5.06127C61.5196 2.94258 63.0305 2.08913 64.8859 3.16081L94.8927 20.4623C97.2968 21.8484 98.623 24.4321 98.623 26.4469V94.4138L98.6217 94.4125ZM98.1653 22.9941C96.8534 20.7325 95.3698 19.9947 94.6534 19.5738C92.6693 18.4255 96.986 20.9157 64.8976 2.41778C62.6287 1.10188 60.7941 2.13849 60.7941 4.72093L60.7928 72.5332C60.8123 73.7985 61.2466 75.1858 61.976 76.403C62.7262 77.7215 63.7521 78.8269 64.8963 79.4959L95.2437 96.9988C97.4931 98.2926 99.3277 97.2755 99.3472 94.7541L99.3485 26.9418C99.3485 25.661 98.8948 24.2503 98.1653 22.9941Z" fill="#666666"/>
<path d="M64.9002 78.7476C63.0279 77.6499 61.5495 75.0896 61.5183 73.0137L61.5196 5.06247C61.5196 2.94378 63.0305 2.09033 64.8859 3.16202L94.8927 20.4635C97.2955 21.8496 98.623 24.4333 98.623 26.4481V94.415C98.6061 96.4856 97.0901 97.3118 95.2424 96.2492L64.9015 78.7489L64.9002 78.7476Z" fill="#3BE5EB"/>
<path d="M98.623 26.4502C98.623 26.4125 98.6191 26.3736 98.6178 26.3359C90.7514 21.7985 68.3757 10.2022 63.8665 7.60156L61.5183 10.0879V23.7782C62.3297 25.0291 63.5948 25.7643 64.4048 25.2317C64.3892 25.2421 64.3762 25.259 64.3606 25.2694L65.0263 24.8849C65.0575 24.8667 65.0835 24.8355 65.1134 24.8135C65.6816 26.9373 67.7321 28.5079 68.7567 27.5622C68.7008 27.6128 68.6475 27.6687 68.5825 27.7051L69.2482 27.3206C69.2807 27.3011 69.3054 27.2712 69.3353 27.2491C69.8749 29.2639 71.7771 30.824 72.855 30.0991C72.8381 30.1121 72.8238 30.1303 72.8056 30.1407L73.4713 29.7562C73.5038 29.738 73.5286 29.7068 73.5585 29.6848C74.1332 31.832 76.2213 33.4064 77.2303 32.4101C77.1679 32.4724 77.1029 32.5335 77.0288 32.5764L77.6945 32.1918C77.727 32.1737 77.7517 32.1425 77.7816 32.1204C78.3537 34.2599 80.4237 35.8265 81.4405 34.8574C81.3806 34.9146 81.3221 34.9717 81.2519 35.012L81.9176 34.6275C81.9501 34.6093 81.9749 34.5781 82.0048 34.5561C82.573 36.6799 84.6234 38.2491 85.648 37.3048C85.5921 37.3554 85.5388 37.4113 85.4738 37.4476L86.1395 37.0631C86.172 37.045 86.1967 37.0138 86.2266 36.9917C86.7727 39.0298 88.6997 40.5822 89.7645 39.8287C89.7411 39.8456 89.7216 39.869 89.6969 39.8846L90.3627 39.5001C90.3952 39.4819 90.4199 39.4507 90.4498 39.4286C90.8034 40.7484 91.9606 42.3488 93.3038 42.4553C93.7875 42.493 94.1606 42.1812 94.5858 41.937C94.9681 41.7162 95.2047 41.2434 95.2047 40.5718V36.9073L98.6204 33.2908V26.4515L98.623 26.4502Z" fill="#6D67FF"/>
<path d="M56.4123 19.3474C55.2733 18.6901 54.3501 17.0936 54.3501 15.779V12.2002L58.4745 14.5787V18.1575C58.4745 19.4708 57.5513 20.0034 56.4123 19.3474Z" fill="#F7000E"/>
<path d="M58.4745 14.5795V18.1583C58.4745 18.8156 58.2443 19.2767 57.8712 19.4924L58.5213 19.117C58.8944 18.9013 59.1246 18.4402 59.1246 17.7829V14.2041L58.4745 14.5795Z" fill="#900009"/>
<path d="M60.5353 21.7253C59.3963 21.068 58.4732 19.4715 58.4732 18.1569V14.5781L62.5975 16.9566V20.5354C62.5975 21.8487 61.6743 22.3813 60.5353 21.7253Z" fill="#FFD670"/>
<path d="M62.5975 16.9581V20.5369C62.5975 21.1942 62.3674 21.6553 61.9942 21.871L62.6443 21.4955C63.0175 21.2812 63.2476 20.8188 63.2476 20.1628V16.584L62.5975 16.9594V16.9581Z" fill="#FA9200"/>
<path d="M64.6597 24.1042C63.5207 23.4469 62.5975 21.8504 62.5975 20.5358V16.957L66.7205 19.3355V22.9143C66.7205 24.2289 65.7974 24.7602 64.6584 24.1042H64.6597Z" fill="#F7000E"/>
<path d="M66.7218 19.3357V22.9145C66.7218 23.5718 66.4917 24.0329 66.1185 24.2473L66.7686 23.8718C67.1418 23.6575 67.372 23.1951 67.372 22.5378V18.959L66.7218 19.3344V19.3357Z" fill="#900009"/>
<path d="M68.7827 26.4821C67.6437 25.8261 66.7205 24.2283 66.7205 22.9137V19.335L70.8436 21.7135V25.2922C70.8436 26.6068 69.9204 27.1381 68.7814 26.4821H68.7827Z" fill="#FFD670"/>
<path d="M70.8449 21.7149V25.2937C70.8449 25.951 70.6134 26.4122 70.2416 26.6278L70.8917 26.2524C71.2648 26.0367 71.495 25.5756 71.495 24.9196V21.3408L70.8449 21.7162V21.7149Z" fill="#FA9200"/>
<path d="M72.907 28.861C71.768 28.2037 70.8449 26.6059 70.8449 25.2926V21.7139L74.9692 24.0924V27.6711C74.9692 28.9857 74.046 29.517 72.907 28.861Z" fill="#F7000E"/>
<path d="M74.9679 24.0932V27.672C74.9679 28.328 74.7378 28.7904 74.3646 29.006L75.0147 28.6306C75.3879 28.4163 75.618 27.9538 75.618 27.2965V23.7178L74.9679 24.0932Z" fill="#900009"/>
<path d="M77.0301 31.2396C75.8911 30.5836 74.9679 28.9858 74.9679 27.6725V24.0938L79.0922 26.4722V30.051C79.0922 31.3656 78.1691 31.8969 77.0301 31.2409V31.2396Z" fill="#FFD670"/>
<path d="M79.0922 26.4718V30.0505C79.0922 30.7078 78.8621 31.169 78.4889 31.3846L79.139 31.0092C79.5122 30.7949 79.7424 30.3324 79.7424 29.6764V26.0977L79.0922 26.4731V26.4718Z" fill="#FA9200"/>
<path fill-rule="evenodd" clip-rule="evenodd" d="M74.9692 24.0932L79.0922 26.4717L79.7424 26.0963L75.6193 23.7178L74.9692 24.0932Z" fill="url(#paint0_linear_252_23782)"/>
<path d="M61.5118 4.61914L54.3501 12.2002L58.4745 14.5787L65.6348 6.99763L61.5118 4.61914Z" fill="#FF4A54"/>
<path d="M65.6348 6.99805L58.4745 14.5791L62.5975 16.9576L69.7592 9.37654L65.6348 6.99805Z" fill="#FFE5A3"/>
<path d="M69.7592 9.37695L62.5975 16.958L66.7218 19.3365L73.8822 11.7554L69.7592 9.37695Z" fill="#FF4A54"/>
<path d="M73.8822 11.7549L66.7218 19.3359L70.8449 21.7144L78.0052 14.1334L73.8822 11.7549Z" fill="#FFE5A3"/>
<path d="M78.0066 14.1338L70.8449 21.7148L74.9692 24.0933L82.1296 16.5123L78.0066 14.1338Z" fill="#FF4A54"/>
<path d="M82.1296 16.5117L74.9679 24.0927L79.0922 26.4712L86.2526 18.8902L82.1296 16.5117Z" fill="#FFE5A3"/>
<path d="M81.1531 33.6175C80.0141 32.9602 79.0909 31.3638 79.0909 30.0505V26.4717L83.2153 28.8502V32.4289C83.2153 33.7435 82.2921 34.2748 81.1531 33.6188V33.6175Z" fill="#F7000E"/>
<path d="M83.2153 28.85V32.4288C83.2153 33.0861 82.9851 33.5472 82.612 33.7629L83.2621 33.3875C83.6353 33.1731 83.8654 32.7107 83.8654 32.0534V28.4746L83.2153 28.85Z" fill="#900009"/>
<path d="M85.2774 35.9968C84.1384 35.3395 83.2153 33.7417 83.2153 32.4284V28.8496L87.3396 31.2281V34.8069C87.3396 36.1202 86.4164 36.6528 85.2774 35.9968Z" fill="#FFD670"/>
<path d="M87.3396 31.2289V34.8077C87.3396 35.465 87.1082 35.9262 86.735 36.1418L87.3851 35.7664C87.7583 35.5507 87.9897 35.0896 87.9897 34.4323V30.8535L87.3396 31.2289Z" fill="#FA9200"/>
<path d="M86.2526 18.8906L79.0922 26.4717L83.2153 28.8501L90.3769 21.2678L86.2526 18.8906Z" fill="#FF4A54"/>
<path d="M90.3769 21.2676L83.2153 28.8499L87.3396 31.2284L94.5 23.6461L90.3769 21.2676Z" fill="#FFE5A3"/>
<path d="M89.4005 38.3747C88.2615 37.7187 87.3383 36.1209 87.3383 34.8063V31.2275L91.4614 33.606V37.1848C91.4614 38.4994 90.5382 39.0307 89.3992 38.3747H89.4005Z" fill="#F7000E"/>
<path d="M91.4626 33.6059V37.1847C91.4626 37.842 91.2325 38.3031 90.8593 38.5187L91.5095 38.1433C91.8826 37.929 92.1128 37.4665 92.1128 36.8092V33.2305L91.4626 33.6059Z" fill="#900009"/>
<path d="M94.5 23.6465L87.3383 31.2288L91.4627 33.6073L98.623 26.025L94.5 23.6465Z" fill="#FF4A54"/>
<path d="M92.1128 33.2313L98.623 26.3375V26.0244L91.4626 33.6067L92.1128 33.2313Z" fill="#900009"/>
<path d="M73.8822 8.33398V11.7543L78.0065 14.1328V10.7112L73.8822 8.33398Z" fill="#FFD670"/>
<path d="M69.7592 5.95508V9.37537L73.8822 11.7539V8.33357L69.7592 5.95508Z" fill="#F7000E"/>
<path d="M65.6348 3.57715V6.99615L69.7592 9.37464V5.95434L65.6348 3.57715Z" fill="#FFD670"/>
<path d="M64.8859 3.14539C63.1553 2.14775 61.7263 2.82194 61.5417 4.63406L65.6361 6.99566V3.57667L64.8859 3.14409V3.14539Z" fill="#F7000E"/>
<path d="M78.0065 10.7109V14.1325L82.1296 16.511V13.0881L78.0065 10.7109Z" fill="#F7000E"/>
<path d="M82.1296 13.0879V16.5108L86.2526 18.8893V15.4664L82.1296 13.0879Z" fill="#FFD670"/>
<path d="M94.8914 20.4467L94.5 20.2207V23.6462L98.6022 26.0117C98.4345 24.071 97.1317 21.7379 94.8914 20.4467Z" fill="#F7000E"/>
<path d="M90.377 17.8438V21.2679L94.5 23.6464V20.2209L90.377 17.8438Z" fill="#FFD670"/>
<path d="M86.2526 15.4668V18.8897L90.3757 21.2682V17.844L86.2526 15.4668Z" fill="#F7000E"/>
<path d="M64.7702 46.2832C64.7676 46.317 64.7637 46.3495 64.7611 46.3832C64.7338 46.6482 64.7039 46.9158 64.6103 47.1665C64.4438 47.6082 64.0863 47.9485 63.7365 48.2681C63.1813 48.7734 62.5923 49.2787 61.8746 49.4996C61.7094 49.5502 61.53 49.5853 61.3649 49.5424C61.2011 49.4892 61.097 49.4021 61.006 49.306C60.8786 49.1683 60.7733 48.9968 60.7369 48.815C61.3168 48.5617 61.9123 48.4058 62.5039 48.2096C63.0565 48.0291 63.5376 47.7394 63.951 47.3276C64.2618 47.0171 64.5335 46.6599 64.7689 46.2845L64.7702 46.2832Z" fill="#FF9247"/>
<path d="M65.0107 46.9051C64.9951 47.1324 64.9561 47.3597 64.8963 47.5832C64.8313 47.8378 64.7403 48.0846 64.6337 48.3223C64.5205 48.573 64.3372 48.7796 64.1877 49.0095C64.033 49.2472 63.8912 49.4927 63.7625 49.746C63.5428 50.1786 63.3607 50.6294 63.0708 51.0256C62.8679 51.3022 62.5702 51.3776 62.2815 51.5646C62.3362 51.1658 62.3023 50.7567 62.1814 50.3734C61.937 50.3877 61.6925 50.3916 61.4481 50.3864C61.4 50.1059 61.3714 49.824 61.3636 49.5408C61.5287 49.5837 61.7081 49.5499 61.8733 49.4992C62.591 49.2784 63.18 48.7718 63.7352 48.2678C64.085 47.9482 64.4425 47.6092 64.609 47.1662C64.7026 46.9168 64.7325 46.6479 64.7598 46.3842C64.7637 46.3504 64.7663 46.3179 64.7689 46.2842C64.8274 46.1893 64.8846 46.0958 64.9379 46.001C64.9457 46.0542 64.9574 46.1062 64.9665 46.1582C65.0133 46.405 65.025 46.6557 65.0094 46.9064L65.0107 46.9051Z" fill="#F7056F"/>
<path d="M57.0377 54.1452C57.0169 54.8622 57.2054 55.565 57.3498 56.2677C57.4681 56.8458 57.5513 57.4252 57.4772 57.985L54.956 55.739C54.9742 54.2906 55.285 52.8462 55.8519 51.5121C56.1379 50.8353 56.4903 50.1871 56.9038 49.5791C57.2717 49.0375 57.6475 48.4737 58.1767 48.0801C58.1806 48.1126 58.1858 48.145 58.1923 48.1801C57.8048 48.5867 57.6046 49.1713 57.5305 49.7389C57.4382 50.4469 57.5019 51.1665 57.4161 51.8758C57.3901 52.0927 57.3485 52.3084 57.3043 52.5214C57.1924 53.0605 57.0533 53.5957 57.0364 54.1452H57.0377Z" fill="#F7056F"/>
<path d="M68.208 55.2085C68.208 55.2384 68.2067 55.2657 68.2067 55.2956C68.1898 55.871 68.0325 56.4322 67.8972 56.9921C67.5956 58.2313 67.4669 59.4966 67.199 60.7397C67.03 61.5152 66.7959 62.2765 66.4995 63.013C66.4345 63.1741 66.3695 63.3443 66.2993 63.5105C66.2108 63.721 66.1133 63.9301 65.9976 64.1159C65.826 64.39 65.5516 64.6212 65.3098 64.8342C64.4867 65.5578 63.4986 66.0943 62.4428 66.3904C62.4272 66.3891 63.9016 65.5954 63.9016 65.5954V63.7054L63.6 63.5651V63.4378L62.3648 62.3375C62.5117 62.1037 62.6261 61.8465 62.7067 61.5841C62.9018 60.958 62.9421 60.2981 63.0201 59.6486C63.1605 58.4743 63.4257 57.3142 63.8106 56.1958C64.0408 55.5268 64.3177 54.8643 64.7468 54.3031C65.1928 53.7186 65.9547 53.1886 66.6841 53.2055C66.8831 53.2094 67.082 53.2561 67.2705 53.3536C67.4214 53.4302 67.5657 53.5406 67.7009 53.6913C68.0676 54.0979 68.2106 54.663 68.2093 55.2111L68.208 55.2085Z" fill="#F7056F"/>
<path d="M60.629 58.5415C60.0269 58.5441 59.7682 58.0699 59.6785 57.5295C59.542 56.6969 59.6057 55.833 59.8605 55.0289C60.6081 55.6356 61.5079 55.8252 62.461 55.6875C62.3479 56.7527 62.4051 57.8348 62.6287 58.8818C61.9799 58.7545 61.2882 58.5376 60.6277 58.5402L60.629 58.5415ZM67.3746 51.2202C66.9663 50.5487 66.4319 49.9628 65.9443 49.3458C65.5191 48.8067 65.1226 48.2273 64.8963 47.583C64.8313 47.8363 64.7403 48.0844 64.6337 48.3221C64.5205 48.5716 64.3372 48.7794 64.1877 49.0093C64.033 49.247 63.8899 49.4926 63.7625 49.7459C63.5428 50.1797 63.3594 50.6305 63.0708 51.0254C62.8693 51.3021 62.5702 51.3787 62.2815 51.5645C62.3349 51.167 62.3011 50.7565 62.1814 50.3733C61.937 50.3876 61.6925 50.3915 61.4481 50.385C61.1985 51.3891 60.6199 52.401 59.9008 53.1454C60.3494 51.7658 60.5873 50.32 60.6056 48.869C60.3598 48.9781 60.1102 49.086 59.8423 49.1249C59.4119 49.1873 58.6149 49.1003 58.3613 48.6859C58.2768 48.5456 58.2222 48.352 58.1936 48.178C57.8061 48.5845 57.6059 49.1691 57.5318 49.7368C57.4395 50.4447 57.5032 51.1644 57.4174 51.8736C57.3914 52.0906 57.3498 52.3049 57.3056 52.5193C57.4005 52.7868 57.5357 53.0415 57.706 53.2701C57.7866 53.3779 58.3119 53.8715 58.2924 53.9988C58.1663 54.7925 58.0519 55.5875 57.9531 56.3838C57.7463 56.3812 57.5422 56.3396 57.3498 56.2656C57.4681 56.8437 57.5513 57.4243 57.4772 57.9829L62.3622 62.3346C62.5091 62.1008 62.6222 61.8436 62.7041 61.5812C62.8992 60.955 62.9395 60.2951 63.0175 59.6456C63.1579 58.4713 63.4231 57.3113 63.808 56.1929C64.0369 55.5239 64.3138 54.8614 64.7442 54.3002C65.1902 53.7156 65.9521 53.1856 66.6815 53.2025C66.6815 52.7778 66.5359 52.3491 66.3123 51.9802C66.0132 51.4852 65.5867 51.0838 65.159 50.6954C65.0068 50.559 64.8534 50.42 64.7468 50.246C64.6545 50.0927 64.5322 49.7173 64.6428 49.5445C64.7793 49.3289 65.159 49.4133 65.3202 49.5445C65.5347 49.7186 65.6387 49.9901 65.774 50.2317C66.0535 50.7305 66.4917 51.1228 66.7986 51.606C67.1262 52.1231 67.2887 52.7401 67.2692 53.3519C67.4201 53.4286 67.5644 53.539 67.6996 53.6897C68.0663 54.0963 68.2093 54.6613 68.208 55.2095C68.3887 53.8378 68.0949 52.4049 67.3746 51.2228V51.2202Z" fill="#1A2BBC"/>
<path d="M67.2692 53.3512C67.082 53.2538 66.8831 53.2083 66.6841 53.2045C66.6841 52.7784 66.5385 52.3497 66.3149 51.9821C66.0158 51.4872 65.5893 51.0845 65.1603 50.6961C65.0081 50.5597 64.8547 50.4207 64.7481 50.2466C64.6545 50.0933 64.5335 49.7179 64.6428 49.5451C64.7806 49.3295 65.159 49.4139 65.3202 49.5438C65.5347 49.7179 65.6387 49.9894 65.774 50.231C66.0535 50.7298 66.4917 51.1221 66.7985 51.6054C67.1262 52.1224 67.2887 52.7394 67.2692 53.3512Z" fill="#F7056F"/>
<path d="M58.2924 54.0001C58.165 54.7938 58.0519 55.5888 57.9531 56.3851C57.7463 56.3825 57.5409 56.3409 57.3498 56.2669C57.2067 55.5641 57.0169 54.8613 57.0377 54.1443C57.0533 53.5961 57.1937 53.0609 57.3056 52.5205C57.4005 52.7881 57.5357 53.0427 57.706 53.2713C57.7866 53.3792 58.3119 53.8715 58.2924 54.0001Z" fill="#142193"/>
<path d="M61.4481 50.3856C61.1985 51.3897 60.6198 52.4017 59.9008 53.146C60.3494 51.7664 60.5873 50.3207 60.6055 48.8697C60.6498 48.8502 60.6927 48.8307 60.7369 48.8125C60.772 48.9931 60.8773 49.1658 61.0047 49.3022C61.0944 49.3984 61.1998 49.4854 61.3246 49.5283C61.3701 49.8231 61.3987 50.105 61.4468 50.3856H61.4481Z" fill="white"/>
<path d="M62.63 58.8835C61.9812 58.7562 61.2895 58.5392 60.629 58.5418C60.0269 58.5444 59.7682 58.0703 59.6785 57.5299C59.542 56.6972 59.6057 55.8334 59.8605 55.0293C60.6082 55.6359 61.5079 55.8256 62.461 55.6879C62.3479 56.7518 62.4051 57.8352 62.6287 58.8822L62.63 58.8835Z" fill="#142193"/>
<path d="M66.5268 64.6113C66.0795 65.1569 65.4892 65.5791 64.8378 65.8441C64.1383 66.1286 63.2242 66.5066 62.4415 66.3897C63.4973 66.0935 64.4854 65.5583 65.3085 64.8335C65.549 64.6204 65.8234 64.3892 65.9963 64.1151C66.1133 63.9293 66.2108 63.7215 66.298 63.5098C66.4436 63.8527 66.5125 64.2398 66.5268 64.6113Z" fill="#071371"/>
<path d="M69.7696 94.9855C69.6213 95.0309 69.4718 95.0725 69.321 95.1076C68.9985 95.1855 68.6709 95.2414 68.3406 95.2751C67.7802 95.3349 67.212 95.3323 66.6516 95.2673C66.5632 95.2569 66.4735 95.2453 66.3864 95.2323C66.0366 95.179 65.679 95.0972 65.3917 94.8906C65.3644 94.8711 65.3371 94.8517 65.3137 94.8296C65.0835 94.6347 64.9899 94.3983 65.0549 94.0865C65.6101 91.4119 65.5685 88.619 64.9509 85.9586C64.7936 85.2779 64.6194 84.5739 64.3567 83.9244C64.1422 83.3957 63.8483 82.9644 63.691 82.3954C63.3451 81.138 63.2801 79.8273 63.1488 78.5361C62.9538 76.6395 62.591 74.73 61.8226 72.9945C61.6691 72.649 61.5001 72.3099 61.3116 71.9787C60.8357 71.1395 60.2441 70.3575 59.8839 69.4625C59.6889 68.9753 59.5706 68.435 59.5849 67.9128L62.4012 66.3994C63.2255 66.5059 64.1396 66.1279 64.8391 65.8421C65.4905 65.5758 66.0808 65.155 66.5281 64.6094C67.0495 65.7694 66.74 67.0697 66.7114 68.3414C66.649 71.0382 67.5696 73.6479 68.0325 76.3057C68.2548 77.5787 68.3731 78.8686 68.3848 80.1624C68.3913 80.7314 68.3822 81.1848 68.5448 81.7238C68.7151 82.2876 68.8412 82.8826 68.9543 83.4593C69.3288 85.3611 69.1689 87.3187 69.0974 89.2555C69.0245 91.1923 69.0531 93.185 69.7696 94.9855Z" fill="#1A2BBC"/>
<path d="M62.1788 88.3592C62.2308 89.0503 62.3843 89.8193 61.9773 90.3818C61.9604 90.4039 61.9435 90.4272 61.9253 90.448C61.4754 90.9858 60.6498 91.0378 59.9385 90.9702C59.2325 90.9014 58.5447 90.7689 57.8751 90.5753C57.8191 90.5597 57.7632 90.5415 57.7073 90.5234C57.498 90.4558 57.2926 90.3675 57.1313 90.222C57.0507 90.1492 56.9935 90.0739 56.9558 89.996C56.7192 89.5179 57.2093 88.9633 57.4109 88.4995C57.6969 87.8344 57.9141 87.1394 58.0571 86.4302C58.3327 85.0701 58.3392 83.6555 58.0584 82.2954C57.7567 80.8379 57.1456 79.4662 56.6905 78.0477C55.8558 75.4418 55.5593 72.6659 55.8181 69.9431L59.5862 67.918C59.5719 68.4402 59.6902 68.9793 59.8852 69.4664C60.2454 70.3614 60.8357 71.1434 61.3129 71.9839C61.5001 72.3138 61.6704 72.6542 61.8239 72.9997C61.3532 74.3676 61.5222 75.9381 61.8642 77.3735C62.2724 79.0882 62.9057 80.7808 62.8875 82.5422C62.8679 84.5024 62.0371 86.4094 62.1827 88.3618L62.1788 88.3592Z" fill="#142193"/>
<path d="M61.7562 91.2626C61.6561 91.4367 61.5222 91.5939 61.3701 91.7199C60.9306 92.0797 60.3663 92.2408 59.8332 92.4421C58.269 93.0345 56.8778 94.0347 55.2902 94.5634C54.7961 94.7284 54.2721 94.8466 53.7533 94.783C53.2358 94.7193 52.7222 94.4452 52.4765 93.9867C52.167 93.3631 52.3686 92.6162 52.7924 92.1109C53.2254 91.5952 53.8469 91.2782 54.4606 90.9989C55.2759 90.6261 56.108 90.291 56.9545 89.9961C56.9922 90.074 57.0494 90.1494 57.13 90.2221C57.2926 90.3689 57.4967 90.4572 57.706 90.5235C57.9401 90.9665 58.0662 91.4653 58.0662 91.9654C58.7215 91.6965 59.3482 91.3627 59.9372 90.9704C60.6484 91.0392 61.4741 90.9872 61.924 90.4482C61.9734 90.7222 61.9006 91.0106 61.7549 91.2639L61.7562 91.2626Z" fill="#071371"/>
<path d="M61.8473 92.1197C61.7615 92.4419 61.5339 92.725 61.2375 92.877C60.6641 93.1745 59.958 92.9745 59.3274 93.116C58.8398 93.2265 58.4251 93.5317 58.0103 93.8084C57.4733 94.1657 56.9103 94.4839 56.3278 94.7619C55.7323 95.0438 55.1056 95.2854 54.4476 95.3322C53.9588 95.3659 53.4491 95.2828 53.0174 95.0451C52.5844 94.8074 52.3894 94.4203 52.4583 93.9474C52.7235 94.4423 53.2371 94.7164 53.7546 94.7801C54.2721 94.845 54.7961 94.7268 55.2902 94.5605C56.8778 94.0319 58.269 93.0316 59.8332 92.4393C60.365 92.2379 60.9293 92.0768 61.3688 91.717C61.5222 91.5923 61.6561 91.4351 61.7563 91.2598C61.8889 91.5209 61.9227 91.8326 61.8473 92.1171V92.1197Z" fill="#142193"/>
<path d="M59.9385 90.9693C59.3495 91.3616 58.7228 91.6955 58.0675 91.9644C58.0675 91.4642 57.9414 90.9641 57.706 90.5225C57.7619 90.5406 57.8192 90.5575 57.8751 90.5731C58.5447 90.7667 59.2325 90.8992 59.9255 90.9667C59.9294 90.9667 59.9333 90.968 59.9372 90.968L59.9385 90.9693Z" fill="#FF9247"/>
<path d="M68.3406 95.2747C68.2418 95.4345 68.1495 95.5943 68.0611 95.7579C68.0052 95.8606 67.7867 96.4672 67.6879 96.4737C67.6606 96.4763 67.6398 96.4529 67.6216 96.4334C67.2978 96.0437 66.9741 95.6553 66.6516 95.2656C67.212 95.3319 67.7789 95.3332 68.3406 95.2734V95.2747Z" fill="#FF9247"/>
<path d="M69.321 95.1071C69.3197 95.3006 69.2898 95.4955 69.2404 95.6851C69.2287 95.728 69.217 95.7709 69.204 95.8125C69.0909 96.1827 68.9114 96.5282 68.7333 96.8698C68.4238 97.4648 68.1157 98.0584 67.8075 98.6534C67.45 99.3419 67.1093 99.8913 66.4111 100.272C65.8117 100.598 65.1121 100.747 64.4321 100.673C64.0915 100.637 63.7521 100.545 63.4635 100.359C63.154 100.158 62.9707 99.8875 62.8796 99.5848C62.6924 98.9535 62.9174 98.1844 63.2593 97.6207C63.8587 96.6321 64.5816 95.7267 65.3111 94.8291C65.3358 94.8499 65.3618 94.8707 65.3904 94.8902C65.6777 95.0954 66.0353 95.1772 66.3851 95.2305C66.4735 95.2435 66.5619 95.2552 66.6503 95.2656C66.9741 95.6553 67.2978 96.0437 67.6203 96.4321C67.6372 96.4529 67.6593 96.4749 67.6866 96.4736C67.7854 96.4659 68.0039 95.8592 68.0598 95.7566C68.1482 95.5929 68.2405 95.4318 68.3393 95.2734C68.6696 95.2396 68.9972 95.1837 69.3197 95.1058L69.321 95.1071Z" fill="#071371"/>
<path d="M69.1468 96.7345C68.9725 97.1684 68.6813 97.5451 68.4459 97.9478C68.1781 98.4076 67.9792 98.9038 67.7269 99.3728C67.4747 99.8417 67.1587 100.292 66.7166 100.589C66.1003 101.002 65.3176 101.068 64.5752 101.043C64.2605 101.033 63.9406 101.008 63.6442 100.904C63.3477 100.8 63.0695 100.607 62.92 100.331C62.7977 100.104 62.7756 99.8157 62.8823 99.5845C62.972 99.8872 63.1553 100.157 63.4661 100.359C63.7534 100.544 64.0941 100.637 64.4347 100.673C65.1161 100.747 65.8156 100.598 66.415 100.272C67.1132 99.8898 67.4526 99.3416 67.8114 98.6531C68.1209 98.0595 68.4277 97.4645 68.7372 96.8696C68.9153 96.5266 69.0935 96.1824 69.2079 95.8122C69.2209 95.7693 69.2326 95.7278 69.243 95.6836C69.3379 96.02 69.282 96.4019 69.1494 96.7332L69.1468 96.7345Z" fill="#142193"/>
<path d="M67.9467 43.0498C67.9011 43.4434 67.8062 43.8319 67.6658 44.2008C67.5462 44.5151 67.4292 44.8646 67.2406 45.1413C66.3292 46.4727 65.2838 46.8326 65.012 46.9053C65.0289 46.6546 65.0159 46.4039 64.9704 46.1571C64.96 46.1064 64.9483 46.0532 64.9405 46.0012C64.9535 45.9791 64.9652 45.9583 64.9782 45.9376C65.5087 46.0207 66.0431 45.7726 66.4514 45.4244C66.6217 45.279 66.7816 45.1088 66.8506 44.8957C66.9195 44.6827 66.8766 44.4216 66.6984 44.2865C66.5229 44.1527 66.2746 44.1761 66.06 44.2294C65.1954 44.4476 64.5036 45.0893 63.6377 45.2815C63.0851 45.4037 62.4844 45.279 62.0202 44.9581C62.8953 44.6191 63.6832 44.0501 64.2722 43.3213C65.1707 43.2733 66.0639 43.1083 66.9182 42.8212C67.2978 42.6939 67.6944 42.5212 67.9701 42.2432C67.987 42.5134 67.9792 42.7836 67.9493 43.0511L67.9467 43.0498Z" fill="#9A390E"/>
<path d="M66.8467 44.8942C66.779 45.1072 66.6191 45.2787 66.4501 45.4255C66.0808 45.7347 65.6179 45.9685 65.1446 45.9542C65.0939 45.9516 65.0406 45.9464 64.9899 45.9373C64.7702 46.2491 63.4088 47.9222 62.7587 47.9053C62.5507 47.9001 62.3648 47.6273 62.2438 47.4416C62.1229 47.2558 62.0553 46.8349 62.1424 46.7128C62.4064 46.353 63.3035 45.671 63.7859 45.241C64.5817 45.015 65.2435 44.4343 66.0561 44.2291C66.2733 44.1758 66.5203 44.1538 66.6945 44.2876C66.874 44.4226 66.9169 44.6838 66.8467 44.8942Z" fill="#FFAF75"/>
<path d="M64.9613 45.9596C64.8859 46.0947 64.8287 46.1896 64.7702 46.2831C64.5335 46.6598 64.2605 47.0157 63.951 47.3262C63.5376 47.7393 63.0565 48.029 62.5026 48.2095C61.9123 48.4031 61.3155 48.5603 60.7421 48.811C60.694 48.8331 60.6498 48.8538 60.6068 48.8733C60.3598 48.9824 60.1089 49.0903 59.8449 49.1292C59.4119 49.1916 58.6162 49.1045 58.3626 48.6889C58.2781 48.5512 58.2248 48.3576 58.1936 48.1835C58.1884 48.1498 58.1819 48.116 58.1767 48.0822C58.1494 47.8497 58.2131 47.6328 58.1767 47.4106C58.1494 47.2651 58.1156 47.0846 58.23 46.9859C58.1455 46.9547 58.1195 46.8482 58.1234 46.7585C58.1234 46.6715 58.1403 46.5754 58.0974 46.4974C58.0441 46.3987 57.9232 46.3688 57.8269 46.3065C57.641 46.1909 57.5539 45.9376 57.6267 45.7336C57.6436 45.6855 57.667 45.6414 57.6631 45.5933C57.6605 45.5647 57.6488 45.5401 57.641 45.5167C57.5422 45.2725 57.472 45.0166 57.433 44.7581C57.4161 44.6658 57.4135 44.6256 57.407 44.584C57.6436 44.7165 57.8829 44.8373 58.1273 44.9321C59.0557 45.2971 60.0907 45.4102 61.0749 45.227C61.3961 45.1685 61.7107 45.0789 62.0176 44.9607C62.4142 45.2361 62.9096 45.3686 63.3906 45.3231C63.4713 45.3153 63.5532 45.301 63.6325 45.2842C63.6832 45.2725 63.7339 45.2582 63.7846 45.2439C63.3035 45.6739 62.4064 46.3571 62.1411 46.717C62.054 46.8378 62.1216 47.2587 62.2425 47.4444C62.3635 47.6302 62.5494 47.903 62.7574 47.9082C63.4075 47.925 64.7689 46.2519 64.96 45.9622L64.9613 45.9596Z" fill="#FFAF75"/>
<path d="M68.2132 41.8884C68.1521 42.0222 68.0689 42.1391 67.9675 42.2418C67.6931 42.5197 67.2965 42.6925 66.9156 42.8198C66.0613 43.1069 65.1707 43.2719 64.2709 43.3199C62.1788 43.433 60.0477 42.9082 58.2703 41.7949C58.0415 41.652 57.576 41.413 57.3628 41.122C57.2848 41.0168 57.2405 40.9038 57.2522 40.7856C57.2718 40.605 57.4083 40.4634 57.5227 40.3205C57.6319 40.1815 57.7242 40.0321 57.8048 39.875C58.0662 39.367 58.217 38.7916 58.5239 38.3032C59.5134 36.7352 61.5716 35.7857 63.3919 35.8285C64.5205 35.8558 65.653 36.278 66.4501 37.0756C67.3056 37.9316 67.7152 39.1241 68.0962 40.2712C68.2704 40.7973 68.4433 41.3831 68.2145 41.8871L68.2132 41.8884Z" fill="#F7056F"/>
<path d="M64.2709 43.3197C63.6806 44.0484 62.894 44.6174 62.0189 44.9564C61.7146 45.0746 61.3987 45.1643 61.0762 45.224C60.092 45.4046 59.0583 45.2954 58.1286 44.9278C57.8842 44.8317 57.6462 44.7109 57.4096 44.5784C56.8544 44.2666 56.3135 43.8873 55.7778 43.5847C55.4865 43.4197 55.1602 43.2001 55.1446 42.8663C55.1251 42.4675 55.5463 42.2168 55.874 41.9882C56.242 41.731 56.5527 41.3932 56.7868 41.01C56.9454 40.7502 57.0702 40.467 57.2679 40.2332C57.4083 40.0669 57.5968 39.9292 57.8035 39.876C57.7229 40.0319 57.6319 40.1812 57.5214 40.3215C57.4083 40.4644 57.2705 40.6047 57.2509 40.7866C57.2392 40.9035 57.2835 41.0165 57.3615 41.123C57.5747 41.414 58.0402 41.653 58.2703 41.7959C60.0477 42.9092 62.1775 43.434 64.2696 43.3197H64.2709Z" fill="#1A2BBC"/>
<path d="M64.0616 36.5473C64.0265 36.6694 63.8197 36.7162 63.5987 36.6538C63.3776 36.5902 63.2268 36.4408 63.2619 36.3187C63.297 36.1965 63.5038 36.1498 63.7248 36.2121C63.9458 36.2758 64.0967 36.4252 64.0616 36.5473Z" fill="#1A2BBC"/>
<path d="M63.9016 63.7057L63.5987 63.8668V63.5654L63.9016 63.7057Z" fill="#D8925B"/>
<path d="M41.9238 65.6373L36.5331 62.3417L37.5719 61.7637L41.9238 65.6373Z" fill="#D8925B"/>
<path d="M55.0653 68.4541L50.5678 70.8716L49.8422 70.4286L55.0653 68.4541Z" fill="#D8925B"/>
<path d="M63.9016 63.7061V65.5961L50.5678 72.7641V70.874L55.0653 68.4565C55.0692 68.4552 63.3334 65.3324 63.3334 65.3324L63.6 65.2311V63.8684L63.9016 63.7061Z" fill="#A55513"/>
<path d="M50.5678 70.8726V72.7627L36.7684 64.3256V62.4355L42.1605 65.7311L48.1532 71.0662L49.8422 70.4284L50.5678 70.8726Z" fill="#BF6E2D"/>
<path d="M63.5987 63.4362L63.4479 63.4933L62.1853 63.9701L48.1532 69.2739L38.6173 60.7862L37.1923 59.5183L52.769 53.7871L63.5987 63.4362Z" fill="#FAAF75"/>
<path d="M48.1532 69.2741V71.0668L42.1592 65.7317L37.8073 61.8581L37.1923 61.3099V59.5186L38.6173 60.7864L48.1532 69.2741Z" fill="#C87939"/>
<path d="M63.5987 63.4368V65.2295L63.3334 65.3295L55.0679 68.4523C55.064 68.4536 49.8422 70.4281 49.8422 70.4281L48.1532 71.0659V69.2733L62.1853 63.9694L63.4466 63.4927L63.5987 63.4355V63.4368Z" fill="#AF6325"/>
<path d="M47.0649 57.0293C46.6216 57.0293 46.2289 57.0904 45.8973 57.2086C45.4448 57.3709 45.1224 57.6346 44.9391 57.9919C44.3682 59.1012 45.2693 60.8926 47.2353 62.5527C49.1648 64.1817 51.6847 65.3313 53.6571 65.4833C53.7988 65.495 53.938 65.5002 54.0719 65.5002C54.5153 65.5002 54.9079 65.4391 55.2395 65.3209C55.692 65.1585 56.0144 64.8948 56.1978 64.5376C56.7686 63.4269 55.8675 61.6369 53.9015 59.9768C51.9733 58.3478 49.4522 57.1982 47.481 57.0475C47.3393 57.0358 47.2002 57.0306 47.0662 57.0306L47.0649 57.0293ZM47.0649 57.1982C47.195 57.1982 47.3302 57.2034 47.4667 57.2151C49.3351 57.3579 51.8433 58.4608 53.791 60.1054C55.7375 61.7499 56.5605 63.4581 56.0456 64.4596C55.887 64.7688 55.601 65.0091 55.181 65.1611C54.8611 65.2754 54.4867 65.33 54.0706 65.33C53.9406 65.33 53.8053 65.3248 53.6688 65.3144C51.7991 65.1715 49.2922 64.0686 47.3445 62.4241C45.3967 60.7795 44.575 59.07 45.0899 58.0698C45.2485 57.7606 45.5346 57.5203 45.9545 57.3683C46.2744 57.2527 46.6502 57.1982 47.0649 57.1982Z" fill="#7E3700"/>
<path d="M56.0456 64.4604L47.4654 57.2158C49.3351 57.3587 51.8433 58.4616 53.7897 60.1061C55.7375 61.7507 56.5592 63.4602 56.0443 64.4604H56.0456Z" fill="#0DC02C"/>
<path d="M53.6688 65.3149C51.7991 65.172 49.2922 64.0691 47.3445 62.4246C45.3967 60.78 44.575 59.0706 45.0899 58.0703L53.6688 65.3149Z" fill="#D6000B"/>
<path d="M55.181 65.16C54.761 65.3107 54.2448 65.3575 53.6688 65.3133L45.0899 58.0687C45.2485 57.7595 45.5346 57.5192 45.9545 57.3685C46.3745 57.2179 46.8907 57.1698 47.4667 57.214L56.0469 64.4585C55.8883 64.7677 55.6023 65.008 55.1823 65.16H55.181Z" fill="#FAAF75"/>
<path d="M48.3184 59.1006C48.4978 59.0357 48.49 58.9227 48.3197 58.7785L48.0713 58.5693L47.5291 58.7642L47.7775 58.9733C47.9478 59.1162 48.1337 59.1669 48.3184 59.0993V59.1006ZM48.5433 59.2799C48.2078 59.4007 47.8412 59.3254 47.5421 59.0733L47.2821 58.8538L46.8504 59.0097L46.6229 58.8174L48.0882 58.29L48.5758 58.7018C48.8749 58.9551 48.8644 59.1656 48.542 59.2812L48.5433 59.2799Z" fill="#D6000B"/>
<path d="M49.8045 59.7372L48.3379 60.2646L48.1103 60.0723L49.5757 59.5449L49.8045 59.7372Z" fill="#D6000B"/>
<path d="M51.357 61.0485L51.1607 61.1199L49.4366 60.8965L50.1452 61.4953L49.9007 61.5837L48.884 60.725L49.0829 60.6536L50.8044 60.877L50.1244 60.3029L50.3714 60.2158L51.357 61.0485Z" fill="#D6000B"/>
<path d="M52.8328 62.2943L52.6364 62.3657L50.9123 62.1423L51.6209 62.7411L51.3765 62.8295L50.3597 61.9708L50.5587 61.8994L52.2802 62.1228L51.6001 61.5486L51.8472 61.4629L52.8328 62.2943Z" fill="#D6000B"/>
<path d="M53.1656 63.6783L53.5739 63.2821L52.7469 63.3249L53.1656 63.6783ZM53.0057 63.8329L52.4245 63.3418L52.0097 63.3639L51.7731 63.1652L53.7611 63.0781L53.9978 63.2769L53.0473 64.2394L52.8029 64.0329L53.007 63.8316L53.0057 63.8329Z" fill="#D6000B"/>
<path d="M84.3361 97.0148C81.3741 95.3066 78.9726 91.1497 78.9726 87.732C78.9726 87.0163 79.0831 86.3966 79.2756 85.8692C77.1809 85.5029 75.6752 86.9279 75.6752 89.6312C75.6752 93.0489 78.0768 97.2057 81.04 98.9139C83.383 100.265 85.3698 99.6751 86.1005 97.6812C85.5479 97.585 84.9563 97.3707 84.3374 97.0135L84.3361 97.0148Z" fill="#EE0B18"/>
<path d="M81.04 83.8074C78.9011 82.5734 76.9638 82.4564 75.5608 83.2644L78.8582 81.364C80.2612 80.556 82.1972 80.6729 84.3361 81.907C88.6164 84.3751 92.0855 90.3791 92.0855 95.3167C92.0855 99.8047 84.3361 109.788 84.3361 109.788L81.0387 111.688C81.0387 111.688 88.7881 101.705 88.7881 97.2171C88.7881 92.2796 85.319 86.2768 81.0387 83.8087L81.04 83.8074Z" fill="#EE0B18"/>
<path d="M81.04 98.9157C78.0781 97.2075 75.6752 93.0507 75.6752 89.633C75.6752 86.2153 78.0768 84.8305 81.04 86.5387C84.0019 88.2469 86.4034 92.4038 86.4034 95.8215C86.4034 99.2392 84.0019 100.625 81.0387 98.9157H81.04ZM81.04 83.8082C76.7609 81.3401 73.2906 83.3406 73.2906 88.2768C73.2906 92.9195 81.04 111.688 81.04 111.688C81.04 111.688 88.7894 101.705 88.7894 97.2166C88.7894 92.2804 85.3203 86.2763 81.04 83.8082Z" fill="#FF696F"/>
<path d="M14.3576 61.4239C14.3017 61.5993 14.2341 61.7798 14.1041 61.911C14.0468 61.9682 13.9818 62.0123 13.9116 62.05C13.7582 62.1319 13.5801 62.176 13.4123 62.2241C12.6192 62.4553 11.8911 62.8996 11.319 63.4932C11.172 63.6452 11.0355 63.8076 10.9107 63.979C10.8392 64.0765 10.7716 64.1778 10.7052 64.2791C10.5245 64.5532 10.3529 64.8286 10.1318 65.0702C9.82889 65.4002 9.40762 65.6613 8.96164 65.6288C8.7666 65.6158 8.57547 65.5431 8.37913 65.5534C8.2114 65.5625 8.14119 65.6366 8.00727 65.7067C7.72122 65.8574 7.31554 65.7834 7.0581 65.6119C6.89687 65.5041 6.76815 65.3521 6.60562 65.2482C6.54321 65.2079 6.47559 65.1754 6.40668 65.1469C6.26756 65.0871 6.12063 65.0429 5.98541 64.9767C5.65645 64.8169 5.4029 64.5467 5.11295 64.3298C4.8464 64.1297 4.55255 64.0648 4.31591 63.8401C4.09877 63.6335 3.86603 63.4348 3.63329 63.2347C3.32773 61.52 3.63199 59.6923 4.54865 58.2127C5.58103 56.5435 7.39486 55.3575 9.34911 55.1691C9.55194 55.1497 9.76388 55.1367 9.94201 55.0392C10.0772 54.9665 10.1813 54.8483 10.2918 54.7418C10.6883 54.3599 11.224 54.0858 11.7701 54.1143C11.8039 54.1156 11.8378 54.1182 11.8729 54.1234C12.5594 54.2092 13.0951 54.7561 13.4838 55.3276C14.6801 57.0852 15.0116 59.4026 14.3576 61.4239Z" fill="#002970"/>
<path d="M11.7688 54.1146C11.2227 54.086 10.687 54.3601 10.2905 54.742C10.18 54.8485 10.0759 54.9654 9.94071 55.0395C9.76258 55.1369 9.55064 55.1486 9.34781 55.1694C7.39356 55.3564 5.57843 56.5424 4.54735 58.213C3.63069 59.6938 3.32643 61.5202 3.63329 63.2349C2.91686 62.6205 2.20433 61.997 1.97549 61.1072C1.80256 60.4304 1.94949 59.7172 2.09771 59.0339C2.41367 57.5713 2.79464 55.9969 3.94014 55.0317C4.8113 54.3003 5.97631 54.0496 7.0906 53.8223C7.90845 53.6547 8.72499 53.4898 9.54284 53.3222C10.0616 53.217 10.6142 53.1143 11.107 53.3092C11.4425 53.443 11.7155 53.7729 11.7688 54.1133V54.1146Z" fill="#003DA6"/>
<path d="M11.3099 64.0011C11.2878 64.2024 11.2669 64.4012 11.2435 64.5999C11.2344 64.6831 11.2227 64.7623 11.1668 64.8078C11.1135 64.8506 11.0329 64.8493 10.9731 64.8169C10.9016 64.7727 10.8626 64.722 10.8301 64.6714C10.7586 64.5545 10.7156 64.4181 10.7039 64.2817C10.7703 64.1777 10.8379 64.0764 10.9081 63.979C11.0329 63.8075 11.1694 63.6451 11.3164 63.4932C11.3437 63.6568 11.3268 63.8335 11.3073 64.0011H11.3099Z" fill="#FFBB8A"/>
<path d="M13.9116 62.0488C13.4279 63.2179 12.4359 64.1714 11.2448 64.6001C11.2669 64.4013 11.2891 64.2013 11.3112 64.0012C11.3294 63.8337 11.3463 63.657 11.3203 63.4933C11.8924 62.8997 12.6205 62.4554 13.4136 62.2242C13.5814 62.1748 13.7595 62.132 13.9129 62.0501L13.9116 62.0488Z" fill="#FFAF75"/>
<path d="M10.9536 64.8064C10.3815 65.0012 9.8939 65.4325 9.63256 65.9768C9.53764 66.1755 9.47263 66.3873 9.44012 66.6042C9.43492 66.6367 9.43102 66.6705 9.42712 66.7029C9.40762 66.8796 9.40762 67.0576 9.42972 67.2342C9.09296 67.3979 8.7354 67.5239 8.36223 67.5629C7.98646 67.6005 7.59509 67.5434 7.26743 67.355C6.98008 67.1901 6.74864 66.9303 6.44179 66.803C6.23375 66.7172 5.98671 66.6834 5.84758 66.5068C5.78127 66.4236 5.75397 66.3132 5.76697 66.2093C5.86709 66.1171 5.9594 66.0158 6.03872 65.9066C6.05172 65.891 6.06342 65.8755 6.07382 65.8599C6.22725 65.6442 6.34167 65.4013 6.40668 65.1454C6.47559 65.1753 6.54321 65.2065 6.60692 65.248C6.76945 65.352 6.89947 65.5039 7.0594 65.6105C7.31814 65.7819 7.72382 65.8573 8.00857 65.7053C8.14249 65.6338 8.2127 65.5598 8.38043 65.552C8.57677 65.5416 8.7679 65.6144 8.96294 65.6273C9.40892 65.6585 9.83019 65.3974 10.1331 65.0675C10.3542 64.8272 10.5258 64.5518 10.7065 64.2803C10.7169 64.4167 10.7612 64.5518 10.8327 64.67C10.8639 64.7219 10.9029 64.7713 10.9549 64.8051L10.9536 64.8064Z" fill="#FF9247"/>
<path d="M9.64946 67.0418C9.61955 67.1354 9.52594 67.1899 9.44012 67.2315C9.40762 67.0587 9.40762 66.8808 9.42842 66.7041C9.47783 66.7262 9.52464 66.7522 9.56364 66.7872C9.63386 66.8496 9.67937 66.9509 9.65076 67.0405L9.64946 67.0418Z" fill="#B11821"/>
<path d="M6.03872 65.9085C5.9594 66.0163 5.86709 66.119 5.76697 66.2112C5.77087 66.1566 5.78777 66.1021 5.81508 66.0553C5.85278 65.989 5.90999 65.9358 5.9763 65.8994C5.99711 65.9033 6.01791 65.9059 6.03742 65.9085H6.03872Z" fill="#B11821"/>
<path d="M9.62346 67.4717C9.57535 67.4834 9.52854 67.4964 9.48043 67.5094C9.19048 67.5913 8.90963 67.7017 8.62488 67.7978C8.1776 67.9498 7.70041 68.1044 7.23883 67.9966C6.84226 67.9043 6.5159 67.6315 6.14794 67.4562C5.88399 67.3302 5.57973 67.2431 5.4094 67.0054C5.31319 66.8729 5.27418 66.7079 5.28718 66.5443C5.29368 66.4429 5.31969 66.3429 5.3626 66.2507C5.43931 66.0883 5.56413 65.9532 5.71106 65.8506C5.79817 65.8688 5.88659 65.8857 5.975 65.8986C5.90869 65.9337 5.85148 65.987 5.81378 66.0532C5.78647 66.1013 5.77087 66.1546 5.76567 66.2091C5.75396 66.313 5.78127 66.4222 5.84758 66.5066C5.98541 66.6833 6.23375 66.7157 6.44179 66.8015C6.74864 66.9288 6.98008 67.1886 7.26743 67.3535C7.59509 67.5419 7.98646 67.6004 8.36223 67.5614C8.7354 67.5237 9.09426 67.3964 9.42972 67.2327C9.52594 67.186 9.61955 67.1314 9.64946 67.0379C9.67936 66.9483 9.63386 66.8469 9.56364 66.7846C9.52464 66.7495 9.47783 66.7235 9.42842 66.7014C9.43102 66.669 9.43622 66.6352 9.44142 66.6027C9.64296 66.6651 9.83539 66.756 10.0096 66.8742C10.0668 66.9119 10.1227 66.956 10.1513 67.0171C10.1644 67.0457 10.1735 67.073 10.1774 67.0989C10.2333 67.3795 9.80809 67.425 9.62346 67.4692V67.4717Z" fill="#FFDC58"/>
<path d="M14.3875 73.3344C14.303 73.1707 14.2263 73.0032 14.1626 72.8265C13.7309 71.6223 13.3902 70.348 12.298 69.566C11.8716 69.2607 11.3307 69.0789 10.8184 69.1906C10.1604 69.3322 9.67286 69.9427 9.53374 70.6013C9.39331 71.2573 9.55194 71.9484 9.82369 72.5641C10.0265 73.0265 10.2931 73.4578 10.5492 73.8904C10.6623 74.08 10.8197 74.2827 10.873 74.4983C10.925 74.7049 10.9575 74.9075 11.0264 75.1128C11.2721 75.8597 11.5413 76.5988 11.8338 77.3289C11.9808 77.7004 12.0913 78.0875 12.2811 78.4395C12.3084 78.4928 12.3409 78.5473 12.3747 78.6019C12.4137 78.6682 12.4567 78.7344 12.5048 78.798C12.4541 78.9305 12.3851 79.0553 12.298 79.1683C12.0536 79.4969 11.6843 79.7424 11.2877 79.8606C10.6558 80.049 9.97191 79.962 9.3374 79.784C8.71069 79.6073 8.11128 79.3462 7.52098 79.076C6.96838 78.8227 6.40278 78.5824 5.91779 78.2122C5.55893 77.9381 5.29498 77.5575 5.13765 77.134C5.10905 77.0548 5.08304 76.9742 5.06094 76.8937C5.32229 76.1741 5.09735 75.3765 4.8347 74.6568C4.65397 74.1593 4.45243 73.6683 4.23399 73.185C4.02726 72.7265 3.7334 72.2757 3.57087 71.8029C3.25622 70.8832 2.90386 69.957 2.37986 69.1295C1.92998 68.4164 1.77395 67.5551 1.92608 66.7302C2.0184 66.2366 2.36296 65.8196 2.76733 65.539C3.22241 65.2234 3.6996 65.2182 4.23919 65.3013C4.57075 65.352 4.87501 65.5936 5.19486 65.7066C5.36259 65.7664 5.53552 65.8144 5.71106 65.8521C5.56283 65.9547 5.43931 66.0911 5.36259 66.2522C5.31969 66.3444 5.29368 66.4445 5.28588 66.5471C5.27418 66.7107 5.31318 66.8757 5.4081 67.0082C5.57973 67.2459 5.88399 67.333 6.14663 67.459C6.5146 67.6343 6.84096 67.9084 7.23753 68.0007C7.69911 68.1085 8.1763 67.9526 8.62357 67.8006C8.90833 67.7045 9.18918 67.5954 9.47783 67.5122C9.52594 67.4992 9.57404 67.4863 9.62085 67.4746C9.80549 67.4304 10.2294 67.3849 10.1748 67.1044C10.2515 67.2135 10.3308 67.3265 10.4101 67.4421C10.7104 67.8747 11.0381 68.3254 11.4438 68.5969C11.6206 68.7151 11.7935 68.8398 11.9652 68.9684C12.3578 69.2633 12.7427 69.5777 13.1406 69.8622C13.7101 70.2713 14.2666 70.7403 14.5708 71.3716C14.8738 72.0029 14.8673 72.8291 14.3849 73.3357L14.3875 73.3344Z" fill="#FF4A54"/>
<path d="M16.0466 76.7495C16.005 76.9586 15.9504 77.1651 15.875 77.3639C15.5733 78.1615 14.7282 78.8578 13.883 79.0045C13.4175 79.0864 12.9156 78.9838 12.5308 78.7201C12.4762 78.6837 12.4242 78.6434 12.3747 78.5993C12.3396 78.5447 12.3084 78.4888 12.2798 78.4356C12.09 78.0822 11.9808 77.6964 11.8325 77.3249C11.5413 76.5949 11.2708 75.8557 11.0251 75.1088C10.9575 74.9036 10.9237 74.7009 10.8717 74.4944C10.8184 74.2774 10.661 74.0761 10.5479 73.8864C10.2905 73.4539 10.0252 73.0226 9.82239 72.5601C9.55064 71.9444 9.39201 71.2546 9.53244 70.5973C9.67156 69.9387 10.1592 69.3282 10.8184 69.1866C11.3307 69.0749 11.8716 69.2555 12.298 69.562C13.3915 70.344 13.7296 71.6184 14.1626 72.8225C14.225 72.9992 14.3017 73.1668 14.3875 73.3305C14.628 73.7916 14.9349 74.2151 15.1936 74.6723C15.4966 75.2049 15.7059 75.783 15.914 76.3598C15.9595 76.4858 16.0063 76.6157 16.0466 76.7456V76.7495Z" fill="#FFDC58"/>
<path d="M16.174 77.5898C16.1363 78.1432 15.7879 78.6472 15.3237 78.9512C14.8881 79.237 14.3628 79.3617 13.8414 79.3747C13.8063 79.376 13.7725 79.3773 13.7387 79.3773C13.502 79.3773 13.2602 79.3565 13.0405 79.2642C12.8324 79.1759 12.6517 78.9966 12.5061 78.7966C12.5152 78.7732 12.523 78.7472 12.5308 78.7226C12.9156 78.9863 13.4188 79.0876 13.883 79.007C14.7295 78.8602 15.5733 78.164 15.8763 77.3664C15.9517 77.1663 16.0063 76.9598 16.0479 76.752C16.07 76.8195 16.0895 76.887 16.1051 76.9559C16.1597 77.165 16.1896 77.3768 16.174 77.5911V77.5898Z" fill="#FF8220"/>
<path d="M28.5834 70.9084C28.5782 71.046 28.4456 71.1396 28.3273 71.211C27.1675 71.906 26.0077 72.601 24.8466 73.2972C24.5501 73.4739 24.2589 73.6791 23.9169 73.7363C22.8169 73.9234 21.9822 74.8249 21.2345 75.5809C20.3257 76.498 19.4051 77.4099 18.4806 78.3101C17.7109 79.0597 16.7513 80.0248 15.6812 80.3067C15.2769 80.4119 14.8205 80.3794 14.4824 80.1339C14.2133 79.9378 14.0507 79.6338 13.8388 79.3766C14.3615 79.3623 14.8855 79.2389 15.3211 78.9518C15.7853 78.6479 16.135 78.1438 16.1714 77.5905C16.187 77.3761 16.1558 77.1644 16.1025 76.9552C18.3012 75.4393 20.5454 74.0143 22.4593 72.1372C22.8195 71.7839 23.2187 71.6085 23.692 71.441C24.3213 71.2175 25.0299 71.1188 25.5812 70.7369C25.6748 70.6732 25.7697 70.6031 25.8816 70.5888C25.9934 70.5745 26.1247 70.6421 26.1351 70.7538C26.373 70.4355 26.6565 70.09 27.0518 70.0432C27.1181 70.0354 27.1896 70.038 27.2455 70.0757C27.3001 70.1121 27.3313 70.1939 27.2936 70.2498C27.4652 70.1147 28.1037 69.8626 28.2129 70.2095C28.2389 70.2926 28.1271 70.6213 28.0256 70.6291C28.144 70.6187 28.2675 70.6109 28.3767 70.6499C28.4885 70.6901 28.5873 70.7927 28.5821 70.911L28.5834 70.9084Z" fill="#FFAF75"/>
<path d="M16.1701 66.1687C16.1766 66.2441 16.1246 66.3103 16.0765 66.3701C15.8971 66.5844 15.7085 66.7871 15.5135 66.9884C15.3939 67.1144 15.3497 67.1755 15.2236 67.2937C14.3303 68.1354 12.8883 68.1874 11.9691 68.9668C11.7974 68.8382 11.6232 68.7135 11.4477 68.5953C11.042 68.3238 10.7143 67.873 10.414 67.4405C10.5934 67.3002 10.7547 67.1391 10.8262 66.9274C10.9081 66.6857 10.8535 66.422 10.86 66.1674C10.8717 65.6478 11.1421 65.1607 11.5101 64.7944C11.6895 64.6164 11.9171 64.4047 12.1511 64.3021C12.3994 64.1929 12.6101 64.1202 12.8246 63.937C12.8818 63.8877 12.9429 63.8357 13.0184 63.8279C13.1393 63.8162 13.2394 63.9396 13.2433 64.0617C13.2459 64.1826 13.1796 64.2943 13.1016 64.3878C12.8896 64.6411 12.5815 64.8217 12.4476 65.123C12.4385 65.1451 12.4294 65.1672 12.4294 65.1906C12.432 65.2412 12.4775 65.2815 12.5269 65.2945C12.7674 65.3543 13.2836 64.9282 13.4955 64.81C13.883 64.5943 14.2705 64.3787 14.658 64.1618C14.7477 64.1111 14.8335 64.0591 14.9375 64.0734C15.0402 64.089 15.1897 64.1046 15.2483 64.2111C15.3211 64.3449 15.2392 64.5515 15.1962 64.6827C15.2418 64.5437 15.5577 64.432 15.6838 64.4125C15.9166 64.3774 16.0882 64.4865 16.0648 64.7333C16.0401 64.9931 15.7866 65.1698 15.6032 65.3231C15.7332 65.2802 15.8685 65.2386 16.0037 65.262C16.1376 65.2854 16.2663 65.401 16.2559 65.5361C16.2507 65.605 16.2104 65.6686 16.1662 65.7232C16.0895 65.818 15.9959 65.9011 15.8919 65.9661C16.0141 65.9661 16.1636 66.0181 16.174 66.1674L16.1701 66.1687Z" fill="#FFAF75"/>
<path d="M16.1545 90.7757C15.9686 91.5707 15.364 92.2176 14.658 92.6281C14.5968 92.6645 14.5331 92.6982 14.4694 92.7307C13.8102 93.0723 13.0756 93.2529 12.3461 93.4062C11.3762 93.6101 10.3802 93.7686 9.38421 93.8492C8.88492 93.8894 8.38433 93.9089 7.88765 93.905C6.27536 93.8946 4.68908 93.6309 3.22111 92.971C3.1626 92.9437 3.10409 92.9165 3.04558 92.8892C1.85587 92.3176 0.761076 91.4252 0.316397 90.1898C-0.0190632 89.2597 0.0472486 88.24 0.125263 87.2528C0.311196 84.9249 0.592046 82.4633 2.0223 80.6148C2.97537 79.3821 4.41083 78.4689 5.13766 77.1348C5.29498 77.5582 5.55893 77.9389 5.9178 78.213C6.40408 78.5832 6.96838 78.8235 7.52098 79.0768C8.11129 79.347 8.71069 79.6081 9.33741 79.7848C9.97322 79.9627 10.6558 80.0511 11.2878 79.8614C11.6843 79.7432 12.0536 79.4977 12.298 79.169C13.4344 82.1529 14.5721 85.1393 15.7085 88.1231C16.0323 88.9753 16.3626 89.8911 16.1545 90.777V90.7757Z" fill="#003DA6"/>
<path d="M6.20254 100.329C6.11543 101.01 6.11803 101.702 6.20775 102.384C6.33647 103.361 6.43139 104.152 6.25975 105.123C6.08552 106.109 5.962 107.151 5.9425 108.151C5.9321 108.656 5.975 109.167 6.02181 109.676C5.91389 110.027 5.80077 110.376 5.68505 110.723C5.47311 111.368 5.25207 112.028 4.8165 112.551C4.69688 112.692 4.56165 112.823 4.41603 112.938C4.35752 111.155 3.7191 109.434 3.1743 107.729C2.5931 105.916 2.10811 103.984 2.52679 102.127C2.77903 101.015 3.34333 99.9943 3.61378 98.8862C4.09877 96.9117 3.61638 94.8567 3.04428 92.8887C3.10279 92.916 3.1613 92.9432 3.21981 92.9705C4.68777 93.6304 6.27406 93.8941 7.88634 93.9045C7.49888 95.284 7.11141 96.6636 6.72394 98.0444C6.512 98.7966 6.30006 99.5539 6.20124 100.329H6.20254Z" fill="#FFA25E"/>
<path d="M14.4694 92.7305C14.3888 93.7255 14.3082 94.7219 14.2302 95.7156C14.2055 96.0157 14.1808 96.317 14.1236 96.6119C13.9597 97.4381 13.5111 98.1499 13.1926 98.9177C12.8649 99.7075 12.6842 100.547 12.4281 101.36C12.0367 102.602 11.6726 103.91 11.0706 105.068C10.4218 106.318 9.57795 107.499 8.84071 108.698C8.13599 109.844 7.42216 111.01 7.02429 112.29C6.99699 112.375 6.97098 112.462 6.94758 112.549C6.93978 112.577 6.93197 112.607 6.92417 112.635C6.72004 113.416 6.64462 114.22 6.65893 115.027C6.66543 115.45 6.69663 115.872 6.74604 116.293C6.74864 116.322 6.75124 116.352 6.75644 116.382C6.79155 116.67 6.83316 116.956 6.88387 117.242C6.62382 116.939 6.24285 116.709 5.9503 116.436C5.19747 115.733 5.16756 114.516 4.48884 113.742C4.34581 113.581 4.17938 113.45 4.00385 113.326C3.97265 113.304 3.95184 113.287 3.94924 113.268C3.94404 113.25 3.95704 113.23 3.99215 113.207C4.03766 113.176 4.09227 113.159 4.13778 113.131C4.22489 113.079 4.30811 113.022 4.38872 112.961C4.56425 112.824 4.69948 112.692 4.8191 112.549C5.25468 112.029 5.47571 111.367 5.68765 110.723C5.80207 110.376 5.91649 110.027 6.02311 109.677C6.34297 108.647 6.60952 107.6 6.65893 106.526C6.69143 105.835 6.63422 105.133 6.75644 104.451C6.93458 103.454 7.48067 102.567 8.01637 101.708C8.44284 101.023 8.86932 100.339 9.2945 99.6555C9.9017 98.6825 10.5336 97.5953 10.3529 96.4638C10.2957 96.1079 10.1591 95.7702 10.0252 95.4363C9.81199 94.9076 9.59745 94.3776 9.38551 93.8476C10.3815 93.7671 11.3762 93.6099 12.3461 93.406C13.0756 93.2527 13.8102 93.0721 14.4694 92.7305Z" fill="#FFAF75"/>
<path d="M9.47653 117.728C9.46483 117.768 9.45052 117.809 9.43362 117.849C9.27759 118.233 8.99804 118.552 8.72499 118.863C8.54296 119.071 8.35833 119.279 8.13599 119.443C8.01897 119.528 7.89285 119.601 7.76022 119.657C7.6471 119.705 7.52748 119.744 7.40526 119.735C7.29214 119.727 7.18552 119.68 7.088 119.623C6.47299 119.27 6.13103 118.6 5.73316 118.014C5.51732 117.694 5.27548 117.393 5.01023 117.112C4.88541 116.979 4.72548 116.859 4.61626 116.716C4.52004 116.588 4.43943 116.447 4.33151 116.323C3.75291 115.652 3.02348 115.02 2.33175 114.466C2.34086 114.431 2.35256 114.399 2.36816 114.365C2.43057 114.214 2.53589 114.082 2.64901 113.964C2.99617 113.606 3.45775 113.361 3.94794 113.269C3.95054 113.288 3.97005 113.305 4.00255 113.327C4.17808 113.45 4.34451 113.582 4.48754 113.743C5.16626 114.517 5.19616 115.734 5.949 116.437C6.24155 116.71 6.62252 116.94 6.88257 117.242C6.83316 116.956 6.79025 116.671 6.75644 116.382C7.00999 116.294 7.26873 116.223 7.53268 116.169C7.76412 116.12 7.99946 116.085 8.23351 116.061C8.59627 116.026 9.00324 116.037 9.26979 116.286C9.44662 116.451 9.52854 116.697 9.55584 116.936C9.58705 117.202 9.55974 117.472 9.47523 117.727L9.47653 117.728Z" fill="#FF4A54"/>
<path d="M9.28929 118.63C9.03445 119.109 8.62488 119.453 8.1841 119.747C7.91755 119.925 7.58859 120.003 7.27003 119.973C7.16862 119.964 7.0698 119.944 6.97488 119.912C6.63422 119.8 6.36897 119.547 6.11283 119.308C5.78517 119.004 5.47181 118.684 5.20787 118.326C4.93742 117.96 4.66957 117.588 4.36012 117.254C4.00515 116.87 3.61508 116.518 3.27312 116.121C2.89475 115.684 2.43967 115.117 1.88187 114.911C2.021 114.709 2.18613 114.529 2.36946 114.365C2.35386 114.399 2.34216 114.433 2.33305 114.468C3.02478 115.021 3.75421 115.654 4.33281 116.324C4.44073 116.449 4.52004 116.589 4.61756 116.718C4.72678 116.861 4.88801 116.98 5.01153 117.114C5.27678 117.395 5.51862 117.697 5.73446 118.015C6.13233 118.601 6.47429 119.272 7.0893 119.625C7.18812 119.681 7.29474 119.728 7.40786 119.737C7.52878 119.746 7.6497 119.708 7.76282 119.659C7.89545 119.602 8.02157 119.53 8.13859 119.443C8.36093 119.279 8.54556 119.072 8.72759 118.864C9.00064 118.552 9.28019 118.234 9.43622 117.85C9.45312 117.812 9.46613 117.771 9.47913 117.731C9.51553 118.036 9.43752 118.358 9.29319 118.634L9.28929 118.63Z" fill="#FFDC58"/>
<path d="M7.27004 119.973C7.16082 119.999 7.049 120.01 6.93718 119.994C6.73174 119.964 6.55491 119.84 6.38848 119.716C5.84498 119.313 5.25988 118.882 4.78919 118.398C4.30811 117.905 3.86603 117.384 3.40055 116.876C3.26012 116.724 3.1223 116.572 2.98707 116.419C2.87525 116.294 2.75693 116.232 2.63341 116.125C2.34736 115.883 2.10812 115.564 1.91828 115.243C1.87537 115.169 1.83247 115.087 1.84157 115.003C1.84417 114.969 1.85977 114.935 1.88318 114.909C2.44227 115.116 2.89606 115.683 3.27572 116.12C3.61898 116.516 4.00775 116.868 4.36272 117.254C4.67217 117.589 4.94002 117.959 5.21047 118.326C5.47441 118.684 5.78777 119.004 6.11543 119.308C6.37288 119.547 6.63812 119.8 6.97878 119.912C7.0737 119.943 7.17122 119.964 7.27264 119.973H7.27004Z" fill="#FF8220"/>
<path d="M8.57547 113.237C8.52476 113.597 8.26341 113.892 7.99426 114.136C7.60809 114.483 7.17382 114.776 6.70703 115.005C6.64462 114.222 6.72004 113.418 6.92417 112.637C6.93197 112.608 6.93978 112.579 6.94758 112.551C7.33245 112.423 7.76412 112.436 8.13859 112.593C8.32322 112.669 8.50656 112.795 8.56507 112.986C8.58847 113.068 8.58847 113.154 8.57677 113.237H8.57547Z" fill="#FFA25E"/>
<path d="M12.0315 112.886C11.8703 114.29 10.0824 114.958 8.91743 115.325C8.83031 115.353 8.7432 115.38 8.65608 115.407C8.05017 115.596 7.47287 115.792 6.93978 116.15C6.87216 116.196 6.80715 116.244 6.74474 116.296C6.69533 115.875 6.66413 115.453 6.65763 115.029C7.17252 114.776 7.6055 114.482 7.99166 114.135C8.26211 113.891 8.52346 113.596 8.57287 113.237C8.58457 113.153 8.58457 113.068 8.56117 112.986C8.50396 112.795 8.32062 112.669 8.13469 112.592C7.76022 112.435 7.32855 112.422 6.94368 112.551C6.96708 112.462 6.99309 112.377 7.02039 112.291C7.14261 112.232 7.27914 112.193 7.41046 112.157C7.98386 112.001 8.56377 111.873 9.14887 111.769C9.69627 111.673 10.2593 111.601 10.8145 111.667C11.3138 111.727 11.9561 111.862 12.0263 112.449C12.0445 112.603 12.0445 112.748 12.0289 112.886H12.0315Z" fill="#FF4A54"/>
<path d="M11.9288 113.729C11.8247 113.933 11.6687 114.104 11.5127 114.27C11.3541 114.439 11.1928 114.607 11.0095 114.747C10.6272 115.04 10.1618 115.197 9.70797 115.35C9.23339 115.51 8.7601 115.667 8.28552 115.827C8.02677 115.915 7.75242 116.012 7.53138 116.168C7.26873 116.223 7.00869 116.294 6.75514 116.381C6.75124 116.352 6.74734 116.324 6.74604 116.294C6.80715 116.242 6.87346 116.193 6.94108 116.148C7.47417 115.789 8.05017 115.593 8.65738 115.405C8.7445 115.377 8.83291 115.35 8.91873 115.323C10.0837 114.955 11.8716 114.287 12.0328 112.886C12.0952 113.168 12.0601 113.47 11.9301 113.727L11.9288 113.729Z" fill="#FFDC58"/>
<defs>
<linearGradient id="paint0_linear_252_23782" x1="74.9692" y1="25.0947" x2="79.7424" y2="25.0947" gradientUnits="userSpaceOnUse">
<stop stop-color="#FFCCC8"/>
<stop offset="1" stop-color="#6C2C5B"/>
</linearGradient>
</defs>
</svg>
