<svg viewBox="0 0 160 150" xmlns="http://www.w3.org/2000/svg" xml:space="preserve" style="fill-rule:evenodd;clip-rule:evenodd;stroke-linejoin:round;stroke-miterlimit:2"><path d="m685 425.3-45 79.3-44.9-79.3h-34c.7 1.4 1.5 3 2.6 4.8L640 564.9l76.2-134.5c1-1.8 1.9-3.5 2.7-5.1H685ZM592.9 355.9c10.9-15.1 28-24.3 45.9-24.7h1.2c15.3 0 29.6 5.9 40.5 16.5 2.6 2.6 4.9 5.3 6.9 8.2h33.7c-4.5-11-11.1-20.9-19.8-29.4-16.5-16.2-38.3-25-61.6-25h-1.5c-34.9.7-65.9 22-79.3 54.4h34Z" style="fill:#1ea69f;fill-rule:nonzero" transform="translate(-136.677 -92.854) scale(.33814)"/><path d="m735.8 274.6-18.2 23.5c24.1 18.9 39.4 45.9 43.2 75.8.1.3.1.6.1.9 0 .3.1.6.1.9H518.9c0-.3.1-.6.1-.9 0-.3.1-.6.1-.9 3.8-29.9 19.1-56.9 43.2-75.8l-18.2-23.5c-35.5 27.7-55.8 69.4-55.8 114.4 0 36.1 13.3 70.6 37.4 97.3l22-20.1c-15-16.6-24.7-37.1-28.1-58.9 0-.3-.1-.6-.1-.9-.1-.3-.1-.6-.1-.9h241.4c-.1.3-.1.6-.1.9 0 .3-.1.6-.1.9-3.5 21.9-13.2 42.3-28.1 58.9l22 20.1c24.1-26.7 37.4-61.2 37.4-97.3-.3-45.1-20.6-86.7-56.1-114.4ZM479.9 621.6v96.6h-18.4v-39.5h-38.9v39.5h-18.4v-96.6h18.4v39.6h38.9v-39.6h18.4ZM594.9 718.2H574l-23.9-69-23.9 69h-20.8l35.3-96.6h18.8l35.4 96.6ZM678.4 700.7v17.5h-58v-96.6h18.4v79.1h39.6ZM770.1 639.3h-63.4v-17.7h63.4v17.7Zm-4.3 39.5h-59.1v-17.5h59.1v17.5Zm5.1 21.9v17.5h-64.2v-17.5h64.2ZM875.8 621.6v96.6h-18.1l-38.8-62.7v62.7h-18.4v-96.6h17.9l38.9 62.7v-62.7h18.5Z" style="fill:#1ea69f;fill-rule:nonzero" transform="translate(-136.677 -92.854) scale(.33814)"/></svg>