<svg width="120" height="120" viewBox="0 0 120 120" fill="none" xmlns="http://www.w3.org/2000/svg">
<g clip-path="url(#clip0_289_117)">
<path d="M82.2096 10.8546C82.2096 11.9041 81.4727 12.329 80.5643 11.8027C79.6527 11.2795 78.9159 10.0048 78.9159 8.95524C78.9159 7.90568 79.6527 7.48079 80.5643 8.00715C81.4727 8.53034 82.2096 9.80502 82.2096 10.8546Z" fill="#141A1F"/>
<path d="M81.7046 10.5659C81.7046 11.2952 81.1932 11.5869 80.5611 11.2255C79.9291 10.8608 79.4177 9.97615 79.4177 9.25003C79.4177 8.52073 79.9291 8.22901 80.5611 8.59049C81.1932 8.95514 81.7046 9.8398 81.7046 10.5659Z" fill="#27333D"/>
<path d="M81.171 10.2585C81.171 10.6453 80.8978 10.8007 80.5643 10.6073C80.2276 10.4139 79.9545 9.94459 79.9545 9.55457C79.9545 9.16773 80.2276 9.00919 80.5643 9.20261C80.901 9.39603 81.171 9.86849 81.171 10.2553V10.2585Z" fill="#9038C7"/>
<path d="M117.043 21.6197L80.2276 0.400387C79.3637 -0.0974358 78.5887 -0.11329 78.0488 0.254528L74.142 2.509C74.142 2.509 75.1298 3.72027 75.1425 3.76149C75.1552 3.80271 76.9307 4.22443 76.9307 4.22443L77.2706 3.95808V91.0613C77.2706 92.9416 78.5951 95.2309 80.2276 96.1727L115.684 116.609C115.645 116.774 115.617 116.91 115.617 116.92C115.617 116.948 115.252 119.837 115.252 119.837L119.104 117.614C119.657 117.313 120 116.647 120 115.686V26.7311C120 24.8476 118.676 22.5614 117.043 21.6197Z" fill="#BAC4CC"/>
<path d="M109.931 113.292V25.0381H119.692C119.889 25.6088 120 26.1859 120 26.7313V115.686C120 116.644 119.657 117.31 119.104 117.614L115.252 119.837C115.252 119.837 115.62 116.948 115.62 116.92C115.62 116.907 115.649 116.771 115.687 116.609L109.935 113.292H109.931Z" fill="#96A1AB"/>
<path d="M77.2706 50.7535L119.959 26.1477C119.727 24.3974 118.51 22.4664 117.043 21.6197L116.338 21.2139L77.2706 43.7301V50.7535Z" fill="#AAB6BF"/>
<path d="M113.225 119.596L76.4098 98.3765C74.7773 97.4348 73.4528 95.1486 73.4528 93.2651V4.31015C73.4528 2.42983 74.7773 1.66566 76.4098 2.6074L113.225 23.8267C114.858 24.7685 116.182 27.0546 116.182 28.9381V117.893C116.182 119.777 114.861 120.538 113.225 119.596Z" fill="#DAE4ED"/>
<path d="M74.5232 93.3251V5.47988C74.5232 3.97055 75.584 3.35858 76.8926 4.11324L112.746 24.7745C114.054 25.5291 115.115 27.3651 115.115 28.8712V116.716C115.115 118.226 114.054 118.838 112.746 118.083L76.8958 97.4186C75.5872 96.6639 74.5263 94.8312 74.5263 93.3219L74.5232 93.3251Z" fill="#333E4A"/>
<path d="M113.571 106.662L76.0668 85.0433V10.6172L113.571 32.2329V106.662Z" fill="#06A5C2"/>
<path d="M113.511 106.899L76.1271 85.3534V79.0244L113.511 100.573V106.899Z" fill="#69C5D6"/>
<path d="M94.6444 91.3722L95.9403 93.3983L93.3485 91.9049L94.6444 91.3722ZM95.8418 95.5386L95.1304 95.1296V94.3749C95.1304 94.3179 95.0891 94.2513 95.0414 94.2227L94.1711 93.7218C94.1235 93.6932 94.0822 93.7154 94.0822 93.7725V94.5271L93.4184 94.1466V92.1744L95.8386 93.5695V95.5418L95.8418 95.5386ZM96.2389 93.5949L94.7016 91.1946C94.6666 91.1439 94.619 91.1153 94.5841 91.128L93.0468 91.7558C93.0182 91.7685 93.0087 91.8066 93.0214 91.8541C93.0341 91.9017 93.069 91.9461 93.1039 91.9683L93.2405 92.0475V94.1435C93.2405 94.2005 93.2818 94.2671 93.3295 94.2957L94.168 94.7808C94.2156 94.8094 94.2569 94.7872 94.2569 94.7301V93.9754L94.9493 94.3749V95.1296C94.9493 95.1867 94.9906 95.2533 95.0382 95.2818L95.9276 95.7955C95.9752 95.824 96.0165 95.8018 96.0165 95.7448V93.6488L96.1785 93.7408C96.2166 93.763 96.2484 93.7535 96.2611 93.7218C96.2738 93.69 96.2643 93.6393 96.2357 93.5949H96.2389Z" fill="white"/>
<path d="M80.9327 84.0984L79.1318 83.0615V83.3342L80.9327 84.3711C81.4378 84.6628 81.8475 85.3699 81.8475 85.9533C81.8475 86.5336 81.4378 86.7714 80.9327 86.4797L79.3288 85.5538V85.0814L78.4712 85.1384L79.3288 86.1753V85.8265L80.9327 86.7524C81.568 87.117 82.0825 86.819 82.0825 86.0897C82.0825 85.3572 81.5648 84.4662 80.9327 84.0984Z" fill="white"/>
<path d="M109.391 101.579L110.611 101.402V103.643L109.391 101.579ZM108.582 101.287L108.82 101.598C108.832 101.617 108.848 101.63 108.867 101.639C108.883 101.649 108.899 101.652 108.912 101.649L109.239 101.601L110.471 103.688L107.267 101.839L108.582 101.287ZM108.864 101.421L107.333 99.4325L110.392 101.195L108.864 101.421ZM107.121 99.3913L108.426 101.088L107.121 101.636V99.3913ZM110.783 101.316C110.783 101.313 110.783 101.306 110.783 101.303C110.783 101.3 110.783 101.297 110.779 101.294C110.779 101.291 110.779 101.287 110.776 101.281C110.773 101.278 110.773 101.272 110.773 101.268C110.773 101.265 110.773 101.262 110.77 101.262C110.767 101.256 110.764 101.253 110.764 101.246C110.76 101.243 110.76 101.24 110.757 101.237C110.754 101.234 110.754 101.23 110.751 101.227C110.748 101.224 110.745 101.221 110.745 101.218C110.741 101.215 110.738 101.211 110.738 101.208C110.735 101.205 110.732 101.202 110.729 101.199C110.725 101.195 110.725 101.192 110.722 101.192C110.719 101.189 110.716 101.186 110.713 101.183C110.71 101.18 110.706 101.18 110.703 101.176C110.7 101.173 110.697 101.17 110.694 101.17L107.028 99.0583C107.022 99.0552 107.019 99.0552 107.016 99.052C107.006 99.0488 107.003 99.0488 107 99.0488C106.949 99.071 106.946 99.0742 106.946 99.0742C106.946 99.0774 106.943 99.0805 106.943 99.0837C106.943 99.0869 106.939 99.0869 106.939 99.0932C106.939 99.0964 106.939 99.0996 106.939 99.1027C106.939 99.1091 106.939 101.754 106.939 101.754C106.939 101.763 106.939 101.766 106.939 101.769C106.939 101.773 106.939 101.776 106.943 101.779C106.943 101.782 106.946 101.785 106.946 101.792C106.946 101.795 106.949 101.798 106.949 101.804C106.949 101.807 106.952 101.811 106.952 101.814C106.955 101.817 106.955 101.823 106.955 101.826C106.965 101.839 106.968 101.846 106.968 101.849C106.968 101.852 106.971 101.855 106.971 101.855C106.974 101.858 106.978 101.865 106.981 101.868C106.984 101.871 106.984 101.871 106.984 101.874C106.987 101.88 106.993 101.884 106.997 101.887C107.006 101.896 107.013 101.899 107.019 101.903L110.681 104.014C110.729 104.043 110.767 104.021 110.767 103.964V101.316C110.767 101.313 110.767 101.31 110.767 101.31L110.783 101.316Z" fill="white"/>
<path d="M100.355 21.8674L89.7594 15.7603C89.5657 15.6494 89.4068 15.3735 89.4068 15.1515V14.4825C89.4068 14.2574 89.5657 14.1654 89.7594 14.2796L100.355 20.3866C100.549 20.4976 100.708 20.7735 100.708 20.9954V21.6645C100.708 21.8896 100.549 21.9815 100.355 21.8674Z" fill="#0E161F"/>
<path d="M90.0485 14.5232C89.7308 14.3393 89.4736 14.4884 89.4736 14.8562C89.4736 15.2208 89.7308 15.6648 90.0485 15.8487L100.063 21.6228C100.381 21.8067 100.638 21.6577 100.638 21.293C100.638 20.9284 100.381 20.4844 100.063 20.3005L90.0485 14.5264V14.5232ZM100.063 21.7781L90.0485 16.004C89.6546 15.7789 89.337 15.224 89.337 14.7737C89.337 14.3203 89.6546 14.1364 90.0485 14.3647L100.063 20.1388C100.457 20.3639 100.774 20.9188 100.774 21.3691C100.774 21.8225 100.454 22.0064 100.063 21.7781Z" fill="#CED4D9"/>
<path d="M93.2024 99.6417C92.6878 99.3437 92.2686 99.5878 92.2686 100.181V102.404C92.2686 102.997 92.6878 103.723 93.2024 104.021L95.6068 105.406C96.1213 105.704 96.5406 105.463 96.5406 104.867V102.645C96.5406 102.052 96.1213 101.325 95.6068 101.027L93.2024 99.6417ZM95.6068 105.815L93.2024 104.43C92.4909 104.021 91.9129 103.019 91.9129 102.197V99.9747C91.9129 99.1534 92.4909 98.8205 93.2024 99.2295L95.6068 100.615C96.3182 101.024 96.8963 102.026 96.8963 102.847V105.07C96.8963 105.891 96.3182 106.224 95.6068 105.815Z" fill="#A8F6FF"/>
<path d="M98.4558 37.0145C98.4336 38.917 99.7867 39.3387 99.1864 41.108C98.5892 42.8805 97.414 42.5476 97.414 42.5476C97.414 42.5476 97.2806 41.4473 96.8836 40.1885C96.4834 38.9265 96.331 38.4318 96.331 37.2618C96.331 36.0886 96.6645 35.9776 96.62 35.1817C96.6041 34.8964 96.5438 34.5856 96.458 34.3097L97.1155 33.7168C97.8047 34.3732 98.4749 35.632 98.459 37.0208L98.4558 37.0145Z" fill="#633330"/>
<path d="M85.3508 39.6113C85.3 39.7128 84.849 40.0235 84.4361 42.519C84.0232 45.0145 83.4832 47.9126 82.9401 49.2888C82.4001 50.6649 82.3716 50.9217 82 51.4893C81.6252 52.0537 78.5442 58.7981 78.0551 59.7367C77.566 60.6753 75.7206 63.0439 75.4506 63.6876C75.1806 64.3313 74.9202 65.0003 74.8313 65.3998C74.7423 65.7994 74.5772 66.4684 74.5994 66.9377C74.6248 67.407 74.9774 68.3424 74.9774 68.3424C74.9774 68.3424 75.295 68.5104 75.4093 68.149C75.5205 67.7875 75.3363 67.4006 75.3363 67.4006C75.3363 67.4006 75.746 67.4419 75.8095 66.9789C75.8731 66.516 75.9747 65.3967 76.1049 65.1557C76.2351 64.9147 76.8164 64.3693 76.8164 64.3693C76.8164 64.3693 76.7592 64.8037 76.6385 65.2254C76.5178 65.644 76.1145 66.4208 76.1017 66.4304C76.0859 66.4399 76.1494 66.9472 76.702 66.7189C77.2547 66.4906 77.4516 65.5552 77.4516 65.4506C77.4516 65.3459 77.9789 63.8049 78.1536 63.5925C78.3283 63.38 78.738 63.1517 78.8047 62.7712C78.8714 62.3907 78.8777 61.8199 78.9222 61.709C78.9667 61.598 82.0031 57.3047 83.3689 56.0427C84.7347 54.7807 85.9607 51.6035 85.9607 51.6035L87.5583 47.3545C87.5583 47.3545 88.1141 42.0402 88.076 41.9514C88.0379 41.8626 87.1486 40.5753 87.0437 40.5499C86.9421 40.5245 85.354 39.6113 85.354 39.6113H85.3508Z" fill="#F0AB86"/>
<path d="M103.976 79.7285C103.976 79.7285 104.386 79.367 105.177 79.5034C105.971 79.6397 106.695 80.0361 106.676 80.9652C106.654 81.8942 105.961 82.2684 104.996 83.7396C104.033 85.2109 103.43 86.3683 102.966 86.8661C102.502 87.3639 100.279 88.1788 99.5866 88.1788C98.8941 88.1788 98.7576 87.7127 98.8401 86.9454C98.9196 86.1749 99.5707 85.249 99.793 85.0429C100.12 84.7353 100.755 84.2502 101.063 83.9775C101.368 83.7048 101.222 82.5062 101.438 81.9957C101.654 81.4852 103.979 79.7317 103.979 79.7317L103.976 79.7285Z" fill="#131315"/>
<path d="M86.2338 56.7903C86.2338 56.7903 91.5254 59.5394 92.2019 60.0594C92.8784 60.5794 93.8472 64.5747 93.8472 64.5747L95.4511 72.0262C95.4511 72.0262 98.351 72.7809 99.8597 74.0143C101.368 75.251 102.582 78.5772 103.296 79.3857C103.732 79.8772 104.592 79.6394 105.221 79.6394C105.247 79.7282 105.288 79.8138 105.348 79.8899C105.936 80.6636 104.726 82.119 104.163 82.62C103.735 83.0005 103.176 83.3239 102.582 83.3017C102.108 83.2859 101.854 83.0481 101.632 82.7342C101.623 82.6612 101.613 82.5851 101.597 82.5059C101.464 81.7353 100.485 80.4512 98.0906 78.6374C95.6925 76.8237 94.5205 77.312 93.9996 77.0425C93.4787 76.773 90.8266 74.6358 90.4931 73.8907C90.1596 73.1423 87.8632 69.591 86.8309 66.4265C85.7987 63.262 86.2306 56.7871 86.2306 56.7871L86.2338 56.7903Z" fill="#2E7399"/>
<path d="M87.9331 98.9023C87.9331 98.9023 88.3174 99.3399 88.3809 99.5999C88.4445 99.8599 88.4603 100.814 88.2825 101.28C88.1046 101.747 87.1454 102.504 86.7261 102.942C86.3037 103.38 85.9289 104.194 84.8553 104.515C83.7818 104.838 81.3711 105.507 80.504 104.838C79.6337 104.169 80.9867 102.638 81.2662 102.387C81.5457 102.137 83.9438 100.285 84.4901 99.6062C85.0364 98.9277 85.1793 98.4964 85.9861 98.3632C86.7928 98.2301 87.9394 98.8991 87.9394 98.8991L87.9331 98.9023Z" fill="#131315"/>
<path d="M87.7806 62.4062C87.7806 62.4062 87.5932 62.8121 88.0538 63.9695C88.5143 65.1237 88.9908 65.1744 89.0924 66.7218C89.194 68.2691 88.6668 69.788 88.1586 70.2097C88.1586 70.2097 90.8806 68.3992 91.8557 67.765C92.005 67.6667 92.1479 67.5272 92.2845 67.3528C92.6307 65.7103 92.5132 64.4483 92.1384 64.1756C91.627 63.8014 90.5058 63.0372 90.4042 62.9516C90.3025 62.866 87.7838 62.4094 87.7838 62.4094L87.7806 62.4062Z" fill="#28688C"/>
<path d="M88.2698 99.9709C88.2031 100.047 88.1427 100.136 88.0919 100.24C87.7362 100.967 86.58 101.093 85.9225 100.884C85.589 100.779 85.1888 100.599 85.0332 100.259C84.9379 100.05 84.9125 99.7743 84.9157 99.4858C85.0332 99.3272 85.1348 99.1719 85.2079 99.026C85.8654 97.726 86.472 93.7624 86.561 92.1548C86.6499 90.5472 87.3995 85.8733 87.012 83.8662C86.6245 81.859 85.9956 80.5463 86.4053 78.6533C86.8182 76.7603 88.4699 72.3592 89.0606 70.444C89.6546 68.5256 90.671 66.9053 90.6837 66.5312C90.6964 66.157 90.131 66.0682 89.7816 65.2565C89.4323 64.4448 88.3015 61.8986 87.7203 60.0595C87.139 58.2204 86.1131 58.3187 86.1258 56.9933C86.1385 55.6678 86.2179 54.4724 86.0845 53.6068C85.948 52.7221 85.9098 52.5382 85.7447 52.0245C85.57 51.4855 85.1793 50.6262 85.1793 50.6262C85.1793 50.6262 84.3154 50.0808 84.0454 49.2976C83.7754 48.5144 84.3027 47.6424 84.6775 46.8307C85.0523 46.019 86.0941 43.6376 85.9543 42.8037C85.8114 41.9666 85.0014 40.6539 85.0904 40.0895C85.1825 39.5219 86.2942 38.3074 87.7584 38.2853C88.8288 38.2662 93.8567 36.5128 93.8567 36.5128L95.9371 32.416C95.9371 32.416 95.2225 39.0019 95.6481 39.6868C96.0737 40.3717 99.1959 42.1759 99.5929 43.143C99.9899 44.1069 99.1038 47.3349 97.9985 50.9147C96.89 54.4915 96.296 55.6774 96.5279 56.8347C96.7597 57.9921 99.3388 59.6409 99.3388 62.6247C99.3388 65.6116 97.1218 71.427 94.4919 75.9835C91.862 80.54 92.4909 80.9744 92.3607 81.9764C92.2305 82.9815 92.9165 85.5055 92.402 87.8741C91.8875 90.2428 89.4894 93.9717 88.9463 96.521C88.6287 98.0177 88.3015 99.1306 88.2729 99.9773L88.2698 99.9709Z" fill="#3280AD"/>
<path d="M96.1118 40.156L96.0832 41.2055L90.906 43.0415L88.6319 42.0997L87.3741 39.877L87.8791 38.2757C89.1528 38.152 93.8631 36.5095 93.8631 36.5095L95.8355 32.6252L95.9212 32.6094C95.8069 33.7097 95.2701 39.0684 95.6513 39.6835C95.7275 39.8072 95.8958 39.9689 96.115 40.156H96.1118Z" fill="#FCBD93"/>
<path d="M96.0419 40.0237C96.0419 40.0237 95.5528 40.8228 93.3009 41.4379C91.0489 42.0531 90.1533 41.6282 89.3624 40.9306C88.13 39.843 90.4169 37.2334 90.4169 37.2334C90.4169 37.2334 87.0056 38.1561 86.4435 38.5176C85.8813 38.8791 85.246 39.3515 85.0459 40.1474C85.0459 40.1474 85.9353 41.9167 85.5351 43.9239C85.1349 45.9279 83.9755 47.7035 83.9501 48.6104C83.9247 49.5173 84.4806 50.0848 84.7728 50.3385C85.0618 50.5922 85.4144 51.22 85.4144 51.22C85.4144 51.22 86.3355 54.1182 86.1703 55.8209C86.0051 57.5237 85.9162 58.4654 85.9162 58.4654C85.9162 58.4654 86.0433 60.8562 88.7653 61.9248C91.4873 62.9934 96.4771 61.5221 98.2272 59.1059C98.2748 59.0805 96.5596 57.568 96.5946 56.6929C96.6295 55.8177 98.0207 51.3627 98.0207 51.3627L99.7803 43.0836L96.0419 40.0206V40.0237Z" fill="#E34646"/>
<path d="M85.4112 51.2097C85.6049 51.2826 85.8781 51.3334 86.2497 51.2953C87.1581 51.2066 87.2248 50.9782 87.8156 51.1146C88.4063 51.2509 89.2893 52.7666 90.131 53.2422C90.9695 53.7179 92.1511 54.2854 93.8059 53.5815C95.4607 52.8808 96.1531 50.1729 96.1531 50.1729C96.1531 50.1729 95.2002 53.7274 93.9742 54.3869C92.7482 55.0433 92.5354 55.3255 91.0839 54.8499C89.6323 54.3742 88.2698 52.4051 87.6822 52.1102C87.0914 51.8154 86.3418 53.3088 86.3863 54.3489C86.4085 54.8277 86.3069 55.075 86.1735 55.2621C86.1703 54.926 86.1608 54.6152 86.1449 54.3774C86.0591 53.1535 85.6748 51.9168 85.4144 51.2066L85.4112 51.2097Z" fill="#C72E2E"/>
<path d="M97.2521 61.4641C97.6618 61.4482 98.297 62.279 98.297 63.4332C98.297 64.5874 97.1155 68.4146 96.5279 68.868C95.9371 69.3215 94.8032 68.5065 93.2405 68.1419C91.6747 67.7804 92.2432 66.195 92.2432 64.9489C92.2432 63.7027 92.6497 62.7515 94.2378 62.1427C95.8259 61.5307 96.6645 61.4863 97.2552 61.4641H97.2521Z" fill="#408EBD"/>
<path d="M96.7121 47.3926C96.7121 47.3926 96.6613 53.3601 95.9816 54.9899C95.305 56.6102 94.9842 58.4779 95.232 59.1342C95.5496 59.9682 94.5967 61.7629 92.691 62.0102C91.3221 62.1878 90.0897 62.1719 89.5053 62.1497C92.3131 62.7427 96.6232 61.3221 98.2271 59.112C98.2748 59.0867 96.5596 57.5742 96.5946 56.699C96.6295 55.827 98.0207 51.3688 98.0207 51.3688L98.3224 49.9451C97.4871 48.6038 96.7121 47.3926 96.7121 47.3926Z" fill="#C72E2E"/>
<path d="M91.3284 75.7464L102.153 69.5093L107.07 55.2881L91.3284 64.2996V75.7464Z" fill="#FCE4C2"/>
<path d="M93.4819 76.9319L109.223 67.9204V56.4736L93.4819 65.4852V76.9319Z" fill="#EBC38D"/>
<path d="M93.501 76.9319L91.303 75.6889V64.2422L93.501 65.4852V76.9319Z" fill="#D6AA6F"/>
<path d="M109.223 56.474L107.07 55.2881L91.3284 64.2996L93.501 65.4855L109.223 56.474Z" fill="#FFDDB0"/>
<path d="M103.246 70.4352V62.3242L93.6629 67.8478V75.9589L103.246 70.4352Z" fill="#2A3133"/>
<path d="M103.7 70.6889V62.5811L94.114 68.1015V76.2125L103.7 70.6889Z" fill="#485357"/>
<path d="M103.109 70.4442V63.5L94.7047 68.3451V75.2924L103.109 70.4442Z" fill="#E9F3F7"/>
<path d="M95.2669 72.1761V68.6089C95.2669 68.555 95.2288 68.5328 95.1844 68.5613C95.1399 68.5867 95.1018 68.6533 95.1018 68.704V72.2712C95.1018 72.3251 95.1399 72.3442 95.1844 72.3188C95.2288 72.2934 95.2669 72.2268 95.2669 72.1761Z" fill="#7D7D7C"/>
<path d="M95.8609 68.5735V68.2216C95.8609 68.1962 95.8418 68.1835 95.8196 68.1994C95.7973 68.2121 95.7783 68.2438 95.7783 68.2723V68.6243C95.7783 68.6496 95.7973 68.6623 95.8196 68.6496C95.8418 68.637 95.8609 68.6052 95.8609 68.5767V68.5735Z" fill="#7D7D7C"/>
<path d="M95.8672 69.3125V68.9923C95.8672 68.9669 95.8482 68.9542 95.8259 68.9669C95.8037 68.9796 95.7847 69.0145 95.7847 69.0398V69.3601C95.7847 69.3854 95.8037 69.3981 95.8259 69.3854C95.8482 69.3728 95.8672 69.341 95.8672 69.3125Z" fill="#7D7D7C"/>
<path d="M95.8609 72.8604V69.7403C95.8609 69.7149 95.8418 69.7023 95.8196 69.7149C95.7973 69.7276 95.7783 69.7593 95.7783 69.7879V72.908C95.7783 72.9333 95.7973 72.946 95.8196 72.9333C95.8418 72.9207 95.8609 72.889 95.8609 72.8604Z" fill="#7D7D7C"/>
<path d="M96.2674 68.3711V67.997C96.2674 67.9716 96.2484 67.9589 96.2262 67.9748C96.2039 67.9874 96.1849 68.0192 96.1849 68.0477V68.4219C96.1849 68.4472 96.2039 68.4599 96.2262 68.4472C96.2484 68.4345 96.2674 68.4028 96.2674 68.3743V68.3711Z" fill="#7D7D7C"/>
<path d="M96.2897 70.3934V68.7985C96.2897 68.7699 96.2706 68.7604 96.2484 68.7731C96.2261 68.7858 96.2071 68.8175 96.2071 68.846V70.441C96.2071 70.4663 96.2261 70.479 96.2484 70.4663C96.2706 70.4536 96.2897 70.4219 96.2897 70.3934Z" fill="#7D7D7C"/>
<path d="M96.296 72.0331V70.8028C96.296 70.7774 96.277 70.7648 96.2547 70.7774C96.2325 70.7901 96.2134 70.8218 96.2134 70.8504V72.0807C96.2134 72.1092 96.2325 72.1187 96.2547 72.106C96.277 72.0933 96.296 72.0616 96.296 72.0331Z" fill="#7D7D7C"/>
<path d="M97.1218 70.9518V70.546C97.1218 70.5206 97.1028 70.5079 97.0805 70.5206C97.0583 70.5333 97.0392 70.565 97.0392 70.5935V70.9994C97.0392 71.0248 97.0583 71.0375 97.0805 71.0248C97.1028 71.0121 97.1218 70.9804 97.1218 70.9518Z" fill="#7D7D7C"/>
<path d="M97.1345 72.2138V71.5352C97.1345 71.5099 97.1155 71.4972 97.0932 71.5099C97.071 71.5225 97.052 71.5542 97.052 71.5828V72.2613C97.052 72.2867 97.071 72.2994 97.0932 72.2867C97.1155 72.274 97.1345 72.2423 97.1345 72.2138Z" fill="#7D7D7C"/>
<path d="M97.6269 70.6062V70.2637C97.6269 70.2384 97.6078 70.2257 97.5856 70.2384C97.5633 70.2511 97.5443 70.2828 97.5443 70.3113V70.6538C97.5443 70.6791 97.5633 70.6918 97.5856 70.6791C97.6078 70.6664 97.6269 70.6347 97.6269 70.6062Z" fill="#7D7D7C"/>
<path d="M97.6332 71.9029V71.0468C97.6332 71.0214 97.6142 71.0087 97.5919 71.0246C97.5697 71.0373 97.5506 71.069 97.5506 71.0975V71.9505C97.5506 71.9758 97.5697 71.9885 97.5919 71.9758C97.6142 71.9631 97.6332 71.9314 97.6332 71.9029Z" fill="#7D7D7C"/>
<path d="M97.6205 73.4442V72.1822C97.6205 72.1537 97.6014 72.1442 97.5792 72.1569C97.557 72.1696 97.5379 72.2013 97.5379 72.2298V73.4918C97.5379 73.5172 97.557 73.5299 97.5792 73.5172C97.6014 73.5045 97.6205 73.4728 97.6205 73.4442Z" fill="#7D7D7C"/>
<path d="M98.2494 70.2285V69.9083C98.2494 69.8829 98.2303 69.8702 98.2081 69.8829C98.1859 69.8956 98.1668 69.9273 98.1668 69.9558V70.2761C98.1668 70.3015 98.1859 70.3141 98.2081 70.3015C98.2303 70.2888 98.2494 70.2571 98.2494 70.2285Z" fill="#7D7D7C"/>
<path d="M98.2557 71.3508V70.463C98.2557 70.4376 98.2367 70.4249 98.2144 70.4376C98.1922 70.4503 98.1732 70.482 98.1732 70.5105V71.3984C98.1732 71.4237 98.1922 71.4364 98.2144 71.4237C98.2367 71.411 98.2557 71.3793 98.2557 71.3508Z" fill="#7D7D7C"/>
<path d="M98.8465 70.6536V69.6231C98.8465 69.5977 98.8274 69.5851 98.8052 69.5977C98.783 69.6104 98.7639 69.6421 98.7639 69.6707V70.7012C98.7639 70.7266 98.783 70.7393 98.8052 70.7266C98.8274 70.7139 98.8465 70.6822 98.8465 70.6536Z" fill="#7D7D7C"/>
<path d="M98.837 72.398V71.0821C98.837 71.0567 98.8179 71.0441 98.7957 71.0567C98.7735 71.0694 98.7544 71.1011 98.7544 71.1297V72.4456C98.7544 72.4709 98.7735 72.4836 98.7957 72.4678C98.8179 72.4551 98.837 72.4234 98.837 72.3948V72.398Z" fill="#7D7D7C"/>
<path d="M99.0053 68.2693V66.1797L97.1758 67.2324V69.3252L99.0053 68.2693Z" fill="#F7BF05"/>
<path d="M102.356 65.4123V64.7401C102.356 64.7148 102.337 64.7021 102.315 64.7179C102.293 64.7306 102.274 64.7623 102.274 64.7909V65.4599C102.274 65.4853 102.293 65.498 102.315 65.4853C102.337 65.4726 102.356 65.4409 102.356 65.4123Z" fill="#7D7D7C"/>
<path d="M102.62 65.7389V65.0508C102.62 65.0255 102.601 65.0128 102.579 65.0255C102.556 65.0382 102.537 65.073 102.537 65.0984V65.7865C102.537 65.8119 102.556 65.8245 102.579 65.8119C102.601 65.7992 102.62 65.7675 102.62 65.7389Z" fill="#7D7D7C"/>
<path d="M102.62 66.7156V66.1259C102.62 66.1005 102.601 66.0878 102.579 66.1037C102.556 66.1164 102.537 66.1481 102.537 66.1766V66.7664C102.537 66.7917 102.556 66.8044 102.579 66.7917C102.601 66.7791 102.62 66.7474 102.62 66.7188V66.7156Z" fill="#7D7D7C"/>
<path d="M102.258 70.3871V68.6622C102.258 68.6368 102.239 68.6241 102.216 68.6368C102.194 68.6495 102.175 68.6812 102.175 68.7097V70.4347C102.175 70.46 102.194 70.4727 102.216 70.46C102.239 70.4474 102.258 70.4157 102.258 70.3871Z" fill="#7D7D7C"/>
<path d="M102.48 70.2573V69.585C102.48 69.5597 102.461 69.547 102.439 69.5597C102.417 69.5723 102.398 69.6041 102.398 69.6326V70.3016C102.398 70.327 102.417 70.3397 102.439 70.327C102.461 70.3143 102.48 70.2826 102.48 70.2541V70.2573Z" fill="#7D7D7C"/>
<path d="M103.7 62.5811L103.246 62.3242L93.6598 67.8478L94.114 68.1015L103.7 62.5811Z" fill="#5F6A6E"/>
<path d="M99.3452 42.7601C99.3452 42.7601 100.53 43.5973 100.854 45.2556C101.178 46.914 101.549 52.6025 101.886 53.9945C102.22 55.3833 102.594 55.5545 102.763 57.1368C102.931 58.719 102.706 65.1527 102.718 65.8756C102.731 66.5986 103.442 68.6818 103.477 69.316C103.512 69.9502 103.433 70.6065 103.322 70.9553C103.211 71.3041 102.995 71.6497 102.925 71.7354C102.855 71.8241 102.617 71.7227 102.617 71.7227C102.617 71.7227 102.388 72.1571 102.223 72.379C102.058 72.601 101.946 72.7786 101.797 72.8134C101.648 72.8483 101.505 72.7849 101.505 72.7849C101.505 72.7849 101.232 73.4983 101.025 73.5966C100.819 73.6981 100.66 73.641 100.619 73.5491C100.578 73.4571 100.568 73.3557 100.717 73.0703C100.867 72.7817 101.054 72.1127 101.117 71.8971C101.181 71.6815 101.343 70.5685 101.273 70.5051C101.203 70.4385 101.21 70.5178 101.14 70.5843C101.07 70.6509 100.711 72.0556 100.597 72.1856C100.482 72.3156 99.9868 73.3969 99.8978 73.4127C99.8089 73.4286 99.774 73.3271 99.7327 73.2288C99.6914 73.1305 99.8756 72.2839 100.073 71.84C100.181 71.5958 100.101 71.2946 100.187 70.8983C100.295 70.3941 99.9359 69.0021 99.8692 68.8721C99.8025 68.7421 99.6977 68.6628 99.6977 68.6628C99.6977 68.6628 99.5008 68.9418 99.2467 69.7536C99.0466 70.3909 98.3732 70.1912 98.3097 70.2007C98.2462 70.2102 98.7067 69.2875 98.7989 68.9387C98.891 68.5899 99.1737 67.6228 99.396 67.3089C99.6183 66.9949 100.012 65.9993 100.12 65.7393C100.228 65.4824 100.352 64.6992 99.6818 62.1245C99.0117 59.5498 99.2467 59.3912 99.1197 57.9263C98.9894 56.4582 97.2108 50.4621 96.8773 48.8926C96.5438 47.323 96.2579 44.7229 97.1091 43.7463C97.9603 42.7697 98.7067 42.6397 99.3515 42.7697L99.3452 42.7601Z" fill="#FFC59E"/>
<path d="M101.518 72.7878C101.518 72.7878 101.597 72.6482 101.705 72.4326C101.759 72.3248 101.823 72.198 101.883 72.0616C101.943 71.9253 102.01 71.7794 102.067 71.6272C102.128 71.475 102.159 71.3133 102.185 71.1643C102.207 71.0152 102.22 70.8757 102.232 70.7552C102.251 70.5143 102.258 70.3557 102.258 70.3557L102.223 70.3525C102.223 70.3525 102.204 70.5111 102.169 70.7489C102.153 70.8662 102.131 71.0057 102.105 71.1516C102.08 71.3006 102.048 71.4497 101.988 71.5987C101.877 71.8936 101.743 72.1853 101.651 72.4073C101.556 72.626 101.492 72.7751 101.492 72.7751L101.524 72.7909L101.518 72.7878Z" fill="#EBA576"/>
<path d="M102.626 71.7258C102.626 71.7258 102.674 71.6338 102.728 71.488C102.785 71.3421 102.852 71.1455 102.893 70.9394C102.915 70.8379 102.931 70.7301 102.937 70.6318C102.944 70.5335 102.947 70.4416 102.947 70.3655C102.944 70.2101 102.931 70.1055 102.931 70.1055L102.896 70.1086C102.896 70.1086 102.89 70.2101 102.877 70.3655C102.871 70.4416 102.864 70.5335 102.849 70.6255C102.836 70.7206 102.82 70.8189 102.795 70.9172C102.741 71.117 102.69 71.3136 102.648 71.4626C102.607 71.6116 102.588 71.7131 102.588 71.7131L102.623 71.7258H102.626Z" fill="#EBA576"/>
<path d="M94.4125 35.8027C94.4125 35.8027 94.1521 36.8649 93.3866 37.4452C92.6243 38.0255 90.671 38.8626 89.9627 38.9323C89.2576 38.9989 88.9463 38.8245 88.7462 38.536C88.5429 38.2474 88.4667 37.9969 88.273 37.6196C88.0792 37.2423 87.914 36.8174 87.8187 36.6271C87.7203 36.4337 87.6377 36.1578 87.5488 35.7773C87.5011 35.5776 87.4027 33.7004 87.355 33.2375C87.3074 32.7746 87.1899 32.5241 87.1899 32.3021C87.1899 32.0801 87.3836 31.3667 87.3931 31.1352C87.4027 30.9038 87.6536 28.2973 89.9246 27.0131C92.1956 25.7289 93.5994 25.8336 94.4888 26.0397C95.3781 26.2426 96.8169 27.2351 97.3124 28.4337C97.8047 29.6291 97.7571 30.7896 97.3124 31.8994C96.8677 33.0092 95.7561 34.0239 95.2923 34.5819C94.8286 35.1432 94.4125 35.8091 94.4125 35.8091V35.8027Z" fill="#FFCBA8"/>
<path d="M95.6608 32.0137C95.6608 32.0137 95.5274 33.0537 96.3691 33.2535C96.5978 33.3074 96.855 33.4691 97.1091 33.7132L96.4517 34.3062C96.2992 33.8147 96.0578 33.4247 95.8164 33.4532C95.4385 33.4976 94.5968 34.1159 94.4856 34.1159C94.3744 34.1159 94.1076 34.005 94.0409 33.9606C93.9742 33.9162 93.9965 33.4723 93.9298 33.2979C93.8631 33.1203 93.5518 32.743 93.5518 32.743L95.6576 32.0137H95.6608Z" fill="#633330"/>
<path d="M94.5618 34.0081C94.5618 34.0081 95.0065 32.6859 96.0705 33.1013C97.1345 33.5166 96.5819 34.3379 96.2071 34.7311C95.8291 35.1274 95.0764 36.0438 94.6126 36.0628C94.1489 36.0819 94.0028 36.0914 94.1013 35.8219C94.1997 35.5523 94.6921 35.454 94.6222 34.953C94.5555 34.452 94.565 34.0081 94.565 34.0081H94.5618Z" fill="#F5A97F"/>
<path d="M92.9515 32.3947C92.9515 32.3947 94.6634 32.845 95.7402 33.0289C96.7026 33.1938 96.7852 33.5013 96.7852 33.5013C96.7852 33.5013 97.5506 32.2108 97.6777 30.0768C97.8301 27.5021 95.2796 25.8501 93.736 25.7074C92.1924 25.5647 88.5429 26.0689 87.5932 29.9214L92.9515 32.3947Z" fill="#F75B5B"/>
<path d="M93.8345 32.6666C93.8345 32.6666 90.4518 28.6079 87.6631 29.8509L84.5187 32.2861C84.5187 32.2861 85.1539 31.2524 86.6975 31.3983C87.86 31.5092 90.1469 33.5957 90.4359 34.5881L93.8345 32.6666Z" fill="#E34646"/>
<path d="M87.6631 29.8516L84.8935 31.8936L86.1767 31.1865L87.6631 29.8516Z" fill="#E34646"/>
<path d="M24.2312 72.4131C24.1741 72.4575 23.4022 72.4956 23.1799 72.5305C22.9607 72.5622 21.9984 72.4829 21.6934 72.1626C21.3885 71.8424 21.1725 71.5665 20.9089 71.2558C20.7374 71.0528 20.5595 70.555 20.5024 70.7421C20.4452 70.926 20.8803 71.3858 20.8708 71.7853C20.8613 72.1848 20.5405 72.2514 20.5405 72.2514C20.5405 72.2514 20.2387 71.3477 19.9688 70.8436C19.6988 70.3394 19.7115 69.8669 19.7115 69.6545C19.7115 69.4389 19.6416 68.8206 19.6416 68.8206L20.6612 68.0469C21.1757 68.7349 22.2779 69.3342 22.4684 69.683C22.659 70.0318 22.7416 70.4187 23.0624 70.8277C23.38 71.2367 24.3964 71.6236 24.4663 71.836C24.5361 72.0517 24.2852 72.3719 24.2281 72.4163L24.2312 72.4131Z" fill="#FFC2B2"/>
<path d="M6.45086 49.8215L13.1304 58.3257C13.1431 58.3447 13.159 58.3606 13.1781 58.3733L21.0677 68.0063L19.108 69.8517L10.7356 61.8232C10.707 61.8073 10.6816 61.7883 10.6625 61.7629L3.12538 52.2218C2.54413 51.4862 2.57272 50.4398 3.19208 49.7359C4.06871 48.7402 5.63458 48.7878 6.45086 49.8278V49.8215Z" fill="#EBBDA4"/>
<path d="M2.3091 85.3251C2.3091 85.3251 1.83267 82.836 1.57222 82.1131C1.31494 81.3901 -0.196927 78.53 0.57489 75.708C1.34671 72.8859 4.73889 72.5371 4.73889 72.5371C4.73889 72.5371 7.27985 75.9109 7.26714 76.1963C7.25444 76.4816 4.31645 82.5506 4.31645 82.5506L2.3091 85.3251Z" fill="#35383B"/>
<path d="M4.86911 117.104C4.86911 117.104 4.38951 117.364 4.35774 117.7C4.32916 118.033 4.37998 118.42 4.37998 118.42C4.37998 118.42 4.3101 118.594 4.00836 118.654C3.70662 118.715 3.78603 118.391 3.59546 118.176C3.40488 117.96 2.95704 117.789 2.74741 117.548C2.54096 117.307 2.51237 116.999 2.51237 116.999C2.51237 116.999 4.26563 116.584 4.86911 117.107V117.104Z" fill="#0D161C"/>
<path d="M2.5219 116.152C2.80141 116.2 3.03962 115.981 3.09362 115.724C3.11903 115.601 3.13808 115.477 3.16032 115.353C3.16985 115.293 3.17937 115.236 3.19208 115.179C3.19843 115.15 3.20478 115.122 3.21114 115.093C3.21114 115.087 3.21749 115.065 3.22384 115.049C3.23019 115.033 3.23655 115.011 3.23655 115.008C3.24607 114.979 3.25878 114.954 3.26831 114.925C3.28101 114.9 3.29372 114.875 3.30642 114.846C3.34771 114.795 3.38265 114.745 3.42394 114.697C3.42712 114.694 3.43029 114.691 3.43347 114.687C3.46206 114.662 3.48747 114.643 3.51287 114.621C3.56687 114.58 3.62087 114.538 3.68121 114.504C3.68757 114.5 3.70027 114.494 3.71298 114.488C3.74156 114.475 3.77332 114.459 3.80191 114.446C3.83049 114.434 3.86226 114.421 3.89402 114.412C3.8972 114.412 3.90037 114.408 3.90355 114.408C3.93213 114.405 3.96072 114.402 3.98613 114.396C3.99248 114.396 3.99883 114.393 4.00201 114.393C4.04965 114.399 4.0973 114.402 4.14494 114.412C4.15129 114.415 4.15447 114.415 4.15764 114.418C4.17988 114.427 4.20211 114.434 4.22117 114.443C4.33869 114.491 4.44985 114.551 4.55784 114.611C4.71348 114.697 4.88817 114.662 5.02792 114.57C5.04698 114.583 5.06921 114.596 5.09145 114.608C5.43765 114.786 5.80927 114.9 6.18723 114.992C6.44768 115.055 6.68907 114.843 6.75577 114.608C6.90188 114.611 7.02575 114.605 7.15915 114.586C7.47995 114.542 8.14695 114.424 8.50586 114.443C8.86477 114.462 9.14745 114.57 9.2745 114.64C9.40155 114.71 9.41743 115.014 9.12204 115.623C8.82666 116.229 8.31846 116.609 7.74675 116.828C7.17503 117.043 6.77166 117.123 6.40322 117.129C6.03478 117.135 5.6854 116.783 5.10733 116.99C4.52926 117.196 4.46573 117.38 3.9766 117.563C3.48747 117.744 2.81729 117.598 2.74741 117.557C2.67436 117.516 2.43297 117.037 2.45202 116.647C2.46473 116.454 2.49331 116.289 2.51872 116.162L2.5219 116.152Z" fill="#273945"/>
<path d="M6.88282 114.601C6.93047 114.642 6.97176 114.668 7.00352 114.674C7.21633 114.712 7.71499 114.658 7.85792 114.896C7.99767 115.134 7.71499 115.318 7.45454 115.448C7.19409 115.578 6.30476 115.831 5.97761 115.87C5.65046 115.908 5.18991 115.984 4.29422 116.126C3.39853 116.272 2.8554 116.447 2.58225 116.241L2.51873 116.19C2.55049 116.041 2.57907 115.936 2.5759 115.889C2.57272 115.806 2.77917 115.067 2.48379 114.141C2.54096 114.11 2.60131 114.078 2.66801 114.046C3.05868 113.872 3.55417 113.755 4.05283 113.682C4.42445 113.818 4.7103 113.951 4.7103 113.951C4.7103 113.951 5.16768 114.459 5.87597 114.531C6.38098 114.582 6.65096 114.608 6.88282 114.601Z" fill="#F7BC92"/>
<path d="M2.89987 67.1621C2.79823 67.308 2.69659 67.457 2.59495 67.5997C2.60131 67.7963 2.5886 67.9865 2.57272 68.1831C2.69342 68.1546 2.81094 68.1197 2.92845 68.0848C3.42394 67.9231 3.79873 68.6524 3.40488 68.9758C2.73471 69.5276 2.01689 70.0159 1.27048 70.4598C1.42611 71.0337 1.65162 71.633 1.98195 72.2228C3.43665 74.8165 1.15296 72.5462 1.0545 78.5011C0.965563 83.9581 2.08041 96.0327 1.92478 96.8951C1.76914 97.7576 1.07991 99.5904 1.07355 103.002C1.07038 105.761 2.03594 112.905 2.35039 114.953C2.42979 115.464 2.88081 115.841 3.39853 115.806C3.84638 115.778 4.37045 115.635 4.78336 115.194C4.91676 115.055 4.98981 114.868 5.00251 114.677C5.12638 112.921 5.69175 101.487 6.02525 100.088C6.39369 98.5535 8.3534 90.7849 9.2618 86.4789C10.0971 82.5122 9.54448 69.3595 2.89987 67.1716V67.1621Z" fill="#35383B"/>
<path d="M7.23538 84.8944C7.23538 84.8944 3.42077 80.2713 2.83317 77.2146C2.24875 74.1579 2.74741 69.8994 2.74741 69.8994C2.74741 69.8994 9.2618 71.7448 9.61118 72.0271C9.96056 72.3061 10.8118 77.2463 10.8118 77.2463C10.8118 77.2463 9.16969 90.4148 7.23538 84.8912V84.8944Z" fill="#4C5054"/>
<path d="M19.8354 113.546C19.8354 113.546 19.3272 113.752 19.2636 114.082C19.1969 114.411 19.2065 114.801 19.2065 114.801C19.2065 114.801 19.1175 114.966 18.8095 114.992C18.5014 115.017 18.6189 114.706 18.4505 114.468C18.2822 114.231 17.8566 114.012 17.6787 113.752C17.4977 113.489 17.504 113.178 17.504 113.178C17.504 113.178 19.2922 112.959 19.8354 113.543V113.546Z" fill="#0D161C"/>
<path d="M17.6057 112.341C17.8756 112.421 18.1361 112.227 18.2219 111.977C18.2631 111.856 18.2949 111.736 18.3298 111.615C18.3457 111.558 18.3648 111.501 18.3807 111.444C18.3902 111.415 18.3997 111.387 18.4093 111.358C18.4124 111.355 18.4188 111.333 18.4251 111.317C18.4315 111.301 18.441 111.282 18.4442 111.276C18.4569 111.25 18.4728 111.222 18.4855 111.197C18.5014 111.171 18.5172 111.149 18.5331 111.12C18.5808 111.076 18.6221 111.029 18.6665 110.987C18.6697 110.984 18.6729 110.981 18.6761 110.978C18.7046 110.956 18.7332 110.937 18.7618 110.921C18.819 110.883 18.8793 110.851 18.9397 110.819C18.9492 110.816 18.9619 110.81 18.9714 110.807C19.0032 110.794 19.035 110.784 19.0667 110.775C19.0985 110.765 19.1302 110.756 19.162 110.75C19.1652 110.75 19.1684 110.746 19.1715 110.746C19.2001 110.746 19.2287 110.746 19.2573 110.743C19.2636 110.743 19.27 110.743 19.2732 110.743C19.3208 110.753 19.3653 110.765 19.4129 110.778C19.4193 110.781 19.4225 110.781 19.4256 110.784C19.4447 110.797 19.4669 110.807 19.486 110.816C19.5971 110.876 19.6988 110.949 19.8036 111.022C19.9465 111.124 20.1276 111.111 20.2769 111.032C20.2959 111.048 20.315 111.063 20.334 111.076C20.658 111.292 21.0137 111.444 21.379 111.577C21.6331 111.669 21.8935 111.485 21.9857 111.257C22.1318 111.276 22.2525 111.282 22.3859 111.279C22.7098 111.27 23.3864 111.228 23.7421 111.285C24.0978 111.342 24.3678 111.479 24.4853 111.564C24.6028 111.647 24.587 111.954 24.2249 112.525C23.8628 113.096 23.3197 113.419 22.7289 113.572C22.1381 113.724 21.7284 113.759 21.3631 113.724C20.9979 113.689 20.6866 113.302 20.0895 113.442C19.4923 113.581 19.4098 113.759 18.9047 113.885C18.3997 114.012 17.7486 113.794 17.6819 113.743C17.6152 113.695 17.4278 113.191 17.4913 112.807C17.5231 112.617 17.5707 112.455 17.612 112.332L17.6057 112.341Z" fill="#273945"/>
<path d="M22.1095 111.278C22.1508 111.323 22.1889 111.354 22.2207 111.364C22.4271 111.424 22.9322 111.424 23.0433 111.674C23.1545 111.925 22.8528 112.08 22.5796 112.179C22.3064 112.277 21.3949 112.432 21.0677 112.435C20.7374 112.439 20.2705 112.461 19.3653 112.505C18.4569 112.55 17.9011 112.664 17.6501 112.429L17.593 112.372C17.6406 112.226 17.6819 112.125 17.6851 112.077C17.6914 111.998 17.9805 111.284 17.7867 110.33C17.8439 110.305 17.9106 110.279 17.9805 110.257C18.387 110.127 18.892 110.064 19.397 110.048C19.7528 110.225 20.0228 110.39 20.0228 110.39C20.0228 110.39 20.4198 110.942 21.1185 111.094C21.614 111.199 21.8808 111.256 22.1127 111.275L22.1095 111.278Z" fill="#F7BC92"/>
<path d="M5.45036 71.1548C5.45036 71.1548 5.31696 73.9736 7.13057 76.3327C8.94418 78.6919 7.03211 78.2923 7.79757 84.1965C8.49951 89.6091 15.2172 97.5901 15.1854 98.4653C15.1568 99.3404 14.7376 101.256 15.2267 104.629C15.6205 107.359 16.8529 108.755 17.4596 110.736C17.612 111.231 18.1139 111.539 18.6221 111.431C19.0604 111.339 19.559 111.12 19.9021 110.629C20.0132 110.47 20.0577 110.277 20.0418 110.086C19.9116 108.33 19.5781 102.47 19.7051 101.037C19.8481 99.4641 18.4188 93.4046 17.5009 89.1683C16.5671 84.8687 15.0012 67.0231 5.44718 71.1579L5.45036 71.1548Z" fill="#4C5054"/>
<path d="M6.08242 49.1772C6.08242 49.1772 7.31161 47.7884 7.62605 46.3647C7.93732 44.941 7.08292 43.2572 7.17186 42.4835C7.26079 41.7099 7.43866 39.6044 8.62656 38.2949C9.81446 36.9853 12.5047 36.5065 14.0642 36.9853C15.6237 37.4609 17.1419 39.0337 17.3548 40.2354C17.5676 41.4372 17.3293 42.4867 17.3293 42.566C17.3262 42.6453 16.9037 43.2667 16.8688 43.625C16.8339 43.9834 16.8593 44.3829 16.4654 45.3024C16.0716 46.2251 14.9599 47.6774 14.6232 48.0833C14.2897 48.4891 13.3083 48.0547 13.0828 48.2038C12.8573 48.356 12.2538 49.507 12.2093 50.2236C12.1617 50.9402 12.6445 51.3556 12.6445 51.3556C12.6445 51.3556 7.08292 51.6853 6.07924 49.1772H6.08242Z" fill="#FFC2B2"/>
<path d="M6.23488 48.293C6.23488 48.293 4.21799 48.8669 3.53829 49.2284C2.86175 49.5867 1.43246 51.505 1.26413 52.4436C1.09579 53.3822 1.20695 56.2201 2.055 58.4302C2.90304 60.6402 3.63357 63.3545 3.41124 64.9653C3.1889 66.5792 1.62621 67.131 0.905215 70.7711C0.184218 74.4112 -0.0508208 74.9915 0.00635083 77.0367C0.00635083 77.0367 2.78553 79.5322 6.16818 80.8798C9.55083 82.2274 10.4211 82.4462 12.5301 82.2337C14.6423 82.0213 16.0493 80.7149 16.2717 80.4295C16.494 80.1473 16.1891 77.8675 15.8746 74.9313C15.7508 73.7644 14.7662 71.3863 14.7407 69.6613C14.6995 67.0517 15.6301 64.9811 15.9096 63.9696C16.3733 62.2859 17.3802 62.0418 17.7677 60.6593C18.0059 59.8158 17.9519 57.7484 16.818 56.7496C15.6841 55.7508 15.7984 53.4646 15.7984 53.4646L11.6567 51.616C11.6567 51.616 8.941 51.6731 8.82031 51.6699C8.69961 51.6636 6.42228 50.7028 6.1523 50.4143C5.8855 50.1257 5.6314 49.4503 6.2317 48.293H6.23488Z" fill="#D49877"/>
<path d="M15.0997 43.9865C15.0997 43.9865 15.1791 43.3269 14.9948 43.2128C14.8138 43.0986 13.6926 43.5774 13.61 44.6365C13.5306 45.6956 13.7498 45.889 14.0801 45.9682C14.4104 46.0475 14.5661 45.7621 14.5978 45.6575C14.6296 45.5529 14.5057 45.2675 14.5946 45.0075C14.6836 44.7443 15.16 44.4589 15.0997 43.9896V43.9865Z" fill="#F7AB97"/>
<path d="M6.83518 48.2489C6.83518 48.2489 6.21582 47.9667 5.74257 48.3979C5.26614 48.8292 4.78336 49.7075 4.68489 50.1894C4.58643 50.6746 5.86009 51.8573 6.98129 52.2981C8.10248 52.7388 10.6117 52.9132 11.7138 52.7547C12.8191 52.5961 15.7984 53.4649 15.7984 53.4649C15.7984 53.4649 14.493 51.5846 12.9843 51.3468C11.4756 51.1122 10.2687 51.4261 8.39787 50.6968C6.53027 49.9675 6.13006 49.457 6.10465 49.0162C6.08242 48.5787 6.832 48.2457 6.832 48.2457L6.83518 48.2489Z" fill="#FAF0E1"/>
<path d="M26.4514 81.8529C26.5054 81.8085 26.7277 81.0666 26.8103 80.8605C26.8929 80.6544 27.0422 79.6999 26.8008 79.3321C26.5594 78.9611 26.3434 78.6853 26.102 78.3587C25.9432 78.143 25.5017 77.8545 25.6955 77.8418C25.8892 77.8291 26.2322 78.3618 26.6261 78.4443C27.0168 78.5267 27.1565 78.2318 27.1565 78.2318C27.1565 78.2318 26.3466 77.7277 25.9178 77.3472C25.489 76.9667 25.0285 76.8715 24.8188 76.8208C24.6092 76.7701 24.0216 76.5576 24.0216 76.5576L23.0274 77.3662C23.5769 78.0257 23.9009 79.237 24.1963 79.5002C24.4917 79.7665 24.8474 79.9377 25.1714 80.3436C25.4954 80.7495 25.6319 81.8244 25.8257 81.9449C26.0194 82.0654 26.391 81.8973 26.4482 81.8498L26.4514 81.8529Z" fill="#FFC2B2"/>
<path d="M17.1547 55.0305L19.2795 65.6243C19.2827 65.6465 19.2922 65.6687 19.3018 65.6877L25.1904 76.5986C25.2508 76.7096 25.2095 76.8491 25.0983 76.9093L23.1323 77.9906C23.0306 78.0477 22.9004 78.0159 22.8337 77.9208L15.5634 67.6663C15.5443 67.6409 15.5316 67.6124 15.5253 67.5807L13.105 55.6741C12.9176 54.7546 13.4163 53.8319 14.2865 53.4831C15.5189 52.9884 16.8942 53.7336 17.1547 55.0305Z" fill="#EBBDA4"/>
<path d="M8.77901 47.5537C8.98864 47.6107 9.20145 47.5378 9.36661 47.4015C10.2528 46.6975 12.8033 45.6924 14.8805 45.0075C16.9577 44.3194 18.8889 41.8556 18.2854 39.9975C17.6819 38.1394 15.4999 36.7125 15.4999 36.7125C13.0986 34.9876 7.59429 36.3542 6.61602 40.3558C5.67904 44.1926 7.51489 45.8255 7.59112 47.2746C7.99132 47.3539 8.38834 47.449 8.77901 47.5568V47.5537Z" fill="#703A3A"/>
<path d="M7.04481 45.7213C7.04481 45.7213 5.79021 45.7055 5.23438 46.6313C4.67854 47.5572 5.83785 50.1098 8.65197 50.2461C11.4629 50.3825 11.4502 48.3309 11.2247 47.8046C10.9992 47.275 10.0209 47.2084 10.005 46.8406C9.98915 46.4728 8.94735 44.843 7.04481 45.7213Z" fill="#854545"/>
<path d="M27.8457 115.823C27.4551 115.975 27.1978 116.352 27.201 116.771C27.2041 117.196 27.2137 117.687 27.2486 117.833C27.3121 118.109 27.8457 118.118 28.1189 118.055C28.3952 117.992 29.0336 117.681 29.6212 117.513C30.2247 117.345 30.6408 117.357 31.3586 117.021C32.0733 116.688 32.321 116.254 32.3718 115.981C32.4226 115.705 32.2988 115.315 31.7683 115.306C31.2379 115.293 30.7647 115.341 30.482 115.315C30.1993 115.29 28.6112 115.528 28.6112 115.528L27.8457 115.823Z" fill="#0B1216"/>
<path d="M28.8431 100.298C28.8431 100.298 29.0305 108.079 29.0622 109.503C29.0908 110.926 28.9225 116.364 28.9225 116.364L27.5313 116.938C27.5313 116.938 25.9813 112.829 25.832 111.408C25.6827 109.988 26.1306 108.114 26.1306 108.114L25.67 99.9141L28.8399 100.298H28.8431Z" fill="#FFC2B2"/>
<path d="M32.2067 117.712C31.816 117.864 31.5587 118.242 31.5619 118.66C31.5651 119.085 31.5746 119.577 31.6095 119.722C31.6731 119.998 32.2067 120.008 32.4798 119.944C32.7561 119.881 33.4771 119.691 34.1029 119.726C34.7286 119.76 35.1637 119.735 35.8783 119.399C36.593 119.066 36.8407 118.635 36.8916 118.359C36.9424 118.083 36.8185 117.693 36.2881 117.68C35.7577 117.668 35.2844 117.715 35.0017 117.69C34.719 117.665 32.969 117.414 32.969 117.414L32.2035 117.712H32.2067Z" fill="#0B1216"/>
<path d="M31.7398 117.499C31.7398 117.499 31.762 118.264 31.9081 118.625C32.0542 118.987 32.3909 118.983 32.6672 119.018C32.9435 119.053 33.7439 118.838 34.2077 118.844C34.6714 118.85 35.3066 118.628 35.313 118.292C35.3162 117.959 34.8747 117.779 34.3379 117.712C33.8011 117.642 33.6518 117.579 33.5375 117.506C33.42 117.433 31.7429 117.499 31.7429 117.499H31.7398Z" fill="#FFC2B2"/>
<path d="M33.3787 101.763C33.3787 101.763 33.5693 109.544 33.5978 110.968C33.6264 112.392 33.4581 117.83 33.4581 117.83L32.0669 118.403C32.0669 118.403 30.5169 114.294 30.3676 112.873C30.2184 111.453 30.6662 109.579 30.6662 109.579L30.2057 101.376L33.3755 101.76L33.3787 101.763Z" fill="#FFC2B2"/>
<path d="M23.326 94.5303L21.3758 103.51C21.3758 103.51 21.5886 108.342 28.3317 108.774C34.5952 109.173 36.9297 104.484 36.9297 104.484L33.0896 95.3801C33.0896 95.3801 26.2672 96.2394 23.326 94.5303Z" fill="#F7C808"/>
<path d="M27.9601 94.7645L28.7001 95.2116L28.9288 95.0848L28.1888 94.6377L27.9601 94.7645Z" fill="#5A6469"/>
<path d="M22.8369 85.725C22.5955 89.029 23.0751 90.3132 23.3165 94.5367C23.3514 95.1551 23.3578 96.5597 23.7453 97.0449C24.0184 97.3873 24.4313 97.7583 24.9586 98.1515C28.5096 100.818 33.5534 98.012 33.1786 93.5918C33.0674 92.2759 32.915 91.3976 32.988 90.8427C33.0484 90.3702 33.1436 89.8946 33.2453 89.4634C33.5311 88.2648 33.1849 87.0028 32.321 86.1181L30.3962 84.1459C29.5736 83.3056 28.5382 82.7095 27.3979 82.4241C25.1809 81.8692 23.002 83.4483 22.8369 85.725Z" fill="#CC3186"/>
<path d="M32.0288 74.2458C30.3835 72.8284 28.0554 73.5355 27.039 74.1063C26.0258 74.677 24.5298 76.5668 25.0126 78.5391C25.3556 79.9501 26.1973 81.0885 26.2068 81.136C26.2195 81.1836 26.5848 82.0809 26.4673 82.7119C26.3752 83.2034 26.6833 83.6822 27.1724 83.7964L28.3857 84.0849C28.9669 84.2244 29.5609 83.9264 29.7991 83.381C29.9007 83.1463 30.0024 82.9656 30.0723 82.8927C30.3041 82.6485 31.0918 82.6232 31.3745 82.5249C31.654 82.4234 32.2575 81.6592 32.4862 81.2565C32.7149 80.857 33.0166 79.5887 33.1309 79.0496C33.2485 78.5137 33.6772 75.66 32.0288 74.2426V74.2458Z" fill="#FFC2B2"/>
<path d="M32.5846 74.8806C32.5846 74.8806 33.4803 75.2992 33.2485 76.1141C33.0198 76.9321 31.6286 77.3 31.4348 77.6932C31.2411 78.0863 31.0632 78.8537 30.7297 79.5608C30.3962 80.2711 28.7414 81.7455 27.9093 82.0721C27.0771 82.3987 26.2703 81.717 26.0385 81.3682C25.8066 81.0162 24.8379 79.0852 24.3614 77.8295C23.885 76.5707 25.4477 74.3764 26.8706 73.6915C28.2936 73.0066 31.1839 72.1917 32.5846 74.8774V74.8806Z" fill="#542B20"/>
<path d="M40.7665 93.3097C40.7665 93.3097 41.208 93.1385 41.4526 92.9927C41.694 92.8468 41.7924 92.1016 41.8528 91.9653C41.9131 91.829 42.5325 91.4072 42.5325 91.4072C42.5325 91.4072 42.7675 91.5721 42.7548 91.6894C42.7421 91.8068 42.3102 92.146 42.2943 92.1873C42.2816 92.2285 42.307 92.4124 42.4499 92.5043C42.596 92.5963 43.4186 92.2063 43.5806 92.0921C43.6791 92.0192 44.0062 91.8607 44.2413 91.7465C44.4096 91.6672 44.6065 91.7053 44.7336 91.8448C45.0226 92.1619 45.4228 92.7739 44.8892 93.3636C44.1809 94.1278 44.0793 94.1659 43.8379 94.2768C43.5997 94.3878 40.7506 94.613 40.7506 94.613L40.7602 93.3129L40.7665 93.3097Z" fill="#FFC2B2"/>
<path d="M32.7085 86.7009L36.755 92.1896L40.5887 92.605C41.2715 92.4718 41.9131 92.976 41.9481 93.6704C41.9735 94.219 41.6495 94.7263 41.1381 94.9261L37.0694 95.0719C36.3611 95.0973 35.6783 94.8214 35.1859 94.3109L32.1241 91.1464C32.0955 91.1052 32.0796 91.0545 32.0796 91.0006L32.2892 86.8182C32.2988 86.5963 32.5878 86.517 32.7117 86.7009H32.7085Z" fill="#CC3186"/>
<path d="M28.2078 87.1045C28.2078 87.1045 29.0654 85.0878 30.987 84.7422L31.9399 85.7727C31.9399 85.7727 29.6943 86.3435 28.8748 88.1128C28.0585 89.8821 28.2047 87.1076 28.2047 87.1076L28.2078 87.1045Z" fill="#DE4077"/>
<path d="M25.1809 82.5629C25.1809 82.5629 24.3297 83.419 24.1042 84.4781C23.8787 85.534 25.1841 85.7655 25.1841 85.7655C25.1841 85.7655 25.1047 83.2446 26.2354 82.3314C26.2164 82.341 25.6796 82.2744 25.1841 82.5661L25.1809 82.5629Z" fill="#DE4077"/>
<path d="M26.5499 84.4816C25.5176 83.8569 24.5743 83.7872 23.885 84.1803C23.866 84.1899 23.8469 84.2025 23.8278 84.212C23.8088 84.2216 23.7897 84.2311 23.7707 84.2438C23.7516 84.2533 23.7326 84.266 23.7135 84.2755C23.6945 84.285 23.6754 84.2977 23.6563 84.3072C23.6373 84.3167 23.6182 84.3294 23.5992 84.3389C23.5801 84.3484 23.5611 84.3611 23.542 84.3706C23.5229 84.3801 23.5039 84.3928 23.4848 84.4023C23.4658 84.4118 23.4467 84.4213 23.4276 84.434C23.4086 84.4435 23.3895 84.453 23.3705 84.4657C23.3514 84.4784 23.3324 84.4879 23.3133 84.4974C23.2942 84.5069 23.2752 84.5196 23.2561 84.5291C23.2371 84.5386 23.218 84.5513 23.199 84.5608C23.1799 84.5704 23.1608 84.583 23.1418 84.5926C23.1227 84.6021 23.1037 84.6148 23.0846 84.6243C23.0656 84.6338 23.0465 84.6433 23.0274 84.656C23.0084 84.6655 22.9893 84.6782 22.9703 84.6877C22.9512 84.7004 22.9322 84.7099 22.9131 84.7194C22.894 84.7289 22.875 84.7416 22.8559 84.7511C22.8369 84.7606 22.8178 84.7733 22.7988 84.7828C22.7797 84.7923 22.7606 84.805 22.7416 84.8145C22.7225 84.824 22.7035 84.8367 22.6844 84.8462C22.6654 84.8557 22.6463 84.8652 22.6272 84.8779C22.6082 84.8874 22.5891 84.9001 22.5701 84.9096C22.551 84.9192 22.532 84.9318 22.5129 84.9413C22.4938 84.9509 22.4748 84.9635 22.4557 84.9731C22.4367 84.9826 22.4176 84.9952 22.3954 85.0048C22.3763 85.0143 22.3573 85.027 22.3382 85.0365C22.3192 85.046 22.3001 85.0555 22.281 85.0682C22.262 85.0777 22.2429 85.0904 22.2239 85.0999C22.2048 85.1126 22.1858 85.1221 22.1635 85.1316C22.1445 85.1411 22.1254 85.1538 22.1063 85.1633C22.0873 85.1728 22.0682 85.1855 22.0492 85.195C22.0301 85.2045 22.0111 85.2172 21.992 85.2267C21.9729 85.2362 21.9539 85.2489 21.9348 85.2584C21.9158 85.2679 21.8967 85.2775 21.8777 85.2901C21.8586 85.3028 21.8395 85.3123 21.8205 85.3218C21.8014 85.3314 21.7824 85.344 21.7633 85.3536C21.7443 85.3631 21.7252 85.3758 21.7061 85.3853C21.6871 85.3948 21.668 85.4075 21.649 85.417C21.6299 85.4265 21.6109 85.4392 21.5918 85.4487C21.5727 85.4582 21.5537 85.4709 21.5346 85.4804C21.5156 85.4899 21.4965 85.4994 21.4775 85.5121C21.4584 85.5248 21.4393 85.5343 21.4203 85.5438C21.4012 85.5533 21.3822 85.566 21.3631 85.5755C21.3441 85.585 21.325 85.5977 21.3059 85.6072C21.2869 85.6167 21.2678 85.6294 21.2488 85.6389C21.2297 85.6484 21.2107 85.6611 21.1916 85.6706C21.1725 85.6802 21.1535 85.6897 21.1344 85.7024C21.1154 85.7119 21.0963 85.7245 21.0773 85.7341C21.0582 85.7436 21.0391 85.7563 21.0201 85.7658C21.001 85.7753 20.982 85.788 20.9629 85.7975C20.9439 85.807 20.9248 85.8197 20.9057 85.8292C20.8867 85.8387 20.8676 85.8514 20.8486 85.8609C20.8295 85.8704 20.8105 85.8831 20.7914 85.8926C20.7723 85.9021 20.7533 85.9116 20.7342 85.9243C20.7152 85.937 20.6961 85.9465 20.6771 85.956C20.658 85.9655 20.6389 85.9782 20.6199 85.9877C19.9179 86.3555 19.4701 87.1863 19.4447 88.3912L19.3208 94.1336C19.3145 94.5078 19.5654 94.9676 19.8862 95.1642L26.1497 98.9597C26.3116 99.058 26.4577 99.0611 26.5562 98.985C26.5784 98.9755 26.5975 98.966 26.6134 98.9533C26.6356 98.9438 26.6547 98.9343 26.6705 98.9216C26.6928 98.9121 26.7118 98.9026 26.7277 98.8899C26.75 98.8804 26.769 98.8709 26.7849 98.8582C26.8071 98.8519 26.8262 98.8392 26.8421 98.8265C26.8643 98.817 26.8834 98.8075 26.8992 98.7948C26.9215 98.7884 26.9405 98.7758 26.9564 98.7631C26.9786 98.7536 26.9977 98.744 27.0136 98.7314C27.0358 98.725 27.0549 98.7123 27.0708 98.6997C27.093 98.6933 27.112 98.6806 27.1279 98.668C27.1502 98.6584 27.1692 98.6489 27.1851 98.6362C27.2073 98.6299 27.2264 98.6172 27.2423 98.6045C27.2645 98.595 27.2836 98.5855 27.2994 98.5728C27.3217 98.5633 27.3407 98.5538 27.3566 98.5411C27.3788 98.5316 27.3979 98.5221 27.4138 98.5094C27.436 98.4999 27.4551 98.4904 27.471 98.4777C27.4932 98.4714 27.5122 98.4587 27.5281 98.446C27.5504 98.4365 27.5694 98.427 27.5853 98.4143C27.6075 98.4048 27.6266 98.3953 27.6425 98.3826C27.6647 98.3731 27.6838 98.3636 27.6996 98.3509C27.7219 98.3414 27.7409 98.3318 27.7568 98.3192C27.779 98.3128 27.7981 98.3001 27.814 98.2874C27.8362 98.2779 27.8553 98.2684 27.8712 98.2557C27.8934 98.2462 27.9124 98.2367 27.9283 98.224C27.9506 98.2145 27.9696 98.205 27.9855 98.1923C28.0077 98.1828 28.0268 98.1733 28.0427 98.1606C28.0649 98.1511 28.084 98.1416 28.0998 98.1289C28.1221 98.1194 28.1411 98.1099 28.157 98.0972C28.1792 98.0877 28.1983 98.0782 28.2142 98.0655C28.2364 98.056 28.2555 98.0465 28.2714 98.0338C28.2936 98.0274 28.3126 98.0148 28.3285 98.0021C28.3508 97.9926 28.3698 97.983 28.3857 97.9704C28.4079 97.964 28.427 97.9513 28.4429 97.9387C28.4651 97.9291 28.4842 97.9196 28.5 97.9069C28.5223 97.8974 28.5413 97.8879 28.5572 97.8752C28.5794 97.8657 28.5985 97.8562 28.6176 97.8435C28.6366 97.834 28.6588 97.8245 28.6747 97.8118C28.6938 97.8055 28.716 97.7928 28.7319 97.7801C28.751 97.7706 28.7732 97.7611 28.7891 97.7484C28.8113 97.7389 28.8304 97.7294 28.8462 97.7167C28.8685 97.7104 28.8875 97.6977 28.9066 97.685C28.9257 97.6755 28.9479 97.666 28.9638 97.6533C28.9828 97.6469 29.0051 97.6343 29.0209 97.6216C29.04 97.6121 29.0622 97.6025 29.0781 97.5899C29.0972 97.5803 29.1194 97.5708 29.1353 97.5582C29.1543 97.5486 29.1766 97.5391 29.1925 97.5264C29.2115 97.5169 29.2337 97.5074 29.2496 97.4947C29.2687 97.4852 29.2909 97.4757 29.3068 97.463C29.3259 97.4535 29.3481 97.444 29.364 97.4313C29.383 97.4218 29.4053 97.4123 29.4211 97.3996C29.4402 97.3901 29.4624 97.3806 29.4783 97.3679C29.4974 97.3584 29.5196 97.3489 29.5355 97.3362C29.5545 97.3267 29.5768 97.3172 29.5927 97.3045C29.6117 97.2981 29.6339 97.2855 29.6498 97.2728C29.6689 97.2633 29.6911 97.2538 29.707 97.2411C29.7261 97.2316 29.7483 97.222 29.7642 97.2094C29.7832 97.1998 29.8055 97.1903 29.8213 97.1777C29.9357 97.1333 30.0119 97.0064 30.0151 96.8193L30.1421 91.0199C30.193 88.6417 28.5858 85.715 26.5467 84.4816H26.5499Z" fill="#FF8AB3"/>
<path d="M26.6547 98.6616L26.7817 92.8621C26.8325 90.484 25.2254 87.5573 23.1863 86.3238C21.1503 85.0904 19.4574 86.0194 19.4034 88.3976L19.2795 94.1368C19.27 94.511 19.5241 94.9739 19.8449 95.1673L26.1084 98.9628C26.4037 99.1404 26.6451 99.0072 26.6547 98.6648V98.6616Z" fill="#DE4077"/>
<path d="M23.7707 93.3534C23.3546 93.0015 23.1577 93.3122 23.1577 93.3122C23.1577 93.3122 22.9766 92.7732 22.5574 92.6178C22.1381 92.4656 21.9729 93.1283 22.3604 93.7466C22.7479 94.3649 23.0878 94.8152 23.1132 94.9959L23.1227 95.0023C23.1577 94.8564 23.5039 94.8215 23.9104 94.6852C24.317 94.5488 24.1836 93.7022 23.7675 93.3502L23.7707 93.3534Z" fill="#FAFAFA"/>
<path d="M23.1577 90.4624C22.389 89.9963 21.6839 89.9392 21.1694 90.2246C21.163 90.2278 21.1567 90.2309 21.1535 90.2341C21.1471 90.2373 21.1408 90.2404 21.1376 90.2436C21.1313 90.2468 21.1249 90.25 21.1217 90.2531C21.1154 90.2563 21.109 90.2595 21.1058 90.2626C21.0995 90.2658 21.0963 90.269 21.09 90.2722C21.0836 90.2753 21.0804 90.2785 21.0741 90.2817C21.0677 90.2848 21.0614 90.288 21.0582 90.2912C21.0519 90.2944 21.0455 90.2975 21.0423 90.3007C21.036 90.3039 21.0296 90.307 21.0264 90.3102C21.0201 90.3134 21.0137 90.3165 21.0106 90.3197C21.0042 90.3229 20.9979 90.3261 20.9947 90.3292C20.9883 90.3324 20.982 90.3356 20.9756 90.3387C20.9693 90.3419 20.9661 90.3451 20.9597 90.3483C20.9534 90.3514 20.9502 90.3546 20.9439 90.3578C20.9375 90.3609 20.9343 90.3641 20.928 90.3673C20.9248 90.3704 20.9184 90.3736 20.9121 90.3768C20.9057 90.38 20.8994 90.3831 20.8962 90.3863C20.8899 90.3895 20.8867 90.3926 20.8803 90.3958C20.874 90.399 20.8708 90.4022 20.8645 90.4053C20.8581 90.4085 20.8517 90.4117 20.8486 90.4148C20.8422 90.418 20.8359 90.4212 20.8327 90.4244C20.8263 90.4275 20.82 90.4307 20.8168 90.4339C20.8105 90.437 20.8041 90.4402 20.8009 90.4434C20.7946 90.4466 20.7882 90.4497 20.7851 90.4529C20.7787 90.4561 20.7723 90.4592 20.7692 90.4624C20.7628 90.4656 20.7565 90.4688 20.7533 90.4719C20.7469 90.4751 20.7406 90.4783 20.7342 90.4814C20.7279 90.4846 20.7215 90.4878 20.7184 90.4909C20.7152 90.4941 20.7088 90.4973 20.7025 90.5005C20.6993 90.5036 20.6929 90.5068 20.6866 90.51C20.6834 90.5131 20.6771 90.5163 20.6707 90.5195C20.6644 90.5227 20.6612 90.5258 20.6548 90.529C20.6485 90.5322 20.6453 90.5353 20.6389 90.5385C20.6326 90.5417 20.6294 90.5448 20.6231 90.548C20.6167 90.5512 20.6135 90.5544 20.6072 90.5575C20.6008 90.5607 20.5945 90.5639 20.5913 90.567C20.5849 90.5702 20.5786 90.5734 20.5754 90.5766C20.5691 90.5797 20.5627 90.5829 20.5595 90.5861C20.5532 90.5892 20.5468 90.5924 20.5437 90.5956C20.5373 90.5988 20.531 90.6019 20.5278 90.6051C20.5214 90.6083 20.5151 90.6114 20.5087 90.6146C20.5055 90.6178 20.496 90.6209 20.4928 90.6241C20.4897 90.6273 20.4801 90.6305 20.477 90.6336C20.4738 90.6368 20.4674 90.64 20.4611 90.6431C20.4579 90.6463 20.4515 90.6495 20.4452 90.6527C20.4388 90.6558 20.4357 90.659 20.4293 90.6622C20.423 90.6653 20.4166 90.6685 20.4134 90.6717C20.4071 90.6749 20.4039 90.678 20.3976 90.6812C19.8767 90.9602 19.5432 91.5849 19.5241 92.4854L19.4765 94.6606C19.4701 94.9428 19.6607 95.2884 19.9021 95.4343L24.6155 98.2881C24.7299 98.3578 24.8347 98.3642 24.9078 98.3198C24.9141 98.3166 24.9205 98.3134 24.9236 98.3103C24.93 98.3071 24.9363 98.3039 24.9427 98.3007C24.949 98.2976 24.9554 98.2944 24.9586 98.2912C24.9649 98.2881 24.9713 98.2849 24.9745 98.2817C24.9808 98.2786 24.984 98.2754 24.9903 98.2722C24.9967 98.269 24.9999 98.2659 25.0062 98.2627C25.0126 98.2595 25.0157 98.2563 25.0221 98.2532C25.0285 98.25 25.0348 98.2468 25.038 98.2437C25.0443 98.2405 25.0507 98.2373 25.0539 98.2342C25.0602 98.231 25.0666 98.2278 25.0697 98.2246C25.0761 98.2215 25.0824 98.2183 25.0856 98.2151C25.092 98.212 25.0983 98.2088 25.1015 98.2056C25.1079 98.2024 25.1142 98.1993 25.1174 98.1961C25.1237 98.1929 25.1301 98.1898 25.1333 98.1866C25.1396 98.1834 25.146 98.1802 25.1491 98.1771C25.1555 98.1739 25.1619 98.1707 25.1682 98.1676C25.1746 98.1644 25.1809 98.1612 25.1841 98.1581C25.1904 98.1549 25.1936 98.1517 25.2 98.1485C25.2063 98.1454 25.2095 98.1422 25.2158 98.139C25.2222 98.1359 25.2286 98.1327 25.2317 98.1295C25.2381 98.1263 25.2444 98.1232 25.2476 98.12C25.254 98.1168 25.2603 98.1137 25.2635 98.1105C25.2698 98.1073 25.2762 98.1042 25.2794 98.101C25.2857 98.0978 25.2921 98.0946 25.2953 98.0915C25.3016 98.0883 25.308 98.0851 25.3111 98.082C25.3175 98.0788 25.3238 98.0756 25.327 98.0724C25.3334 98.0693 25.3397 98.0661 25.3429 98.0629C25.3492 98.0598 25.3556 98.0566 25.3588 98.0534C25.3651 98.0502 25.3715 98.0471 25.3778 98.0439C25.3842 98.0407 25.3905 98.0376 25.3937 98.0344C25.4001 98.0312 25.4032 98.0281 25.4096 98.0249C25.4159 98.0217 25.4191 98.0185 25.4255 98.0154C25.4318 98.0122 25.4382 98.009 25.4414 98.0058C25.4477 98.0027 25.4541 97.9995 25.4572 97.9963C25.4636 97.9932 25.4699 97.99 25.4731 97.9868C25.4795 97.9837 25.4858 97.9805 25.489 97.9773C25.4954 97.9741 25.5017 97.971 25.5049 97.9678C25.5112 97.9646 25.5176 97.9615 25.5208 97.9583C25.5271 97.9551 25.5335 97.9519 25.5366 97.9488C25.543 97.9456 25.5493 97.9424 25.5525 97.9393C25.5589 97.9361 25.5652 97.9329 25.5684 97.9298C25.5748 97.9266 25.5811 97.9234 25.5843 97.9202C25.5906 97.9171 25.597 97.9139 25.6002 97.9107C25.6065 97.9076 25.6129 97.9044 25.6192 97.9012C25.6224 97.898 25.6288 97.898 25.6351 97.8917C25.6415 97.8885 25.6478 97.8854 25.651 97.8822C25.6573 97.879 25.6637 97.8759 25.6669 97.8727C25.6732 97.8695 25.6796 97.8663 25.6827 97.8632C25.7622 97.8251 25.813 97.7332 25.8161 97.6L25.8638 95.3804C25.9019 93.592 24.6918 91.3883 23.1577 90.4592V90.4624Z" fill="#FF8AB3"/>
<path d="M24.9745 98.0502L25.0221 95.8306C25.0602 94.0423 23.8501 91.8385 22.3192 90.9095C20.785 89.9804 19.5114 90.678 19.4733 92.4664L19.4256 94.6416C19.4193 94.9238 19.6099 95.2694 19.8512 95.4184L24.5647 98.2722C24.7871 98.4054 24.9681 98.3039 24.9745 98.047V98.0502Z" fill="#F75A90"/>
<path d="M22.9353 93.8044C22.5193 93.4524 22.3223 93.7632 22.3223 93.7632C22.3223 93.7632 22.1413 93.2241 21.722 93.0687C21.3028 92.9134 21.1376 93.5792 21.5251 94.1976C21.9126 94.8159 22.2525 95.2661 22.2779 95.4469L22.2874 95.4532C22.3192 95.3074 22.6685 95.2725 23.0751 95.1361C23.4816 94.9998 23.3482 94.1532 22.9322 93.8012L22.9353 93.8044Z" fill="#FAFAFA"/>
<path d="M26.6451 88.5437C25.9559 87.2913 25.0253 86.2671 24.0248 85.6614C23.3895 85.2778 22.767 85.0875 22.208 85.1002C21.9126 85.1065 21.6363 85.17 21.3822 85.2905C21.0582 85.4427 20.7882 85.6836 20.5786 85.9975C20.5818 85.9975 20.5818 85.9944 20.5849 85.9944C20.604 85.9817 20.6231 85.9722 20.6421 85.9627C20.6612 85.9532 20.6802 85.9405 20.6993 85.931C20.7183 85.9215 20.7374 85.9088 20.7565 85.8993C20.7755 85.8897 20.7946 85.8771 20.8136 85.8675C20.8327 85.8549 20.8517 85.8454 20.8708 85.8358C20.8899 85.8232 20.9089 85.8136 20.928 85.8041C20.947 85.7946 20.9661 85.7819 20.9851 85.7724C21.0042 85.7629 21.0233 85.7502 21.0423 85.7407C21.0614 85.728 21.0804 85.7185 21.0995 85.709C21.1185 85.6995 21.1376 85.6868 21.1567 85.6773C21.1757 85.6678 21.1948 85.6551 21.2107 85.6456C21.2932 85.5885 21.379 85.5378 21.4711 85.4934C21.4997 85.4807 21.5315 85.4648 21.5632 85.4522C22.2143 85.189 23.0433 85.3317 23.9041 85.8549C25.9083 87.0693 27.4964 89.9579 27.4455 92.2949L27.382 95.1676C27.382 95.2279 27.4265 95.2755 27.4868 95.2755C27.5535 95.2755 27.6043 95.2247 27.6075 95.1613L27.6711 92.298C27.6965 91.128 27.3312 89.7962 26.642 88.5437H26.6451Z" fill="#FAFAFA"/>
<path d="M28.0903 87.754C27.4011 86.5015 26.4704 85.4774 25.4699 84.8717C24.8315 84.4849 24.209 84.2946 23.6468 84.3105C23.3546 84.3168 23.0783 84.3802 22.8242 84.5007C22.5034 84.6529 22.2334 84.8907 22.0238 85.2015C22.0269 85.2015 22.0301 85.1983 22.0301 85.1983C22.0492 85.1888 22.0682 85.1761 22.0873 85.1666C22.1063 85.1571 22.1254 85.1444 22.1445 85.1349C22.1635 85.1254 22.1826 85.1127 22.2016 85.1032C22.2207 85.0905 22.2397 85.081 22.2588 85.0715C22.2779 85.0588 22.2969 85.0493 22.316 85.0398C22.335 85.0303 22.3541 85.0176 22.3731 85.0081C22.3922 84.9954 22.4113 84.9859 22.4303 84.9764C22.4494 84.9668 22.4684 84.9542 22.4875 84.9447C22.5066 84.932 22.5256 84.9225 22.5447 84.9129C22.5637 84.9003 22.5828 84.8907 22.6018 84.8812C22.6209 84.8717 22.6399 84.859 22.659 84.8495C22.6654 84.8464 22.6685 84.8432 22.6717 84.84C22.7479 84.7893 22.8242 84.7417 22.9099 84.7037C22.9322 84.6942 22.9544 84.6815 22.9798 84.672C23.6373 84.3993 24.4726 84.5356 25.3429 85.0651C27.3471 86.2796 28.9352 89.1682 28.8844 91.5051L28.8208 94.3779C28.8208 94.4382 28.8653 94.4857 28.9256 94.4857C28.9923 94.4857 29.0432 94.435 29.0463 94.3716L29.1099 91.5083C29.1353 90.3383 28.77 89.0065 28.0808 87.754H28.0903Z" fill="#FAFAFA"/>
<path d="M20.3658 90.6557C20.3721 90.6525 20.3753 90.6494 20.3817 90.6462C20.388 90.643 20.3912 90.6399 20.3976 90.6367C20.4039 90.6335 20.4103 90.6304 20.4134 90.6272C20.4198 90.624 20.4261 90.6208 20.4293 90.6177C20.4357 90.6145 20.442 90.6113 20.4452 90.6082C20.4515 90.605 20.4579 90.6018 20.4611 90.5986C20.4674 90.5955 20.4738 90.5923 20.4801 90.5891C20.4833 90.586 20.4897 90.5828 20.496 90.5796C20.4992 90.5765 20.5055 90.5733 20.5119 90.5701C20.5182 90.5669 20.5214 90.5638 20.5278 90.5606C20.5341 90.5574 20.5373 90.5543 20.5437 90.5511C20.5468 90.5479 20.5532 90.5447 20.5595 90.5416C20.5659 90.5384 20.5691 90.5352 20.5754 90.5321C20.5818 90.5289 20.5849 90.5257 20.5913 90.5225C20.5977 90.5194 20.6008 90.5162 20.6072 90.513C20.6135 90.5099 20.6199 90.5067 20.6231 90.5035C20.6294 90.5004 20.6358 90.4972 20.6389 90.494C20.6453 90.4908 20.6516 90.4877 20.6548 90.4845C20.6612 90.4813 20.6675 90.4781 20.6707 90.475C20.6771 90.4718 20.6834 90.4686 20.6866 90.4655C20.6898 90.4623 20.6929 90.4623 20.6961 90.4623C20.785 90.3989 20.8803 90.3481 20.9788 90.3101C20.9851 90.3069 20.9883 90.3038 20.9947 90.3006C20.9979 90.2974 21.0074 90.2942 21.0106 90.2911C21.0137 90.2879 21.0233 90.2847 21.0264 90.2816C21.0328 90.2784 21.036 90.2752 21.0423 90.272C21.0487 90.2689 21.0518 90.2657 21.0582 90.2625C21.0646 90.2594 21.0709 90.2562 21.0741 90.253C21.0804 90.2499 21.0868 90.2467 21.09 90.2435C21.0963 90.2403 21.1027 90.2372 21.1058 90.234C21.1122 90.2308 21.1185 90.2277 21.1217 90.2245C21.1281 90.2213 21.1344 90.2181 21.1376 90.215C21.2297 90.1642 21.3282 90.123 21.4298 90.0977C21.3822 90.0977 21.3314 90.1008 21.2837 90.1072C20.8835 90.1547 20.5468 90.3481 20.3023 90.6684C20.3086 90.6652 20.315 90.6621 20.3181 90.6589C20.3245 90.6557 20.3309 90.6526 20.334 90.6494L20.3658 90.6557Z" fill="white"/>
<path d="M21.1503 90.2337C21.144 90.2369 21.1376 90.2401 21.1344 90.2432C21.1281 90.2464 21.1249 90.2496 21.1185 90.2527C21.1122 90.2559 21.1058 90.2591 21.1027 90.2623C21.0963 90.2654 21.09 90.2686 21.0868 90.2718C21.0804 90.2749 21.0741 90.2781 21.0709 90.2813C21.0646 90.2845 21.0582 90.2876 21.055 90.2908C21.0487 90.294 21.0423 90.2971 21.0391 90.3003C21.0328 90.3035 21.0264 90.3066 21.0201 90.3098C21.0169 90.313 21.0106 90.3162 21.0042 90.3193C21.4933 90.1323 22.1127 90.2306 22.7733 90.6301C24.2693 91.5369 25.4604 93.6836 25.4509 95.4371C25.4509 95.4688 25.4763 95.4973 25.5081 95.4973C25.543 95.4973 25.5716 95.472 25.5716 95.4371C25.5779 94.5746 25.3048 93.6012 24.7998 92.6848C24.2852 91.7462 23.5865 90.9789 22.8369 90.5254C22.3636 90.2401 21.8967 90.0974 21.4775 90.1069C21.4711 90.1069 21.4648 90.1069 21.4616 90.1101C21.3599 90.1386 21.2678 90.1766 21.1757 90.2274C21.1694 90.2305 21.163 90.2337 21.1598 90.2369L21.1503 90.2337Z" fill="white"/>
<path d="M28.9574 73.1614C28.9574 73.1614 25.7304 73.2692 24.4726 75.7171C23.2148 78.165 23.199 82.1634 23.199 82.1634C23.199 82.1634 23.9263 84.5479 26.7404 85.4611C29.5545 86.3711 32.0987 85.0457 32.0987 85.0457C32.0987 85.0457 30.3803 79.3826 32.1273 77.2264C33.8742 75.0702 27.2073 75.3493 27.2073 75.3493L28.9574 73.1582V73.1614Z" fill="#542B20"/>
<path d="M27.3407 116.402C27.3407 116.402 27.3598 116.948 27.7028 117.052C28.0427 117.157 29.9293 116.631 30.266 116.425C30.6027 116.219 30.6853 115.889 30.4947 115.679C30.3073 115.473 29.2147 115.438 28.8812 115.527C28.5477 115.616 28.157 115.79 28.157 115.79L27.3407 116.402Z" fill="#FFC2B2"/>
</g>
<defs>
<clipPath id="clip0_289_117">
<rect width="120" height="120" fill="white"/>
</clipPath>
</defs>
</svg>
