<svg width="56" height="40" viewBox="0 0 56 40" fill="none" xmlns="http://www.w3.org/2000/svg">
<path d="M43.6656 39.2721C40.2156 39.2721 37.3156 38.0471 34.9656 35.5971C32.6656 33.1471 31.5156 29.6471 31.5156 25.0971C31.5156 20.9471 32.2906 17.2971 33.8406 14.1471C35.4406 10.9471 37.4406 8.24707 39.8406 6.04707C42.2906 3.79706 44.7906 2.04706 47.3406 0.797064L51.7656 5.37206C50.5656 5.87206 49.0906 6.84706 47.3406 8.29707C45.6406 9.69707 44.1406 11.3221 42.8406 13.1721C41.5406 15.0221 40.8656 16.8971 40.8156 18.7971C41.3156 18.2471 42.1156 17.7971 43.2156 17.4471C44.3156 17.0471 45.4656 16.8471 46.6656 16.8471C48.9656 16.8471 51.0656 17.7221 52.9656 19.4721C54.8656 21.1721 55.8156 23.6721 55.8156 26.9721C55.8156 30.7221 54.6406 33.7221 52.2906 35.9721C49.9906 38.1721 47.1156 39.2721 43.6656 39.2721ZM12.4656 39.2721C9.01563 39.2721 6.11563 38.0471 3.76563 35.5971C1.46563 33.1471 0.315625 29.6471 0.315625 25.0971C0.315625 20.9471 1.09063 17.2971 2.64063 14.1471C4.24063 10.9471 6.24063 8.24707 8.64063 6.04707C11.0906 3.79706 13.5906 2.04706 16.1406 0.797064L20.5656 5.37206C19.3656 5.87206 17.8906 6.84706 16.1406 8.29707C14.4406 9.69707 12.9406 11.3221 11.6406 13.1721C10.3406 15.0221 9.66563 16.8971 9.61563 18.7971C10.1156 18.2471 10.9156 17.7971 12.0156 17.4471C13.1156 17.0471 14.2656 16.8471 15.4656 16.8471C17.7656 16.8471 19.8656 17.7221 21.7656 19.4721C23.6656 21.1721 24.6156 23.6721 24.6156 26.9721C24.6156 30.7221 23.4406 33.7221 21.0906 35.9721C18.7906 38.1721 15.9156 39.2721 12.4656 39.2721Z" fill="black"/>
</svg>
